<?xml version="1.0" standalone="no"?>
<!DOCTYPE svg PUBLIC "-//W3C//DTD SVG 1.1//EN" "http://www.w3.org/Graphics/SVG/1.1/DTD/svg11.dtd" >
<svg xmlns="http://www.w3.org/2000/svg" xmlns:xlink="http://www.w3.org/1999/xlink" version="1.1">
<metadata>
Created by FontForge 20170731 at Fri May 20 12:51:48 2022
 By Aleksey,,,
Copyright (c) 2011 Rod McDonald. Published by Canada Type. All rights reserved.
</metadata>
<defs>
<font id="Gibson-Bold" horiz-adv-x="1361" >
  <font-face 
    font-family="Gibson"
    font-weight="700"
    font-stretch="normal"
    units-per-em="2048"
    panose-1="2 0 0 0 0 0 0 0 0 0"
    ascent="1638"
    descent="-410"
    x-height="1044"
    cap-height="1413"
    bbox="-176 -410 2908 1925"
    underline-thickness="40"
    underline-position="-312"
    unicode-range="U+0020-FB04"
  />
<missing-glyph horiz-adv-x="409" 
 />
    <glyph glyph-name="ff" unicode="ff" horiz-adv-x="1536" 
d="M1608 1413l-21 -307q-66 14 -133 14q-92 0 -92 -55v-21h205v-337h-205v-707h-461v707h-307v-707h-461v707h-123v337h123v11q0 196 96 286q112 103 334 103q119 0 277 -31l-21 -307q-66 14 -133 14q-92 0 -92 -55v-21h307v11q0 196 96 286q112 103 334 103q119 0 277 -31z
" />
    <glyph glyph-name="fi" unicode="fi" horiz-adv-x="1423" 
d="M840 1413l-21 -307q-66 14 -133 14q-92 0 -92 -55v-21h205v-337h-205v-707h-461v707h-123v337h123v11q0 196 96 286q112 103 334 103q119 0 277 -31zM1110 1081q-111 0 -178.5 60t-67.5 159t67.5 159.5t178.5 60.5q112 0 179 -60t67 -160t-67 -159.5t-179 -59.5z
M881 1044h460v-1044h-460v1044z" />
    <glyph glyph-name="fl" unicode="fl" horiz-adv-x="1437" 
d="M840 1413l-21 -307q-66 14 -133 14q-92 0 -92 -55v-21h205v-337h-205v-707h-461v707h-123v337h123v11q0 196 96 286q112 103 334 103q119 0 277 -31zM891 1413h461v-1413h-461v1413z" />
    <glyph glyph-name="ffi" unicode="ffi" horiz-adv-x="2160" 
d="M1608 1413l-21 -307q-66 14 -133 14q-92 0 -92 -55v-21h205v-337h-205v-707h-461v707h-307v-707h-461v707h-123v337h123v11q0 196 96 286q112 103 334 103q119 0 277 -31l-21 -307q-66 14 -133 14q-92 0 -92 -55v-21h307v11q0 196 96 286q112 103 334 103q119 0 277 -31z
M1649 1044h460v-1044h-460v1044zM1878 1081q-111 0 -178.5 60t-67.5 159t67.5 159.5t178.5 60.5q112 0 179 -60t67 -160t-67 -159.5t-179 -59.5z" />
    <glyph glyph-name="ffl" unicode="ffl" horiz-adv-x="2170" 
d="M1608 1413l-21 -307q-66 14 -133 14q-92 0 -92 -55v-21h205v-337h-205v-707h-461v707h-307v-707h-461v707h-123v337h123v11q0 196 96 286q112 103 334 103q172 0 277 -31l-21 -307q-66 14 -133 14q-92 0 -92 -55v-21h307v11q0 196 96 286q112 103 334 103q172 0 277 -31z
M1622 1413h461v-1413h-461v1413z" />
    <glyph glyph-name="f_j" unicode="fj" horiz-adv-x="1392" 
d="M881 1044h460v-993q0 -225 -108 -327q-109 -103 -318 -103q-123 0 -186 14l-22 7l10 348q33 -10 82 -10q44 0 63 20.5t19 75.5v968zM1110 1081q-111 0 -178.5 60t-67.5 159t67.5 159.5t178.5 60.5q112 0 179 -60t67 -160t-67 -159.5t-179 -59.5zM840 1413l-21 -307
q-66 14 -133 14q-92 0 -92 -55v-21h205v-337h-205v-707h-461v707h-123v337h123v11q0 196 96 286q112 103 334 103q119 0 277 -31z" />
    <glyph glyph-name="f_t" unicode="ft" horiz-adv-x="1597" 
d="M1372 1044h215v-337h-215v-287q0 -41 19 -56.5t63 -15.5q52 0 88 12l14 2l21 -352q-140 -35 -287 -35q-181 0 -286 91q-93 87 -93 303v338h-317v-707h-461v707h-123v337h123v11q0 196 96 286q112 103 334 103q172 0 277 -31l-21 -307q-66 14 -133 14q-92 0 -92 -55v-21
h317v256h461v-256z" />
    <glyph glyph-name=".notdef" horiz-adv-x="409" 
 />
    <glyph glyph-name=".null" horiz-adv-x="0" 
 />
    <glyph glyph-name="nonmarkingreturn" horiz-adv-x="682" 
 />
    <glyph glyph-name="space" unicode=" " horiz-adv-x="399" 
 />
    <glyph glyph-name="exclam" unicode="!" horiz-adv-x="716" 
d="M158 492l-41 921h481l-41 -921h-399zM358 -23q-116 0 -184 59t-68 163q0 105 68 164t184 59q114 0 182 -60t68 -163t-68 -162.5t-182 -59.5z" />
    <glyph glyph-name="quotedbl" unicode="&#x22;" horiz-adv-x="1198" 
d="M717 829l-51 584h419l-51 -584h-317zM164 829l-51 584h419l-51 -584h-317z" />
    <glyph glyph-name="numbersign" unicode="#" horiz-adv-x="1454" 
d="M1157 1110h205v-219h-246l-51 -266h219v-222h-260l-82 -419h-246l82 419h-235l-82 -419h-246l82 419h-205v222h246l51 266h-221v219h262l82 420h246l-82 -420h235l82 420h246zM584 625h235l51 266h-235z" />
    <glyph glyph-name="dollar" unicode="$" 
d="M1212 461q0 -207 -168 -338q-53 -44 -139 -74q-95 -30 -147 -35l-6 -75h-179l5 71q-260 21 -431 164l185 297q44 -44 137 -84q89 -38 145 -45l11 180l-82 31q-139 53 -221 123q-123 108 -123 287q0 196 149 321q109 95 318 113l6 82h178l-6 -86q90 -9 194 -50
q101 -40 164 -94l-153 -286q-125 94 -240 112l-10 -180l133 -55q280 -120 280 -379zM649 942l10 137q-27 0 -46 -18t-19 -47q0 -51 55 -72zM829 403q0 52 -57 78l-10 -143q26 5 46.5 23t20.5 42z" />
    <glyph glyph-name="percent" unicode="%" horiz-adv-x="1945" 
d="M1884 362q0 -178 -110 -285.5t-289 -107.5t-289.5 107.5t-110.5 285.5q0 179 111 287q112 109 289 109t289 -109q110 -107 110 -287zM440 55l885 1399l180 -108l-887 -1397zM860 1038q0 -178 -110 -285.5t-289 -107.5t-289.5 107.5t-110.5 285.5q0 179 111 287
q112 109 289 109t289 -109q110 -107 110 -287zM1485 512q-113 0 -113 -143q0 -144 113 -144q117 0 117 144q0 143 -117 143zM461 1188q-113 0 -113 -144q0 -143 113 -143q117 0 117 143q0 144 -117 144z" />
    <glyph glyph-name="ampersand" unicode="&#x26;" horiz-adv-x="1669" 
d="M1346 342l323 -322v-20h-522l-103 102q-105 -71 -203.5 -99t-226.5 -28q-226 0 -391 109q-162 110 -162 326q0 127 86.5 226.5t225.5 145.5q-133 139 -133 287q0 190 149 281q149 94 359 94q130 3 236.5 -34t176.5 -122.5t72 -208.5q0 -113 -71 -211t-179 -151l123 -123
q112 103 188 219l308 -184q-120 -181 -256 -287zM854 1065q0 82 -96 82q-99 0 -99 -82q0 -14 5 -27.5t13 -24t15 -18t15.5 -14.5t9.5 -8l35 -37q102 64 102 129zM803 352l-199 201l-20 -10q-82 -40 -82 -123q0 -49 40 -81t93 -32q111 0 168 45z" />
    <glyph glyph-name="quotesingle" unicode="'" horiz-adv-x="808" 
d="M246 829l-51 584h419l-51 -584h-317z" />
    <glyph glyph-name="parenleft" unicode="(" horiz-adv-x="788" 
d="M727 -266l-287 -144l-90 136q-29 44 -88 159q-45 88 -88 205q-82 262 -82 524q0 265 82 523q38 108 88 206q61 120 88 160l90 135l287 -143q-92 -138 -176 -387q-80 -245 -80 -494q0 -247 80 -495q84 -248 176 -385z" />
    <glyph glyph-name="parenright" unicode=")" horiz-adv-x="788" 
d="M436 -274l-88 -136l-287 144q96 143 175 385q81 242 81 495q0 255 -81 494q-79 243 -175 387l287 143l88 -135q36 -54 90 -160q57 -112 86 -206q36 -107 60 -246.5t24 -276.5q0 -268 -84 -524q-31 -98 -86 -205q-52 -101 -90 -159z" />
    <glyph glyph-name="asterisk" unicode="*" horiz-adv-x="1075" 
d="M629 1208l272 113l72 -215l-297 -72l205 -256l-185 -129l-159 273l-158 -273l-184 129l204 256l-297 72l72 215l270 -113l-24 277h235z" />
    <glyph glyph-name="plus" unicode="+" horiz-adv-x="1505" 
d="M915 870h426v-327h-426v-420h-327v420h-424v327h424v420h327v-420z" />
    <glyph glyph-name="comma" unicode="," horiz-adv-x="716" 
d="M10 -287l205 666h430l-256 -666h-379z" />
    <glyph glyph-name="hyphen" unicode="-" horiz-adv-x="788" 
d="M72 711h645v-349h-645v349z" />
    <glyph glyph-name="period" unicode="." horiz-adv-x="716" 
d="M358 -23q-116 0 -184 59t-68 163q0 105 68 164t184 59q114 0 182 -60t68 -163t-68 -162.5t-182 -59.5z" />
    <glyph glyph-name="slash" unicode="/" horiz-adv-x="1157" 
d="M35 -94l835 1739l252 -117l-835 -1739z" />
    <glyph glyph-name="zero" unicode="0" 
d="M680 -25q-129 0 -235.5 39.5t-178.5 108t-121 162t-71.5 199t-22.5 221.5t22.5 221.5t71.5 199t121 161.5t178.5 107.5t235.5 39.5t235.5 -39.5t179 -107.5t122 -161.5t72 -199t22.5 -221.5t-22.5 -221.5t-72 -199t-122 -162t-179 -108t-235.5 -39.5zM860 711
q0 338 -180 338q-178 0 -178 -338q0 -342 178 -342q180 0 180 342z" />
    <glyph glyph-name="one" unicode="1" horiz-adv-x="1024" 
d="M137 1413h682v-1413h-446v1106h-236v307z" />
    <glyph glyph-name="two" unicode="2" 
d="M686 348h594v-348h-1116l-51 287l460 389q118 99 156 155q39 56 39 121q0 123 -164 123q-82 0 -174 -40.5t-164 -112.5l-174 317q29 29 94 68q46 29 115 57q68 29 164.5 49.5t189.5 20.5q259 0 406 -114t147 -306q0 -130 -63 -242q-21 -40 -72 -94q-60 -60 -76 -74
l-86 -72z" />
    <glyph glyph-name="three" unicode="3" 
d="M1260 430q0 -145 -89 -254q-168 -199 -505 -199q-198 0 -350.5 64.5t-223.5 163.5l195 276q62 -73 164 -114q98 -39 184 -39q74 0 126 37t52 96t-42.5 91t-115.5 32h-143v307h143q123 0 123 102q0 103 -143 103q-176 0 -338 -113l-154 297q219 154 527 154
q225 0 383 -107q159 -108 159 -283q0 -208 -178 -296q101 -31 163.5 -117.5t62.5 -200.5z" />
    <glyph glyph-name="four" unicode="4" 
d="M1151 604h170v-348h-170v-256h-444v256h-666v338l584 819h526v-809zM717 973l-266 -379h266v379z" />
    <glyph glyph-name="five" unicode="5" 
d="M1274 492q0 -101 -35 -186.5t-93.5 -145.5t-137 -102t-165 -61.5t-177.5 -19.5q-198 0 -349.5 64.5t-224.5 163.5l195 276q59 -73 162 -114q193 -74 315 0q65 41 65 125q0 80 -58 121.5t-146 41.5q-140 0 -267 -71l-184 112l92 717h942v-348h-594l-20 -133q74 24 174 24
q175 0 328 -100q82 -52 130 -148t48 -216z" />
    <glyph glyph-name="six" unicode="6" 
d="M1294 500q0 -224 -155 -373q-153 -150 -418 -150q-280 0 -455 193q-174 192 -174 524q0 346 174 541q175 199 502 199q140 0 267 -39t204 -97l-154 -297q-145 86 -297 86q-120 0 -188 -67t-68 -193q103 103 328 103q175 0 305 -115q129 -114 129 -315zM860 473
q0 67 -46 113.5t-114 46.5q-67 0 -112 -46t-45 -114q0 -66 45 -112t112 -46t113.5 46t46.5 112z" />
    <glyph glyph-name="seven" unicode="7" 
d="M123 1413h1055l122 -276l-573 -1137h-491l573 1065h-686v348z" />
    <glyph glyph-name="eight" unicode="8" 
d="M1274 410q0 -211 -170 -322t-424 -111q-252 0 -424 111q-170 111 -170 322q0 121 64 203t182 118q-96 32 -152.5 106.5t-56.5 186.5q0 197 158 303q158 107 399 107q244 0 399 -107q160 -106 160 -303q0 -111 -57 -186t-154 -107q118 -36 182 -118t64 -203zM680 1106
q-57 0 -90 -29.5t-33 -83.5q0 -53 32.5 -82.5t90.5 -29.5q60 0 91.5 29t31.5 83t-31.5 83.5t-91.5 29.5zM829 455q0 62 -41 97.5t-108 35.5q-65 0 -106.5 -35.5t-41.5 -97.5q0 -60 42 -96.5t106 -36.5t106.5 36.5t42.5 96.5z" />
    <glyph glyph-name="nine" unicode="9" 
d="M1270 717q0 -343 -176 -543q-176 -197 -500 -197q-140 0 -267 39t-204 97l153 297q143 -88 297 -88q120 0 188 68t68 194q-103 -103 -327 -103q-176 0 -307 113q-129 114 -129 317q0 223 153 373q156 150 420 150q280 0 455 -193q176 -194 176 -524zM819 946
q0 68 -46.5 114t-113.5 46t-112 -46t-45 -114q0 -66 45 -112t112 -46t113.5 46t46.5 112z" />
    <glyph glyph-name="colon" unicode=":" horiz-adv-x="716" 
d="M358 623q-116 0 -184 58.5t-68 162.5q0 105 68 164t184 59q114 0 182 -60t68 -163t-68 -162t-182 -59zM358 -23q-116 0 -184 59t-68 163q0 105 68 164t184 59q114 0 182 -60t68 -163t-68 -162.5t-182 -59.5z" />
    <glyph glyph-name="semicolon" unicode=";" horiz-adv-x="716" 
d="M358 623q-116 0 -184 58.5t-68 162.5q0 105 68 164t184 59q114 0 182 -60t68 -163t-68 -162t-182 -59zM10 -287l205 666h430l-256 -666h-379z" />
    <glyph glyph-name="less" unicode="&#x3c;" horiz-adv-x="1505" 
d="M614 707l727 -215v-359l-1177 389v369l1177 389v-358z" />
    <glyph glyph-name="equal" unicode="=" horiz-adv-x="1505" 
d="M164 1137h1177v-328h-1177v328zM164 604h1177v-328h-1177v328z" />
    <glyph glyph-name="greater" unicode="&#x3e;" horiz-adv-x="1505" 
d="M164 1280l1177 -389v-369l-1177 -389v359l727 215l-727 215v358z" />
    <glyph glyph-name="question" unicode="?" horiz-adv-x="1177" 
d="M1085 1044q0 -113 -31.5 -180.5t-101.5 -126.5q-58 -49 -215 -123q-22 -13 -26 -24t-4 -47v-51h-390v122q0 82 22 125t91 80l133 72q3 3 30 17t32 18q51 30 51 67q0 76 -164 76q-152 0 -307 -96l-103 338q206 123 492 123q215 0 352 -113q139 -115 139 -277zM512 -23
q-116 0 -184 59t-68 163q0 105 68 164t184 59q114 0 182 -60t68 -163t-68 -162.5t-182 -59.5z" />
    <glyph glyph-name="at" unicode="@" horiz-adv-x="1638" 
d="M1567 532q0 -258 -144 -405q-133 -127 -297 -127t-194 117l-27 -33q-12 -12 -78 -51q-56 -33 -120 -33q-119 0 -209 84q-88 82 -88 254q0 190 108 319q110 131 291 131q146 0 217 -71l8 41h205l-92 -451q-27 -129 51 -129q64 0 123 90q61 88 61 244q0 218 -141 344.5
t-391 126.5q-258 0 -420 -162q-164 -164 -164 -422q0 -259 158 -417q156 -156 426 -156q134 0 233 22q78 17 207 70l62 -133q-65 -35 -121 -55q-58 -24 -175.5 -44t-246.5 -20q-315 0 -526 205q-211 202 -211 528q0 325 225 533q229 209 543 209q333 0 532 -178
q88 -78 141.5 -192t53.5 -239zM952 358l41 205q-51 51 -143 51q-96 0 -154 -67q-61 -70 -61 -189q0 -170 143 -170q139 0 174 170z" />
    <glyph glyph-name="A" unicode="A" horiz-adv-x="1454" 
d="M471 1413h512l492 -1413h-502l-55 199h-404l-53 -199h-481zM717 932l-105 -379h209z" />
    <glyph glyph-name="B" unicode="B" horiz-adv-x="1351" 
d="M1325 410q0 -212 -158 -318q-139 -92 -368 -92h-697v1413h584q236 0 358 -51q92 -38 150.5 -117.5t58.5 -189.5t-57.5 -195.5t-140.5 -118.5q126 -36 198 -123t72 -208zM799 977q0 55 -41 82q-29 20 -103 20h-92v-205h92q65 0 103 23q41 27 41 80zM860 455q0 61 -41 88
q-37 24 -102 24h-154v-225h154q65 0 104 28t39 85z" />
    <glyph glyph-name="C" unicode="C" horiz-adv-x="1300" 
d="M1167 522l133 -368q-179 -179 -501 -179q-329 0 -543 193q-215 194 -215 537q0 340 215 534q216 195 543 195q182 0 303 -48q88 -30 151 -71l17 -15l-123 -389q-4 4 -11 9.5t-17.5 13t-16.5 12.5q-16 12 -113 53q-84 35 -160 35q-144 0 -233.5 -84.5t-89.5 -238.5
q0 -149 91.5 -233.5t231.5 -84.5q209 0 338 129z" />
    <glyph glyph-name="D" unicode="D" horiz-adv-x="1474" 
d="M1198 154q-201 -154 -563 -154h-533v1413h533q363 0 563 -153q236 -181 236 -553t-236 -553zM967 707q0 180 -82 256q-71 71 -215 71h-107v-645h107q143 0 215 72q82 82 82 246z" />
    <glyph glyph-name="E" unicode="E" horiz-adv-x="1187" 
d="M563 369h563v-369h-1024v1413h1004v-364h-543v-154h512v-363h-512v-163z" />
    <glyph glyph-name="F" unicode="F" horiz-adv-x="1126" 
d="M102 1413h983v-364h-522v-220h492v-364h-492v-465h-461v1413z" />
    <glyph glyph-name="G" unicode="G" horiz-adv-x="1515" 
d="M778 854h666v-618q-68 -60 -78 -68q-29 -25 -92 -66q-64 -43 -125 -65q-155 -60 -361 -60q-116 0 -223.5 27t-203.5 85.5t-167 143t-112.5 206.5t-40.5 268q0 146 42 267.5t113.5 205.5t168.5 142t206.5 85t227.5 27q56 0 109.5 -6t96.5 -15.5t85 -24.5t73 -28.5t63 -33
t51.5 -33.5t42.5 -34t32.5 -29.5t24.5 -25t16 -16.5l-308 -256q-123 123 -286 123q-130 0 -211.5 -93.5t-81.5 -254.5t81.5 -255t211.5 -94q67 0 117.5 12.5t64.5 26.5l12 13v102h-215v342z" />
    <glyph glyph-name="H" unicode="H" horiz-adv-x="1515" 
d="M950 1413h463v-1413h-463v522h-385v-522h-463v1413h463v-512h385v512z" />
    <glyph glyph-name="I" unicode="I" horiz-adv-x="667" 
d="M102 1413h463v-1413h-463v1413z" />
    <glyph glyph-name="J" unicode="J" horiz-adv-x="665" 
d="M102 1413h461v-1362q0 -223 -99 -326.5t-300 -103.5q-80 0 -162 12q-75 8 -104 23l20 334q62 -21 113 -21q37 0 54 17.5t17 64.5v1362z" />
    <glyph glyph-name="K" unicode="K" horiz-adv-x="1392" 
d="M1403 1413l-457 -569l488 -844h-553l-236 471l-82 -102v-369h-461v1413h461v-430l297 430h543z" />
    <glyph glyph-name="L" unicode="L" horiz-adv-x="1064" 
d="M563 379h481v-379h-942v1413h461v-1034z" />
    <glyph glyph-name="M" unicode="M" horiz-adv-x="1832" 
d="M1096 1413h594l82 -1413h-455l-17 809l-184 -809h-399l-185 809l-16 -809h-455l82 1413h594l178 -768z" />
    <glyph glyph-name="N" unicode="N" horiz-adv-x="1556" 
d="M1004 1413h450v-1413h-481l-430 788q10 -170 10 -256v-532h-451v1413h502l410 -788q-10 170 -10 256v532z" />
    <glyph glyph-name="O" unicode="O" horiz-adv-x="1617" 
d="M1362 1239q215 -197 215 -534q0 -338 -215 -535q-216 -195 -553 -195t-553 195q-215 197 -215 535q0 337 215 534t553 197t553 -197zM1028 475q82 91 82 240t-82 237q-83 92 -219 92q-138 0 -221 -92q-82 -88 -82 -237t82 -240q84 -90 221 -90q135 0 219 90z" />
    <glyph glyph-name="P" unicode="P" horiz-adv-x="1280" 
d="M1270 926q0 -246 -160 -373q-140 -113 -393 -113h-152v-440h-463v1413h615q253 0 393 -113q160 -127 160 -374zM752 1038q-37 27 -113 27h-76v-277h76q74 0 113 25q51 34 51 113q0 78 -51 112z" />
    <glyph glyph-name="Q" unicode="Q" horiz-adv-x="1617" 
d="M1444 264l153 -172l-276 -246l-172 191q-151 -62 -340 -62q-337 0 -553 195q-215 197 -215 535q0 337 215 534t553 197t553 -197t215 -534q0 -258 -133 -441zM1110 715q0 149 -82 237q-83 92 -219 92q-138 0 -221 -92q-82 -88 -82 -237q0 -148 83.5 -239t219.5 -91l29 2
l-39 43l276 246l31 -35q4 46 4 74z" />
    <glyph glyph-name="R" unicode="R" horiz-adv-x="1351" 
d="M1065 537l317 -537h-532l-225 471h-60v-471h-463v1413h615q265 0 409 -102q174 -122 174 -348q0 -286 -235 -426zM782 1038q-34 27 -102 27h-117v-246h117q71 0 102 25q52 37 52 98q0 62 -52 96z" />
    <glyph glyph-name="S" unicode="S" horiz-adv-x="1167" 
d="M1147 465q0 -225 -184 -369q-157 -121 -418 -121q-288 0 -545 189l205 348q92 -76 201 -115q110 -39 176 -39q104 0 104 60q-7 29 -30.5 45t-71.5 29q-80 22 -205 65q-135 54 -195 105q-129 111 -129 301q0 207 164 342q146 122 416 122q139 0 275.5 -46t228.5 -124
l-176 -327q-72 63 -172 98q-98 37 -164 37q-115 0 -115 -57q0 -42 98 -66l72 -22q45 -12 96 -29q158 -53 236 -119q133 -115 133 -307z" />
    <glyph glyph-name="T" unicode="T" horiz-adv-x="1128" 
d="M0 1413h1128v-360h-333v-1053h-463v1053h-332v360z" />
    <glyph glyph-name="U" unicode="U" horiz-adv-x="1474" 
d="M915 1413h467v-809q0 -308 -153 -461q-166 -166 -492 -166q-325 0 -491 166q-154 154 -154 461v809h465v-829q0 -107 47 -154q51 -51 133 -51t133 51q45 45 45 154v829z" />
    <glyph glyph-name="V" unicode="V" horiz-adv-x="1474" 
d="M737 594l267 819h491l-532 -1413h-451l-532 1413h491z" />
    <glyph glyph-name="W" unicode="W" horiz-adv-x="2078" 
d="M1444 625l174 788h481l-399 -1413h-471l-191 799l-188 -799h-471l-399 1413h481l174 -788l174 788h461z" />
    <glyph glyph-name="X" unicode="X" horiz-adv-x="1474" 
d="M1489 1413l-445 -676l472 -737h-553l-226 451l-225 -451h-553l471 737l-446 676h553l200 -379l199 379h553z" />
    <glyph glyph-name="Y" unicode="Y" 
d="M680 936l211 477h512l-492 -860v-553h-462v553l-490 860h512z" />
    <glyph glyph-name="Z" unicode="Z" horiz-adv-x="1351" 
d="M655 379h645v-379h-1239v328l615 716h-594v369h1188v-317z" />
    <glyph glyph-name="bracketleft" unicode="[" horiz-adv-x="788" 
d="M475 -133h211v-201h-563v1895h563v-199h-211v-1495z" />
    <glyph glyph-name="backslash" unicode="\" horiz-adv-x="1157" 
d="M53 1518l234 110l815 -1734l-232 -109z" />
    <glyph glyph-name="bracketright" unicode="]" horiz-adv-x="788" 
d="M102 1561h564v-1895h-564v201h209v1495h-209v199z" />
    <glyph glyph-name="asciicircum" unicode="^" horiz-adv-x="1505" 
d="M567 1485h369l389 -871h-358l-215 512l-215 -512h-359z" />
    <glyph glyph-name="underscore" unicode="_" horiz-adv-x="1024" 
d="M0 174h1024v-348h-1024v348z" />
    <glyph glyph-name="grave" unicode="`" horiz-adv-x="1024" 
d="M256 1413h369l143 -297h-317z" />
    <glyph glyph-name="a" unicode="a" horiz-adv-x="1208" 
d="M1137 573v-573h-437l-10 92q-117 -117 -266 -117q-167 0 -283 82t-116 260q0 62 19.5 112.5t53.5 84t74.5 58t88.5 38.5t89.5 20.5t83.5 8.5l242 10v10q0 99 -170 99q-164 0 -328 -92l-112 290q239 109 501 109q292 0 430 -123q140 -125 140 -369zM680 297v129l-92 -6
q-103 -3 -103 -82q0 -82 103 -82q51 0 92 41z" />
    <glyph glyph-name="b" unicode="b" horiz-adv-x="1355" 
d="M844 -25q-220 0 -328 138l6 -113h-436v1413h461v-297l-4 -164q9 12 28 31q22 19 99 49q73 33 174 33q218 0 350 -156q131 -152 131 -389q0 -236 -131 -391q-133 -154 -350 -154zM532 526q0 -82 46.5 -130t117.5 -48q68 0 115 47q49 46 49 131q0 84 -47 131
q-34 37 -84.5 45.5t-95 -8.5t-75 -62t-26.5 -106z" />
    <glyph glyph-name="c" unicode="c" horiz-adv-x="1003" 
d="M874 401l27 19l82 -348l-43 -27q-31 -17 -125 -43q-95 -27 -211 -27q-238 0 -407 146q-166 147 -166 399q0 254 166 398q167 147 407 147q97 0 190 -19t140 -42l39 -21l-72 -348q-97 72 -225 72q-84 0 -137.5 -48.5t-53.5 -132.5q0 -85 53 -131.5t148 -46.5
q51 0 104.5 16.5t83.5 36.5z" />
    <glyph glyph-name="d" unicode="d" horiz-adv-x="1355" 
d="M809 1413h461v-1413h-436l6 113q-108 -138 -328 -138q-217 0 -350 154q-131 155 -131 391q0 237 131 389q132 156 350 156q90 0 165.5 -26.5t108.5 -59.5l27 -27q-4 110 -4 164v297zM823 526q4 61 -26.5 106t-74.5 62t-94.5 8.5t-84.5 -45.5q-47 -47 -47 -131
q0 -82 46.5 -130t116.5 -48q71 0 117.5 48t46.5 130z" />
    <glyph glyph-name="e" unicode="e" horiz-adv-x="1202" 
d="M1178 543l-7 -129h-686q21 -117 201 -117q165 0 287 82l174 -225l-10 -9q-206 -170 -519 -170q-255 0 -423 142q-164 144 -164 403t168 402t426 143q250 0 399 -143q154 -142 154 -379zM485 655h267q-5 56 -41 89.5t-93 33.5q-56 0 -92.5 -34t-40.5 -89z" />
    <glyph glyph-name="f" unicode="f" horiz-adv-x="768" 
d="M840 1413l-21 -307q-66 14 -133 14q-92 0 -92 -55v-21h205v-337h-205v-707h-461v707h-123v337h123v11q0 196 96 286q112 103 334 103q119 0 277 -31z" />
    <glyph glyph-name="g" unicode="g" horiz-adv-x="1355" 
d="M809 1044h461v-839q0 -294 -201 -451q-171 -133 -496 -133q-155 0 -301.5 43t-240.5 111l174 286q68 -43 166 -72.5t182 -29.5q154 0 215 61q45 45 45 123v21q-101 -113 -301 -113t-340 131q-141 132 -141 375t141 375q142 133 340 133q193 0 301 -123zM823 553
q0 67 -47.5 112.5t-116.5 45.5t-116 -45.5t-47 -112.5q0 -69 47 -114.5t116 -45.5t116.5 45.5t47.5 114.5z" />
    <glyph glyph-name="h" unicode="h" horiz-adv-x="1290" 
d="M1223 614v-614h-461v512q0 96 -22 138t-85 42q-64 0 -86 -41.5t-22 -138.5v-512h-461v1413h461v-307l-4 -195q95 154 291 154q208 0 298.5 -114t90.5 -337z" />
    <glyph glyph-name="i" unicode="i" horiz-adv-x="624" 
d="M311 1081q-111 0 -178 60t-67 159q0 100 67.5 160t177.5 60q112 0 179 -60t67 -160t-67 -159.5t-179 -59.5zM82 1044h461v-1044h-461v1044z" />
    <glyph glyph-name="j" unicode="j" horiz-adv-x="624" 
d="M311 1081q-111 0 -178 60t-67 159q0 100 67.5 160t177.5 60q112 0 179 -60t67 -160t-67 -159.5t-179 -59.5zM82 1044h461v-993q0 -224 -109 -327t-317 -103q-124 0 -187 14l-22 7l10 348q33 -10 82 -10q44 0 63 20.5t19 75.5v968z" />
    <glyph glyph-name="k" unicode="k" horiz-adv-x="1259" 
d="M1290 1044l-358 -389l368 -655h-522l-164 317l-67 -71v-246h-461v1413h461v-645l221 276h522z" />
    <glyph glyph-name="l" unicode="l" horiz-adv-x="634" 
d="M86 1413h461v-1413h-461v1413z" />
    <glyph glyph-name="m" unicode="m" horiz-adv-x="1908" 
d="M1833 625v-625h-461v532q0 84 -21 122t-71 38t-71 -38t-21 -122v-532h-461v532q0 84 -21 122t-71 38t-71 -38t-21 -122v-532h-461v1044h461l-6 -133q109 154 282 154q244 0 311 -174q61 93 137.5 133.5t196.5 40.5q369 0 369 -440z" />
    <glyph glyph-name="n" unicode="n" horiz-adv-x="1294" 
d="M1219 614v-614h-461v512q0 97 -22.5 138.5t-86.5 41.5q-63 0 -84.5 -41.5t-21.5 -138.5v-512h-461v1044h461l-6 -133q109 154 292 154q208 0 299 -114t91 -337z" />
    <glyph glyph-name="o" unicode="o" horiz-adv-x="1269" 
d="M1071 920q168 -143 168 -400q0 -258 -168 -401q-169 -144 -436 -144t-436 144q-168 143 -168 401q0 257 168 400q171 145 436 145t436 -145zM739 395q39 48 39 131t-39 131q-38 50 -104 50t-107 -50q-36 -48 -36 -131t36 -131q41 -47 107 -47t104 47z" />
    <glyph glyph-name="p" unicode="p" horiz-adv-x="1351" 
d="M840 -25q-211 0 -303 127q6 -53 6 -174v-286h-461v1402h434l-4 -102q123 123 328 123q218 0 350 -156q131 -152 131 -389q0 -236 -131 -391q-133 -154 -350 -154zM854 526q0 84 -46.5 132.5t-117.5 48.5q-70 0 -117 -49.5t-47 -131.5t47 -130t117 -48q71 0 117.5 48
t46.5 130z" />
    <glyph glyph-name="q" unicode="q" horiz-adv-x="1351" 
d="M834 1044h436v-1402h-461v286q0 104 4 174q-86 -127 -301 -127q-217 0 -350 154q-131 155 -131 391q0 237 131 389q132 156 350 156q205 0 328 -123zM823 526q4 61 -26.5 106t-74.5 62t-94.5 8.5t-84.5 -45.5q-47 -47 -47 -131q0 -82 46.5 -130t116.5 -48q71 0 117.5 48
t46.5 130z" />
    <glyph glyph-name="r" unicode="r" horiz-adv-x="901" 
d="M893 1049l8 -5l-20 -419h-21q-62 30 -133 30q-94 0 -143 -67q-41 -53 -41 -178v-410h-461v1044h461l-6 -133q92 154 262 154q66 0 94 -16z" />
    <glyph glyph-name="s" unicode="s" horiz-adv-x="997" 
d="M967 328q0 -160 -138 -262q-125 -93 -337 -93q-291 0 -484 146l156 270q62 -42 145 -70q121 -40 195 -40q59 0 59 32q0 24 -51 39l-43 17q-10 4 -29.5 9.5t-34.5 9t-16 3.5q-80 24 -123 41q-194 68 -194 287q0 159 123 254q128 96 317 96q253 0 442 -121l-125 -258
q-154 98 -301 98q-57 0 -57 -34q0 -26 113 -56q117 -34 147 -47q102 -43 150 -92q86 -86 86 -229z" />
    <glyph glyph-name="t" unicode="t" horiz-adv-x="829" 
d="M604 1044h215v-337h-215v-287q0 -41 19 -56.5t63 -15.5q52 0 88 12l14 2l21 -352q-140 -35 -287 -35q-181 0 -286 91q-93 87 -93 303v338h-143v337h143v256h461v-256z" />
    <glyph glyph-name="u" unicode="u" horiz-adv-x="1273" 
d="M731 1044h461v-1044h-440l-4 92q-117 -117 -287 -117q-218 0 -307 127q-78 110 -78 308v634h461v-552q0 -140 98 -140q96 0 96 140v552z" />
    <glyph glyph-name="v" unicode="v" horiz-adv-x="1249" 
d="M629 502l170 542h471l-426 -1044h-441l-423 1044h481z" />
    <glyph glyph-name="w" unicode="w" horiz-adv-x="1812" 
d="M1229 492l133 552h461l-338 -1044h-441l-139 512l-137 -512h-440l-338 1044h461l133 -552l133 552h379z" />
    <glyph glyph-name="x" unicode="x" horiz-adv-x="1300" 
d="M1300 1044l-374 -501l415 -543h-522l-170 276l-168 -276h-522l414 543l-373 501h522l127 -256l129 256h522z" />
    <glyph glyph-name="y" unicode="y" horiz-adv-x="1249" 
d="M629 502l170 542h471l-430 -1064q-70 -176 -156 -269q-84 -90 -244 -90q-99 0 -195.5 14.5t-142.5 32.5l-41 15l93 327q62 -30 143 -30q43 0 64 13t28 48l-409 1003h481z" />
    <glyph glyph-name="z" unicode="z" horiz-adv-x="1095" 
d="M614 358h461v-358h-1055v256l451 451h-430v337h1014v-245z" />
    <glyph glyph-name="braceleft" unicode="{" horiz-adv-x="788" 
d="M604 -133h92v-201h-272q-161 0 -231 70.5t-70 232.5v348q0 92 -31 128t-92 36v267q61 0 92 35.5t31 127.5v349q0 161 70 231t231 70h272v-199h-92q-76 0 -102.5 -26t-26.5 -103v-342q0 -232 -178 -266v-21q178 -34 178 -266v-344q0 -76 25.5 -101.5t103.5 -25.5z" />
    <glyph glyph-name="bar" unicode="|" horiz-adv-x="788" 
d="M246 1638h297v-1996h-297v1996z" />
    <glyph glyph-name="braceright" unicode="}" horiz-adv-x="788" 
d="M788 748v-267q-60 0 -91 -36.5t-31 -127.5v-348q0 -161 -71.5 -232t-232.5 -71h-270v201h92q77 0 102 25.5t25 101.5v344q0 124 45.5 186t135.5 80v21q-90 18 -135.5 80t-45.5 186v342q0 77 -25.5 103t-101.5 26h-92v199h270q162 0 233 -70t71 -231v-349q0 -91 31 -127
t91 -36z" />
    <glyph glyph-name="asciitilde" unicode="~" horiz-adv-x="1505" 
d="M1178 932l184 -246q-73 -98 -176.5 -156.5t-212.5 -58.5q-107 0 -176 29q-23 9 -54.5 25t-35.5 18q-99 51 -175 51q-49 0 -107 -32.5t-97 -80.5l-185 246q73 98 176.5 156.5t212.5 58.5q108 0 177 -29q23 -9 54.5 -25t35.5 -18q99 -51 174 -51q49 0 107.5 32.5t97.5 80.5
z" />
    <glyph glyph-name="nbspace" unicode="&#xa0;" horiz-adv-x="798" 
 />
    <glyph glyph-name="exclamdown" unicode="&#xa1;" horiz-adv-x="716" 
d="M358 623q-116 0 -184 58.5t-68 162.5q0 105 68 164t184 59q114 0 182 -60t68 -163t-68 -162t-182 -59zM158 553h399l41 -922h-481z" />
    <glyph glyph-name="cent" unicode="&#xa2;" 
d="M1096 492l71 -328q-84 -59 -231 -80v-145h-209v139q-230 15 -385 155q-154 142 -154 390t154 387q154 142 385 157v144h209v-150q158 -22 221 -65l-72 -338q-73 39 -149 51v-369q71 8 160 52zM727 461v338q-98 -49 -98 -170q0 -119 98 -168z" />
    <glyph glyph-name="sterling" unicode="&#xa3;" 
d="M737 328h533v-328h-1157v328h225q10 69 14 127l6 129h-184v245h188q-20 146 -20 215q0 80 36.5 159.5t92.5 127.5q121 103 338 103q215 0 399 -123l-133 -267q-110 72 -215 72q-119 0 -119 -123q0 -54 17 -137l4 -27h293v-245h-297l-6 -129z" />
    <glyph glyph-name="currency" unicode="&#xa4;" 
d="M1198 440l113 -338q-1 -1 -18 -13t-32 -21t-42.5 -23.5t-60.5 -25t-75.5 -21t-97 -16t-115.5 -5.5q-488 0 -614 447h-123v246h88q-2 18 -2 47v41h-86v246h133q64 218 221 324t383 106q110 0 216 -24t159 -54l45 -25l-112 -327q-130 86 -256 86q-160 0 -195 -86h277v-246
h-345v-88h345v-246h-277q8 -38 57 -61t127 -23q158 0 287 100z" />
    <glyph glyph-name="yen" unicode="&#xa5;" 
d="M680 942l190 471h502l-328 -563h226v-246h-375v-88h375v-246h-375v-270h-430v270h-373v246h373v88h-373v246h225l-327 563h502z" />
    <glyph glyph-name="brokenbar" unicode="&#xa6;" horiz-adv-x="788" 
d="M246 1638h297v-835h-297v835zM246 475h297v-835h-297v835z" />
    <glyph glyph-name="section" unicode="&#xa7;" horiz-adv-x="1484" 
d="M1321 522q0 -57 -16 -105.5t-41.5 -79.5t-47 -49.5t-42.5 -29.5l-17 -8l25 -29q21 -23 44 -86.5t23 -124.5q0 -132 -80 -221q-145 -168 -458 -168q-371 0 -547 225l235 236q40 -58 133 -111q95 -53 175 -53q133 0 133 72q0 61 -103 102l-245 92q-314 120 -314 369
q0 85 37.5 158t83.5 102l39 27l-25 24q-19 25 -41 83.5t-22 117.5q0 180 143 274q145 95 348 95q313 0 508 -195l-194 -225q-60 60 -142 96.5t-145 36.5q-119 0 -119 -68q2 -15 9.5 -26.5t15 -19t29 -17.5t34.5 -15.5t49 -19.5l23 -8l188 -72q324 -121 324 -379zM963 451
q0 81 -103 122l-317 123q-21 -30 -21 -71q0 -39 21.5 -64t81.5 -49l317 -123q21 21 21 62z" />
    <glyph glyph-name="dieresis" unicode="&#xa8;" horiz-adv-x="1024" 
d="M895 1264q0 -72 -48 -118t-120 -46q-74 0 -122 46t-48 118q0 73 48 118t122 45t121 -45t47 -118zM465 1264q0 -72 -48 -118t-120 -46q-74 0 -122 46t-48 118q0 73 48 118t122 45t121 -45t47 -118z" />
    <glyph glyph-name="copyright" unicode="&#xa9;" horiz-adv-x="1536" 
d="M1284 1223q211 -208 211 -516t-211 -519q-208 -208 -516 -208q-307 0 -518 208q-209 212 -209 519t209 516q211 211 518 211q308 0 516 -211zM1200 274q172 172 172 433q0 260 -172 432t-432 172t-432 -172t-172 -432q0 -261 172 -433t432 -172t432 172zM1034 563
l82 -174q-123 -123 -313 -123q-198 0 -328 121q-127 124 -127 320t127 317q129 123 328 123q190 0 303 -113l-82 -174q-92 92 -215 92q-102 0 -169 -64t-67 -177t66 -176.5t170 -63.5q133 0 225 92z" />
    <glyph glyph-name="ordfeminine" unicode="&#xaa;" horiz-adv-x="819" 
d="M758 758v-336h-273l-8 59q-71 -71 -170 -71q-105 0 -173 51.5t-68 152.5q0 55 25.5 94.5t67.5 60t83 29.5t86 11l141 4v6q0 55 -100 55q-123 0 -211 -55l-66 178q142 62 311 62q187 0 271 -74.5t84 -226.5zM463 592l8 6v82l-61 -4q-58 -6 -58 -51q0 -52 62 -52
q30 0 49 19z" />
    <glyph glyph-name="guillemotleft" unicode="&#xab;" horiz-adv-x="1331" 
d="M1188 860l-242 -338l242 -338l-211 -143l-348 481l348 482zM700 860l-239 -338l239 -338l-208 -143l-349 481l349 482z" />
    <glyph glyph-name="logicalnot" unicode="&#xac;" horiz-adv-x="1505" 
d="M164 1085h1177v-757h-327v430h-850v327z" />
    <glyph glyph-name="uni00AD" unicode="&#xad;" horiz-adv-x="788" 
d="M72 711h645v-349h-645v349z" />
    <glyph glyph-name="registered" unicode="&#xae;" horiz-adv-x="1536" 
d="M1284 1223q211 -208 211 -516t-211 -519q-208 -208 -516 -208q-307 0 -518 208q-209 212 -209 519t209 516q211 211 518 211q308 0 516 -211zM1200 274q172 172 172 433q0 260 -172 432t-432 172t-432 -172t-172 -432q0 -261 172 -433t432 -172t432 172zM963 625
l194 -349h-256l-153 318h-64v-318h-219v861h338q153 0 236 -70.5t83 -196.5q0 -186 -159 -245zM901 864q0 99 -133 99h-84v-195h84q133 0 133 96z" />
    <glyph glyph-name="overscore" unicode="&#xaf;" horiz-adv-x="1024" 
d="M127 1366h768v-205h-768v205z" />
    <glyph glyph-name="degree" unicode="&#xb0;" horiz-adv-x="921" 
d="M461 809q-149 0 -252 100q-103 103 -103 248q0 143 103 246q105 102 252 102q146 0 248 -102q104 -101 104 -246q0 -147 -104 -248q-100 -100 -248 -100zM461 987q69 0 118.5 50.5t49.5 119.5t-49.5 118.5t-118.5 49.5t-116.5 -49.5t-47.5 -118.5t48.5 -119.5
t115.5 -50.5z" />
    <glyph glyph-name="plusminus" unicode="&#xb1;" horiz-adv-x="1505" 
d="M922 1065h419v-328h-419v-307h-338v307h-420v328h420v307h338v-307zM164 369h1177v-328h-1177v328z" />
    <glyph glyph-name="twosuperior" unicode="&#xb2;" horiz-adv-x="921" 
d="M512 813h328v-240h-707l-41 189l277 221q73 59 100 91t27 59q0 55 -76 55q-110 0 -225 -103l-113 226q4 4 11 9.5t17.5 13t16.5 12.5q22 15 125 53q96 35 194 35q164 0 258.5 -69t94.5 -187q0 -71 -35 -136q-32 -57 -64 -87t-96 -74z" />
    <glyph glyph-name="threesuperior" unicode="&#xb3;" horiz-adv-x="921" 
d="M850 840q0 -131 -113 -207t-256 -76q-239 0 -389 150l144 194q40 -46 103 -74t112 -28q39 0 65.5 15.5t26.5 39.5q0 57 -82 57h-103v209h103q61 0 61 47q0 41 -71 41q-108 0 -211 -75l-107 202q150 99 338 99q143 0 244 -64q104 -64 104 -172q0 -118 -92 -174
q123 -52 123 -184z" />
    <glyph glyph-name="acute" unicode="&#xb4;" horiz-adv-x="1024" 
d="M256 1116l143 297h369l-195 -297h-317z" />
    <glyph glyph-name="mu" unicode="&#xb5;" horiz-adv-x="1273" 
d="M731 1044h461v-1044h-440l-4 92q-33 -33 -102.5 -57.5t-139.5 -24.5l26 -368h-456v1402h461v-552q0 -140 98 -140q96 0 96 140v552z" />
    <glyph glyph-name="paragraph" unicode="&#xb6;" horiz-adv-x="1484" 
d="M573 1413h809v-287h-82v-1484h-286v1484h-195v-1484h-287v788q-215 9 -348 133q-133 127 -133 359q0 237 137.5 364t384.5 127z" />
    <glyph glyph-name="middot" unicode="&#xb7;" horiz-adv-x="1024" 
d="M758 600q0 -100 -68 -160.5t-178 -60.5q-112 0 -179 60.5t-67 160.5q0 99 67 159t179 60q110 0 178 -60.5t68 -158.5z" />
    <glyph glyph-name="cedilla" unicode="&#xb8;" horiz-adv-x="1024" 
d="M281 -307l184 307h276l-143 -307h-317z" />
    <glyph glyph-name="onesuperior" unicode="&#xb9;" horiz-adv-x="921" 
d="M205 1413h471v-850h-318v635h-153v215z" />
    <glyph glyph-name="ordmasculine" unicode="&#xba;" horiz-adv-x="921" 
d="M834 735q0 -150 -103 -237.5t-270 -87.5t-271 88t-104 237q0 151 104 236q104 88 271 88t270 -88t103 -236zM522 653q25 31 25 84t-25 82q-23 31 -61.5 31t-63.5 -31q-25 -29 -25 -82t25 -84q25 -29 63.5 -29t61.5 29z" />
    <glyph glyph-name="guillemotright" unicode="&#xbb;" horiz-adv-x="1331" 
d="M629 860l211 144l348 -482l-348 -481l-211 143l241 338zM143 860l209 144l348 -482l-348 -481l-209 143l240 338z" />
    <glyph glyph-name="onequarter" unicode="&#xbc;" horiz-adv-x="2048" 
d="M1874 379h113v-225h-113v-154h-318v154h-450v204l420 492h348v-471zM414 55l886 1399l179 -108l-885 -1397zM123 1413h471v-850h-318v635h-153v215zM1561 573l-168 -194h168v194z" />
    <glyph glyph-name="onehalf" unicode="&#xbd;" horiz-adv-x="2048" 
d="M1618 240h328v-240h-707l-41 188l277 222q74 59 100.5 90.5t26.5 58.5q0 55 -76 55q-112 0 -226 -102l-112 225l45 35q22 15 125 53q96 35 194 35q164 0 258.5 -69t94.5 -187q0 -70 -35 -135q-33 -57 -65 -87.5t-95 -74.5zM383 55l887 1399l178 -106l-885 -1399z
M102 1413h471v-850h-317v635h-154v215z" />
    <glyph glyph-name="threequarters" unicode="&#xbe;" horiz-adv-x="2048" 
d="M1874 379h113v-225h-113v-154h-318v154h-450v204l420 492h348v-471zM532 55l885 1399l180 -108l-886 -1397zM850 840q0 -131 -113 -207t-256 -76q-239 0 -389 150l144 194q40 -46 103 -74t112 -28q39 0 65.5 15.5t26.5 39.5q0 57 -82 57h-103v209h103q61 0 61 47
q0 41 -71 41q-108 0 -211 -75l-107 202q150 99 338 99q143 0 244 -64q104 -64 104 -172q0 -118 -92 -174q123 -52 123 -184zM1561 573l-168 -194h168v194z" />
    <glyph glyph-name="questiondown" unicode="&#xbf;" horiz-adv-x="1177" 
d="M676 623q-116 0 -184 58.5t-68 162.5q0 105 68 164t184 59q114 0 182 -60t68 -163t-68 -162t-182 -59zM983 72l102 -338q-206 -123 -491 -123q-215 0 -352 113q-140 116 -140 276q0 113 32 180.5t102 126.5q62 50 165 101l50 22q15 7 21.5 17t7.5 19.5t1 35.5v51h389
v-123q0 -83 -21.5 -125.5t-90.5 -79.5l-133 -71q-4 -3 -16.5 -9.5t-27.5 -14.5t-20 -11q-49 -34 -49 -68q0 -78 164 -78q151 0 307 99z" />
    <glyph glyph-name="Agrave" unicode="&#xc0;" horiz-adv-x="1454" 
d="M471 1413h512l492 -1413h-502l-55 199h-404l-53 -199h-481zM717 932l-105 -379h209zM393 1772h369l143 -297h-317z" />
    <glyph glyph-name="Aacute" unicode="&#xc1;" horiz-adv-x="1454" 
d="M471 1413h512l492 -1413h-502l-55 199h-404l-53 -199h-481zM717 932l-105 -379h209zM547 1475l143 297h369l-195 -297h-317z" />
    <glyph glyph-name="Acircumflex" unicode="&#xc2;" horiz-adv-x="1454" 
d="M496 1772h460l164 -297h-297l-96 163l-98 -163h-297zM471 1413h512l492 -1413h-502l-55 199h-404l-53 -199h-481zM717 932l-105 -379h209z" />
    <glyph glyph-name="Atilde" unicode="&#xc3;" horiz-adv-x="1454" 
d="M963 1772l184 -21q0 -112 -82 -197q-83 -86 -195 -86q-85 0 -170 48q-74 45 -112 45q-69 0 -96 -86l-185 20q0 113 82 195q83 86 195 86q94 0 168 -45q85 -48 112 -48q72 0 99 89zM471 1413h512l492 -1413h-502l-55 199h-404l-53 -199h-481zM717 932l-105 -379h209z" />
    <glyph glyph-name="Adieresis" unicode="&#xc4;" horiz-adv-x="1454" 
d="M1106 1618q0 -73 -48 -118.5t-122 -45.5t-121 45.5t-47 118.5q0 72 48 118t120 46q74 0 122 -46t48 -118zM686 1618q0 -73 -48 -118.5t-122 -45.5t-121 45.5t-47 118.5q0 72 48 118t120 46q74 0 122 -46t48 -118zM471 1413h512l492 -1413h-502l-55 199h-404l-53 -199
h-481zM717 932l-105 -379h209z" />
    <glyph glyph-name="Aring" unicode="&#xc5;" horiz-adv-x="1454" 
d="M918 1817q75 -57 75 -168t-75 -168q-76 -58 -191 -58q-114 0 -190 58t-76 168t76 168q75 57 190 57q116 0 191 -57zM471 1413h512l492 -1413h-502l-55 199h-404l-53 -199h-481zM727 1556q102 0 102 93q0 92 -102 92t-102 -92q0 -93 102 -93zM717 932l-105 -379h209z" />
    <glyph glyph-name="AE" unicode="&#xc6;" horiz-adv-x="2017" 
d="M1454 369h502v-369h-963v199h-456l-107 -199h-522l840 1413h1187v-364h-481v-154h451v-363h-451v-163zM993 1055l-268 -502h268v502z" />
    <glyph glyph-name="Ccedilla" unicode="&#xc7;" horiz-adv-x="1300" 
d="M1167 522l133 -368q-142 -142 -354 -166l-127 -295h-399l158 307q-57 14 -113 38t-118.5 62.5t-115 95t-96 128t-68.5 170t-26 211.5q0 340 215 534q216 195 543 195q182 0 303 -48q88 -30 151 -71l17 -15l-123 -389q-4 4 -11 9.5t-17.5 13t-16.5 12.5q-16 12 -113 53
q-84 35 -160 35q-144 0 -233.5 -84.5t-89.5 -238.5q0 -149 91.5 -233.5t231.5 -84.5q209 0 338 129z" />
    <glyph glyph-name="Egrave" unicode="&#xc8;" horiz-adv-x="1187" 
d="M563 369h563v-369h-1024v1413h1004v-364h-543v-154h512v-363h-512v-163zM317 1772h369l143 -297h-317z" />
    <glyph glyph-name="Eacute" unicode="&#xc9;" horiz-adv-x="1187" 
d="M563 369h563v-369h-1024v1413h1004v-364h-543v-154h512v-363h-512v-163zM379 1475l143 297h369l-195 -297h-317z" />
    <glyph glyph-name="Ecircumflex" unicode="&#xca;" horiz-adv-x="1187" 
d="M373 1772h461l163 -297h-297l-96 163l-98 -163h-297zM563 369h563v-369h-1024v1413h1004v-364h-543v-154h512v-363h-512v-163z" />
    <glyph glyph-name="Edieresis" unicode="&#xcb;" horiz-adv-x="1187" 
d="M987 1618q0 -73 -47 -118.5t-121 -45.5t-122 45.5t-48 118.5q0 72 48 118t122 46q72 0 120 -46t48 -118zM563 1618q0 -73 -48 -118.5t-122 -45.5t-121 45.5t-47 118.5q0 72 48 118t120 46q74 0 122 -46t48 -118zM563 369h563v-369h-1024v1413h1004v-364h-543v-154h512
v-363h-512v-163z" />
    <glyph glyph-name="Igrave" unicode="&#xcc;" horiz-adv-x="667" 
d="M47 1772h369l143 -297h-317zM102 1413h463v-1413h-463v1413z" />
    <glyph glyph-name="Iacute" unicode="&#xcd;" horiz-adv-x="667" 
d="M106 1475l144 297h368l-194 -297h-318zM102 1413h463v-1413h-463v1413z" />
    <glyph glyph-name="Icircumflex" unicode="&#xce;" horiz-adv-x="667" 
d="M102 1772h461l164 -297h-297l-96 163l-98 -163h-297zM102 1413h463v-1413h-463v1413z" />
    <glyph glyph-name="Idieresis" unicode="&#xcf;" horiz-adv-x="667" 
d="M715 1618q0 -73 -47 -118.5t-121 -45.5t-122 45.5t-48 118.5q0 72 48 118t122 46q72 0 120 -46t48 -118zM291 1618q0 -73 -48 -118.5t-122 -45.5t-121 45.5t-47 118.5q0 72 48 118t120 46q74 0 122 -46t48 -118zM102 1413h463v-1413h-463v1413z" />
    <glyph glyph-name="Eth" unicode="&#xd0;" horiz-adv-x="1474" 
d="M1198 154q-201 -154 -563 -154h-533v573h-102v287h102v553h533q363 0 563 -153q236 -181 236 -553t-236 -553zM967 707q0 180 -82 256q-71 71 -215 71h-107v-174h199v-276h-199v-195h107q143 0 215 72q82 82 82 246z" />
    <glyph glyph-name="Ntilde" unicode="&#xd1;" horiz-adv-x="1556" 
d="M1004 1413h450v-1413h-481l-430 788q10 -170 10 -256v-532h-451v1413h502l410 -788q-10 170 -10 256v532zM1014 1772l184 -21q0 -112 -82 -197q-83 -86 -194 -86q-85 0 -170 48q-74 45 -113 45q-69 0 -96 -86l-185 20q0 113 82 195q83 86 195 86q94 0 168 -45
q85 -48 112 -48q72 0 99 89z" />
    <glyph glyph-name="Ograve" unicode="&#xd2;" horiz-adv-x="1617" 
d="M1362 1239q215 -197 215 -534q0 -338 -215 -535q-216 -195 -553 -195t-553 195q-215 197 -215 535q0 337 215 534t553 197t553 -197zM1028 475q82 91 82 240t-82 237q-83 92 -219 92q-138 0 -221 -92q-82 -88 -82 -237t82 -240q84 -90 221 -90q135 0 219 90zM455 1772
h368l144 -297h-318z" />
    <glyph glyph-name="Oacute" unicode="&#xd3;" horiz-adv-x="1617" 
d="M1362 1239q215 -197 215 -534q0 -338 -215 -535q-216 -195 -553 -195t-553 195q-215 197 -215 535q0 337 215 534t553 197t553 -197zM1028 475q82 91 82 240t-82 237q-83 92 -219 92q-138 0 -221 -92q-82 -88 -82 -237t82 -240q84 -90 221 -90q135 0 219 90zM649 1475
l144 297h368l-194 -297h-318z" />
    <glyph glyph-name="Ocircumflex" unicode="&#xd4;" horiz-adv-x="1617" 
d="M578 1772h460l164 -297h-297l-96 163l-98 -163h-297zM1362 1239q215 -197 215 -534q0 -338 -215 -535q-216 -195 -553 -195t-553 195q-215 197 -215 535q0 337 215 534t553 197t553 -197zM1028 475q82 91 82 240t-82 237q-83 92 -219 92q-138 0 -221 -92
q-82 -88 -82 -237t82 -240q84 -90 221 -90q135 0 219 90z" />
    <glyph glyph-name="Otilde" unicode="&#xd5;" horiz-adv-x="1617" 
d="M1362 1239q215 -197 215 -534q0 -338 -215 -535q-216 -195 -553 -195t-553 195q-215 197 -215 535q0 337 215 534t553 197t553 -197zM1028 475q82 91 82 240t-82 237q-83 92 -219 92q-138 0 -221 -92q-82 -88 -82 -237t82 -240q84 -90 221 -90q135 0 219 90zM1044 1772
l185 -21q0 -112 -82 -197q-83 -86 -195 -86q-85 0 -170 48q-74 45 -112 45q-70 0 -97 -86l-184 20q0 113 82 195q83 86 195 86q94 0 168 -45q85 -48 112 -48q71 0 98 89z" />
    <glyph glyph-name="Odieresis" unicode="&#xd6;" horiz-adv-x="1617" 
d="M1190 1618q0 -73 -47 -118.5t-121 -45.5t-122 45.5t-48 118.5q0 72 48 118t122 46q72 0 120 -46t48 -118zM766 1618q0 -73 -48 -118.5t-122 -45.5t-121 45.5t-47 118.5q0 72 48 118t120 46q74 0 122 -46t48 -118zM1362 1239q215 -197 215 -534q0 -338 -215 -535
q-216 -195 -553 -195t-553 195q-215 197 -215 535q0 337 215 534t553 197t553 -197zM1028 475q82 91 82 240t-82 237q-83 92 -219 92q-138 0 -221 -92q-82 -88 -82 -237t82 -240q84 -90 221 -90q135 0 219 90z" />
    <glyph glyph-name="multiply" unicode="&#xd7;" horiz-adv-x="1505" 
d="M1335 1049l-348 -342l348 -345l-239 -239l-344 342l-342 -342l-242 239l348 345l-348 342l242 241l342 -344l344 344z" />
    <glyph glyph-name="Oslash" unicode="&#xd8;" horiz-adv-x="1617" 
d="M1577 705q0 -338 -215 -535q-216 -195 -553 -195q-241 0 -428 105l-145 -148l-195 191l135 137q-135 184 -135 445q0 340 215 534q215 197 553 197q241 0 428 -105l145 148l195 -189l-137 -137q137 -180 137 -448zM520 608l410 414q-61 22 -121 22q-136 0 -219.5 -90.5
t-83.5 -238.5q0 -52 14 -107zM1110 715q0 58 -8 94l-402 -406q49 -18 109 -18q136 0 218.5 91t82.5 239z" />
    <glyph glyph-name="Ugrave" unicode="&#xd9;" horiz-adv-x="1474" 
d="M915 1413h467v-809q0 -308 -153 -461q-166 -166 -492 -166q-325 0 -491 166q-154 154 -154 461v809h465v-829q0 -107 47 -154q51 -51 133 -51t133 51q45 45 45 154v829zM393 1772h369l143 -297h-317z" />
    <glyph glyph-name="Uacute" unicode="&#xda;" horiz-adv-x="1474" 
d="M915 1413h467v-809q0 -308 -153 -461q-166 -166 -492 -166q-325 0 -491 166q-154 154 -154 461v809h465v-829q0 -107 47 -154q51 -51 133 -51t133 51q45 45 45 154v829zM567 1475l144 297h368l-194 -297h-318z" />
    <glyph glyph-name="Ucircumflex" unicode="&#xdb;" horiz-adv-x="1474" 
d="M506 1772h461l163 -297h-296l-97 163l-98 -163h-297zM915 1413h467v-809q0 -308 -153 -461q-166 -166 -492 -166q-325 0 -491 166q-154 154 -154 461v809h465v-829q0 -107 47 -154q51 -51 133 -51t133 51q45 45 45 154v829z" />
    <glyph glyph-name="Udieresis" unicode="&#xdc;" horiz-adv-x="1474" 
d="M1118 1618q0 -73 -47 -118.5t-121 -45.5t-122 45.5t-48 118.5q0 72 48 118t122 46q72 0 120 -46t48 -118zM694 1618q0 -73 -48 -118.5t-122 -45.5t-121 45.5t-47 118.5q0 72 48 118t120 46q74 0 122 -46t48 -118zM915 1413h467v-809q0 -308 -153 -461
q-166 -166 -492 -166q-325 0 -491 166q-154 154 -154 461v809h465v-829q0 -107 47 -154q51 -51 133 -51t133 51q45 45 45 154v829z" />
    <glyph glyph-name="Yacute" unicode="&#xdd;" 
d="M680 936l211 477h512l-492 -860v-553h-462v553l-490 860h512zM502 1475l143 297h369l-195 -297h-317z" />
    <glyph glyph-name="Thorn" unicode="&#xde;" horiz-adv-x="1280" 
d="M1260 737q0 -248 -160 -375q-139 -112 -393 -112h-142v-250h-463v1413h463v-190h142q253 0 393 -113q160 -127 160 -373zM788 737q0 77 -51 113q-37 24 -112 24h-62v-276h62q71 0 112 27q51 34 51 112z" />
    <glyph glyph-name="germandbls" unicode="&#xdf;" horiz-adv-x="1351" 
d="M1321 420q0 -221 -146 -332t-407 -111q-69 0 -139 17l-25 6l21 317q38 -10 75 -10q174 0 174 144q0 143 -174 143h-55v307h41q143 0 143 113q0 54 -37 88.5t-106 34.5q-79 0 -113 -52q-26 -39 -26 -133v-952h-461v870q0 197 68 318q63 112 178 174q141 72 354 72
q144 0 254 -33.5t168 -91.5q115 -106 115 -244q0 -101 -49.5 -173.5t-114.5 -98.5q123 -36 192.5 -134t69.5 -239z" />
    <glyph glyph-name="agrave" unicode="&#xe0;" horiz-adv-x="1208" 
d="M1137 573v-573h-437l-10 92q-117 -117 -266 -117q-167 0 -283 82t-116 260q0 62 19.5 112.5t53.5 84t74.5 58t88.5 38.5t89.5 20.5t83.5 8.5l242 10v10q0 99 -170 99q-164 0 -328 -92l-112 290q239 109 501 109q292 0 430 -123q140 -125 140 -369zM680 297v129l-92 -6
q-103 -3 -103 -82q0 -82 103 -82q51 0 92 41zM276 1413h369l143 -297h-317z" />
    <glyph glyph-name="aacute" unicode="&#xe1;" horiz-adv-x="1208" 
d="M1137 573v-573h-437l-10 92q-117 -117 -266 -117q-167 0 -283 82t-116 260q0 62 19.5 112.5t53.5 84t74.5 58t88.5 38.5t89.5 20.5t83.5 8.5l242 10v10q0 99 -170 99q-164 0 -328 -92l-112 290q239 109 501 109q292 0 430 -123q140 -125 140 -369zM680 297v129l-92 -6
q-103 -3 -103 -82q0 -82 103 -82q51 0 92 41zM403 1116l144 297h368l-194 -297h-318z" />
    <glyph glyph-name="acircumflex" unicode="&#xe2;" horiz-adv-x="1208" 
d="M1137 573v-573h-437l-10 92q-117 -117 -266 -117q-167 0 -283 82t-116 260q0 62 19.5 112.5t53.5 84t74.5 58t88.5 38.5t89.5 20.5t83.5 8.5l242 10v10q0 99 -170 99q-164 0 -328 -92l-112 290q239 109 501 109q292 0 430 -123q140 -125 140 -369zM680 297v129l-92 -6
q-103 -3 -103 -82q0 -82 103 -82q51 0 92 41zM383 1413h461l164 -297h-297l-97 174l-98 -174h-297z" />
    <glyph glyph-name="atilde" unicode="&#xe3;" horiz-adv-x="1208" 
d="M1137 573v-573h-437l-10 92q-117 -117 -266 -117q-167 0 -283 82t-116 260q0 62 19.5 112.5t53.5 84t74.5 58t88.5 38.5t89.5 20.5t83.5 8.5l242 10v10q0 99 -170 99q-164 0 -328 -92l-112 290q239 109 501 109q292 0 430 -123q140 -125 140 -369zM680 297v129l-92 -6
q-103 -3 -103 -82q0 -82 103 -82q51 0 92 41zM860 1413l184 -20q0 -113 -81 -197q-83 -86 -195 -86q-87 0 -170 47q-74 45 -113 45q-69 0 -96 -86l-184 21q0 112 82 194q83 86 194 86q94 0 168 -45q83 -47 113 -47q71 0 98 88z" />
    <glyph glyph-name="adieresis" unicode="&#xe4;" horiz-adv-x="1208" 
d="M983 1264q0 -72 -48 -118t-122 -46q-72 0 -120 46t-48 118q0 73 47 118t121 45t122 -45t48 -118zM563 1264q0 -72 -48 -118t-122 -46q-72 0 -120 46t-48 118q0 73 47 118t121 45t122 -45t48 -118zM1137 573v-573h-437l-10 92q-117 -117 -266 -117q-167 0 -283 82
t-116 260q0 62 19.5 112.5t53.5 84t74.5 58t88.5 38.5t89.5 20.5t83.5 8.5l242 10v10q0 99 -170 99q-164 0 -328 -92l-112 290q239 109 501 109q292 0 430 -123q140 -125 140 -369zM680 297v129l-92 -6q-103 -3 -103 -82q0 -82 103 -82q51 0 92 41z" />
    <glyph glyph-name="aring" unicode="&#xe5;" horiz-adv-x="1208" 
d="M797 1495q73 -58 73 -164q0 -105 -73 -166q-74 -59 -189 -59q-114 0 -188 59q-72 63 -72 166q0 104 72 164q73 61 188 61q116 0 189 -61zM1137 573v-573h-437l-10 92q-117 -117 -266 -117q-167 0 -283 82t-116 260q0 62 19.5 112.5t53.5 84t74.5 58t88.5 38.5t89.5 20.5
t83.5 8.5l242 10v10q0 99 -170 99q-164 0 -328 -92l-112 290q239 109 501 109q292 0 430 -123q140 -125 140 -369zM608 1423q-45 0 -70.5 -28.5t-25.5 -63.5t25.5 -63.5t70.5 -28.5q46 0 72.5 28.5t26.5 63.5t-26.5 63.5t-72.5 28.5zM680 297v129l-92 -6q-103 -3 -103 -82
q0 -82 103 -82q51 0 92 41z" />
    <glyph glyph-name="ae" unicode="&#xe6;" horiz-adv-x="1837" 
d="M1812 543l-6 -129h-686q21 -117 201 -117q165 0 287 82l174 -225l-10 -9q-206 -170 -519 -170q-265 0 -409 138q-90 -78 -182 -107q-95 -31 -238 -31q-167 0 -283 82t-116 260q0 62 19.5 112.5t53.5 84t74.5 58t88.5 38.5t89.5 20.5t83.5 8.5l242 10v10q0 99 -170 99
q-164 0 -328 -92l-112 290q239 109 501 109q259 0 369 -82q134 82 324 82q250 0 399 -143q153 -141 153 -379zM1120 655h266q-5 56 -40.5 89.5t-92.5 33.5q-56 0 -92.5 -34t-40.5 -89zM711 297q-24 53 -35 129l-88 -6q-103 -9 -103 -82q0 -82 103 -82q61 0 123 41z" />
    <glyph glyph-name="ccedilla" unicode="&#xe7;" horiz-adv-x="1003" 
d="M874 401l27 19l82 -348q-82 -61 -221 -82l-137 -287h-369l184 291q-140 37 -262 145q-68 62 -107.5 161.5t-39.5 219.5q0 254 166 398q167 147 407 147q97 0 190 -19t140 -42l39 -21l-72 -348q-97 72 -225 72q-84 0 -137.5 -48.5t-53.5 -132.5q0 -85 53 -131.5t148 -46.5
q51 0 104.5 16.5t83.5 36.5z" />
    <glyph glyph-name="egrave" unicode="&#xe8;" horiz-adv-x="1202" 
d="M1178 543l-7 -129h-686q21 -117 201 -117q165 0 287 82l174 -225l-10 -9q-206 -170 -519 -170q-255 0 -423 142q-164 144 -164 403t168 402t426 143q250 0 399 -143q154 -142 154 -379zM485 655h267q-5 56 -41 89.5t-93 33.5q-56 0 -92.5 -34t-40.5 -89zM276 1413h369
l143 -297h-317z" />
    <glyph glyph-name="eacute" unicode="&#xe9;" horiz-adv-x="1202" 
d="M1178 543l-7 -129h-686q21 -117 201 -117q165 0 287 82l174 -225l-10 -9q-206 -170 -519 -170q-255 0 -423 142q-164 144 -164 403t168 402t426 143q250 0 399 -143q154 -142 154 -379zM485 655h267q-5 56 -41 89.5t-93 33.5q-56 0 -92.5 -34t-40.5 -89zM434 1116
l144 297h368l-194 -297h-318z" />
    <glyph glyph-name="ecircumflex" unicode="&#xea;" horiz-adv-x="1202" 
d="M1178 543l-7 -129h-686q21 -117 201 -117q165 0 287 82l174 -225l-10 -9q-206 -170 -519 -170q-255 0 -423 142q-164 144 -164 403t168 402t426 143q250 0 399 -143q154 -142 154 -379zM485 655h267q-5 56 -41 89.5t-93 33.5q-56 0 -92.5 -34t-40.5 -89zM383 1413h461
l164 -297h-297l-97 174l-98 -174h-297z" />
    <glyph glyph-name="edieresis" unicode="&#xeb;" horiz-adv-x="1202" 
d="M1004 1264q0 -72 -48 -118t-122 -46q-72 0 -120 46t-48 118q0 73 47 118t121 45t122 -45t48 -118zM584 1264q0 -72 -48 -118t-122 -46q-72 0 -120 46t-48 118q0 73 47 118t121 45t122 -45t48 -118zM1178 543l-7 -129h-686q21 -117 201 -117q165 0 287 82l174 -225l-10 -9
q-206 -170 -519 -170q-255 0 -423 142q-164 144 -164 403t168 402t426 143q250 0 399 -143q154 -142 154 -379zM485 655h267q-5 56 -41 89.5t-93 33.5q-56 0 -92.5 -34t-40.5 -89z" />
    <glyph glyph-name="igrave" unicode="&#xec;" horiz-adv-x="624" 
d="M31 1413h368l144 -297h-318zM82 1044h461v-1044h-461v1044z" />
    <glyph glyph-name="iacute" unicode="&#xed;" horiz-adv-x="624" 
d="M82 1044h461v-1044h-461v1044zM82 1116l143 297h369l-195 -297h-317z" />
    <glyph glyph-name="icircumflex" unicode="&#xee;" horiz-adv-x="624" 
d="M82 1413h461l164 -297h-297l-99 174l-96 -174h-297zM82 1044h461v-1044h-461v1044z" />
    <glyph glyph-name="idieresis" unicode="&#xef;" horiz-adv-x="624" 
d="M690 1264q0 -72 -48 -118t-120 -46q-74 0 -122 46t-48 118q0 73 48 118t122 45t121 -45t47 -118zM270 1264q0 -72 -48 -118t-120 -46q-74 0 -122 46t-48 118q0 73 48 118t122 45t121 -45t47 -118zM82 1044h461v-1044h-461v1044z" />
    <glyph glyph-name="eth" unicode="&#xf0;" horiz-adv-x="1269" 
d="M1229 514q0 -252 -168 -395q-169 -144 -432 -144t-432 144q-166 144 -166 395q0 119 48 219.5t126 159.5q157 121 327 121q58 0 115 -15l19 -6q-55 72 -156 146l-223 -115l-92 174l147 72q-90 62 -168 102l328 164q78 -40 168 -102l241 122l93 -174l-166 -79
q98 -82 135 -125q56 -66 91.5 -118t76.5 -134q88 -168 88 -412zM629 696q-63 0 -100 -48t-37 -126t37 -126t100 -48q65 0 102 47.5t37 126.5t-37 126.5t-102 47.5z" />
    <glyph glyph-name="ntilde" unicode="&#xf1;" horiz-adv-x="1294" 
d="M1219 614v-614h-461v512q0 97 -22.5 138.5t-86.5 41.5q-63 0 -84.5 -41.5t-21.5 -138.5v-512h-461v1044h461l-6 -133q109 154 292 154q208 0 299 -114t91 -337zM891 1413l184 -20q0 -112 -82 -197q-83 -86 -194 -86q-87 0 -170 47q-74 45 -113 45q-69 0 -96 -86l-184 21
q0 113 81 194q83 86 195 86q94 0 168 -45q83 -47 113 -47q71 0 98 88z" />
    <glyph glyph-name="ograve" unicode="&#xf2;" horiz-adv-x="1269" 
d="M291 1413h364l144 -297h-318zM1071 920q168 -143 168 -400q0 -258 -168 -401q-169 -144 -436 -144t-436 144q-168 143 -168 401q0 257 168 400q171 145 436 145t436 -145zM739 395q39 48 39 131t-39 131q-38 50 -104 50t-107 -50q-36 -48 -36 -131t36 -131
q41 -47 107 -47t104 47z" />
    <glyph glyph-name="oacute" unicode="&#xf3;" horiz-adv-x="1269" 
d="M1071 920q168 -143 168 -400q0 -258 -168 -401q-169 -144 -436 -144t-436 144q-168 143 -168 401q0 257 168 400q171 145 436 145t436 -145zM739 395q39 48 39 131t-39 131q-38 50 -104 50t-107 -50q-36 -48 -36 -131t36 -131q41 -47 107 -47t104 47zM471 1116l143 297
h369l-195 -297h-317z" />
    <glyph glyph-name="ocircumflex" unicode="&#xf4;" horiz-adv-x="1269" 
d="M1071 920q168 -143 168 -400q0 -258 -168 -401q-169 -144 -436 -144t-436 144q-168 143 -168 401q0 257 168 400q171 145 436 145t436 -145zM739 395q39 48 39 131t-39 131q-38 50 -104 50t-107 -50q-36 -48 -36 -131t36 -131q41 -47 107 -47t104 47zM403 1413h461
l164 -297h-297l-96 174l-98 -174h-297z" />
    <glyph glyph-name="otilde" unicode="&#xf5;" horiz-adv-x="1269" 
d="M1071 920q168 -143 168 -400q0 -258 -168 -401q-169 -144 -436 -144t-436 144q-168 143 -168 401q0 257 168 400q171 145 436 145t436 -145zM739 395q39 48 39 131t-39 131q-38 50 -104 50t-107 -50q-36 -48 -36 -131t36 -131q41 -47 107 -47t104 47zM870 1413l185 -20
q0 -112 -82 -197q-83 -86 -195 -86q-87 0 -170 47q-74 45 -112 45q-70 0 -97 -86l-184 21q0 112 82 194q83 86 195 86q93 0 167 -45q83 -47 113 -47q71 0 98 88z" />
    <glyph glyph-name="odieresis" unicode="&#xf6;" horiz-adv-x="1269" 
d="M1014 1264q0 -72 -48 -118t-122 -46q-72 0 -120 46t-48 118q0 73 47 118t121 45t122 -45t48 -118zM594 1264q0 -72 -48 -118t-122 -46q-72 0 -120 46t-48 118q0 73 47 118t121 45t122 -45t48 -118zM1071 920q168 -143 168 -400q0 -258 -168 -401q-169 -144 -436 -144
t-436 144q-168 143 -168 401q0 257 168 400q171 145 436 145t436 -145zM739 395q39 48 39 131t-39 131q-38 50 -104 50t-107 -50q-36 -48 -36 -131t36 -131q41 -47 107 -47t104 47z" />
    <glyph glyph-name="divide" unicode="&#xf7;" horiz-adv-x="1505" 
d="M907 1313q66 -66 66 -156t-66 -156t-155.5 -66t-155.5 66t-66 156t66 156t155.5 66t155.5 -66zM164 870h1177v-327h-1177v327zM907 410q66 -66 66 -156t-66 -156t-155.5 -66t-155.5 66t-66 156t66 156t155.5 66t155.5 -66z" />
    <glyph glyph-name="oslash" unicode="&#xf8;" horiz-adv-x="1269" 
d="M1239 520q0 -258 -168 -401q-169 -144 -436 -144q-190 0 -332 74l-104 -100l-164 157l94 91q-98 131 -98 323q0 257 168 400q171 145 436 145q183 0 326 -70l104 101l164 -160l-92 -86q102 -135 102 -330zM473 492l229 229q-33 10 -63 10q-74 0 -121 -56t-47 -149
q0 -26 2 -34zM809 526q0 27 -2 33l-225 -225q24 -12 57 -12q76 0 123 55.5t47 148.5z" />
    <glyph glyph-name="ugrave" unicode="&#xf9;" horiz-adv-x="1273" 
d="M731 1044h461v-1044h-440l-4 92q-117 -117 -287 -117q-218 0 -307 127q-78 110 -78 308v634h461v-552q0 -140 98 -140q96 0 96 140v552zM297 1413h369l143 -297h-317z" />
    <glyph glyph-name="uacute" unicode="&#xfa;" horiz-adv-x="1273" 
d="M731 1044h461v-1044h-440l-4 92q-117 -117 -287 -117q-218 0 -307 127q-78 110 -78 308v634h461v-552q0 -140 98 -140q96 0 96 140v552zM451 1116l143 297h369l-195 -297h-317z" />
    <glyph glyph-name="ucircumflex" unicode="&#xfb;" horiz-adv-x="1273" 
d="M731 1044h461v-1044h-440l-4 92q-117 -117 -287 -117q-218 0 -307 127q-78 110 -78 308v634h461v-552q0 -140 98 -140q96 0 96 140v552zM403 1413h461l164 -297h-297l-96 174l-98 -174h-297z" />
    <glyph glyph-name="udieresis" unicode="&#xfc;" horiz-adv-x="1273" 
d="M1014 1264q0 -72 -48 -118t-122 -46q-72 0 -120 46t-48 118q0 73 47 118t121 45t122 -45t48 -118zM594 1264q0 -72 -48 -118t-122 -46q-72 0 -120 46t-48 118q0 73 47 118t121 45t122 -45t48 -118zM731 1044h461v-1044h-440l-4 92q-117 -117 -287 -117q-218 0 -307 127
q-78 110 -78 308v634h461v-552q0 -140 98 -140q96 0 96 140v552z" />
    <glyph glyph-name="yacute" unicode="&#xfd;" horiz-adv-x="1249" 
d="M629 502l170 542h471l-430 -1064q-70 -176 -156 -269q-84 -90 -244 -90q-99 0 -195.5 14.5t-142.5 32.5l-41 15l93 327q62 -30 143 -30q43 0 64 13t28 48l-409 1003h481zM461 1116l143 297h369l-195 -297h-317z" />
    <glyph glyph-name="thorn" unicode="&#xfe;" horiz-adv-x="1355" 
d="M844 -25q-212 0 -301 127q4 -110 4 -163v-297h-461v1771h461v-297l-4 -164q9 12 28 31q22 19 99 49q73 33 174 33q218 0 350 -156q131 -152 131 -389q0 -236 -131 -391q-133 -154 -350 -154zM532 526q0 -82 46.5 -130t117.5 -48q68 0 115 47q49 46 49 131q0 84 -47 131
q-34 37 -84.5 45.5t-95 -8.5t-75 -62t-26.5 -106z" />
    <glyph glyph-name="ydieresis" unicode="&#xff;" horiz-adv-x="1249" 
d="M1008 1264q0 -72 -48 -118t-120 -46q-74 0 -122 46t-48 118q0 73 48 118t122 45t121 -45t47 -118zM588 1264q0 -72 -48 -118t-120 -46q-74 0 -122 46t-48 118q0 73 48 118t122 45t121 -45t47 -118zM629 502l170 542h471l-430 -1064q-70 -176 -156 -269q-84 -90 -244 -90
q-99 0 -195.5 14.5t-142.5 32.5l-41 15l93 327q62 -30 143 -30q43 0 64 13t28 48l-409 1003h481z" />
    <glyph glyph-name="Amacron" unicode="&#x100;" horiz-adv-x="1454" 
d="M471 1413h512l492 -1413h-502l-55 199h-404l-53 -199h-481zM717 932l-105 -379h209zM334 1735h768v-205h-768v205z" />
    <glyph glyph-name="amacron" unicode="&#x101;" horiz-adv-x="1208" 
d="M1137 573v-573h-437l-10 92q-117 -117 -266 -117q-167 0 -283 82t-116 260q0 62 19.5 112.5t53.5 84t74.5 58t88.5 38.5t89.5 20.5t83.5 8.5l242 10v10q0 99 -170 99q-164 0 -328 -92l-112 290q239 109 501 109q292 0 430 -123q140 -125 140 -369zM680 297v129l-92 -6
q-103 -3 -103 -82q0 -82 103 -82q51 0 92 41zM219 1366h768v-205h-768v205z" />
    <glyph glyph-name="Abreve" unicode="&#x102;" horiz-adv-x="1454" 
d="M471 1413h512l492 -1413h-502l-55 199h-404l-53 -199h-481zM717 932l-105 -379h209zM922 1782h184q-23 -147 -124.5 -222t-264.5 -75t-264.5 75t-124.5 222h184q44 -103 205 -103t205 103z" />
    <glyph glyph-name="abreve" unicode="&#x103;" horiz-adv-x="1208" 
d="M1137 573v-573h-437l-10 92q-117 -117 -266 -117q-167 0 -283 82t-116 260q0 62 19.5 112.5t53.5 84t74.5 58t88.5 38.5t89.5 20.5t83.5 8.5l242 10v10q0 99 -170 99q-164 0 -328 -92l-112 290q239 109 501 109q292 0 430 -123q140 -125 140 -369zM680 297v129l-92 -6
q-103 -3 -103 -82q0 -82 103 -82q51 0 92 41zM809 1413h184q-23 -147 -124.5 -222t-264.5 -75t-264.5 75t-124.5 222h184q43 -102 205 -102t205 102z" />
    <glyph glyph-name="Aogonek" unicode="&#x104;" horiz-adv-x="1454" 
d="M1444 -205l51 -102q-26 -21 -39 -29q-37 -23 -94 -45q-76 -29 -133 -29q-121 0 -193.5 47t-72.5 138q0 143 143 225h-133l-55 199h-404l-53 -199h-481l491 1413h512l492 -1413h-134q-62 -33 -102.5 -75.5t-40.5 -88.5q0 -82 113 -82q71 0 133 41zM717 932l-105 -379h209z
" />
    <glyph glyph-name="aogonek" unicode="&#x105;" horiz-adv-x="1208" 
d="M1126 -205l52 -102q-26 -21 -39 -29q-36 -22 -95 -45q-76 -29 -133 -29q-121 0 -193.5 47t-72.5 138q0 143 143 225h-88l-10 92q-117 -117 -266 -117q-167 0 -283 82t-116 260q0 62 19.5 112.5t53.5 84t74.5 58t88.5 38.5t89.5 20.5t83.5 8.5l242 10v10q0 99 -170 99
q-164 0 -328 -92l-112 290q239 109 501 109q292 0 430 -123q140 -125 140 -369v-573h-113q-63 -32 -103 -75t-40 -89q0 -82 112 -82q71 0 133 41zM680 297v129l-92 -6q-103 -3 -103 -82q0 -82 103 -82q51 0 92 41z" />
    <glyph glyph-name="Cacute" unicode="&#x106;" horiz-adv-x="1300" 
d="M1167 522l133 -368q-179 -179 -501 -179q-329 0 -543 193q-215 194 -215 537q0 340 215 534q216 195 543 195q182 0 303 -48q88 -30 151 -71l17 -15l-123 -389q-4 4 -11 9.5t-17.5 13t-16.5 12.5q-16 12 -113 53q-84 35 -160 35q-144 0 -233.5 -84.5t-89.5 -238.5
q0 -149 91.5 -233.5t231.5 -84.5q209 0 338 129zM549 1485l143 297h369l-195 -297h-317z" />
    <glyph glyph-name="cacute" unicode="&#x107;" horiz-adv-x="1003" 
d="M874 401l27 19l82 -348l-43 -27q-31 -17 -125 -43q-95 -27 -211 -27q-238 0 -407 146q-166 147 -166 399q0 254 166 398q167 147 407 147q97 0 190 -19t140 -42l39 -21l-72 -348q-97 72 -225 72q-84 0 -137.5 -48.5t-53.5 -132.5q0 -85 53 -131.5t148 -46.5
q51 0 104.5 16.5t83.5 36.5zM356 1116l144 297h368l-194 -297h-318z" />
    <glyph glyph-name="Ccircumflex" unicode="&#x108;" horiz-adv-x="1300" 
d="M1167 522l133 -368q-179 -179 -501 -179q-329 0 -543 193q-215 194 -215 537q0 340 215 534q216 195 543 195q182 0 303 -48q88 -30 151 -71l17 -15l-123 -389q-4 4 -11 9.5t-17.5 13t-16.5 12.5q-16 12 -113 53q-84 35 -160 35q-144 0 -233.5 -84.5t-89.5 -238.5
q0 -149 91.5 -233.5t231.5 -84.5q209 0 338 129zM510 1782h461l164 -297h-297l-97 174l-98 -174h-297z" />
    <glyph glyph-name="ccircumflex" unicode="&#x109;" horiz-adv-x="1003" 
d="M874 401l27 19l82 -348l-43 -27q-31 -17 -125 -43q-95 -27 -211 -27q-238 0 -407 146q-166 147 -166 399q0 254 166 398q167 147 407 147q97 0 190 -19t140 -42l39 -21l-72 -348q-97 72 -225 72q-84 0 -137.5 -48.5t-53.5 -132.5q0 -85 53 -131.5t148 -46.5
q51 0 104.5 16.5t83.5 36.5zM313 1413h461l164 -297h-297l-96 174l-99 -174h-296z" />
    <glyph glyph-name="Cdotaccent" unicode="&#x10a;" horiz-adv-x="1300" 
d="M1167 522l133 -368q-179 -179 -501 -179q-329 0 -543 193q-215 194 -215 537q0 340 215 534q216 195 543 195q182 0 303 -48q88 -30 151 -71l17 -15l-123 -389q-4 4 -11 9.5t-17.5 13t-16.5 12.5q-16 12 -113 53q-84 35 -160 35q-144 0 -233.5 -84.5t-89.5 -238.5
q0 -149 91.5 -233.5t231.5 -84.5q209 0 338 129zM860 1638q0 -73 -49 -121.5t-119 -48.5t-120 49.5t-50 120.5t50 117.5t120 46.5t119 -46.5t49 -117.5z" />
    <glyph glyph-name="cdotaccent" unicode="&#x10b;" horiz-adv-x="1003" 
d="M874 401l27 19l82 -348l-43 -27q-31 -17 -125 -43q-95 -27 -211 -27q-238 0 -407 146q-166 147 -166 399q0 254 166 398q167 147 407 147q97 0 190 -19t140 -42l39 -21l-72 -348q-97 72 -225 72q-84 0 -137.5 -48.5t-53.5 -132.5q0 -85 53 -131.5t148 -46.5
q51 0 104.5 16.5t83.5 36.5zM686 1270q0 -73 -49 -121.5t-119 -48.5t-120 49.5t-50 120.5t50 117.5t120 46.5t119 -46.5t49 -117.5z" />
    <glyph glyph-name="Ccaron" unicode="&#x10c;" horiz-adv-x="1300" 
d="M1167 522l133 -368q-179 -179 -501 -179q-329 0 -543 193q-215 194 -215 537q0 340 215 534q216 195 543 195q182 0 303 -48q88 -30 151 -71l17 -15l-123 -389q-4 4 -11 9.5t-17.5 13t-16.5 12.5q-16 12 -113 53q-84 35 -160 35q-144 0 -233.5 -84.5t-89.5 -238.5
q0 -149 91.5 -233.5t231.5 -84.5q209 0 338 129zM672 1608l96 174h297l-164 -297h-461l-164 297h297z" />
    <glyph glyph-name="ccaron" unicode="&#x10d;" horiz-adv-x="1003" 
d="M874 401l27 19l82 -348l-43 -27q-31 -17 -125 -43q-95 -27 -211 -27q-238 0 -407 146q-166 147 -166 399q0 254 166 398q167 147 407 147q97 0 190 -19t140 -42l39 -21l-72 -348q-97 72 -225 72q-84 0 -137.5 -48.5t-53.5 -132.5q0 -85 53 -131.5t148 -46.5
q51 0 104.5 16.5t83.5 36.5zM530 1239l97 174h297l-164 -297h-461l-164 297h297z" />
    <glyph glyph-name="Dcaron" unicode="&#x10e;" horiz-adv-x="1474" 
d="M1198 154q-201 -154 -563 -154h-533v1413h533q363 0 563 -153q236 -181 236 -553t-236 -553zM967 707q0 180 -82 256q-71 71 -215 71h-107v-645h107q143 0 215 72q82 82 82 246zM678 1608l96 174h297l-164 -297h-461l-163 297h297z" />
    <glyph glyph-name="dcaron" unicode="&#x10f;" horiz-adv-x="1859" 
d="M809 1413h461v-1413h-436l6 113q-108 -138 -328 -138q-217 0 -350 154q-131 155 -131 391q0 237 131 389q132 156 350 156q90 0 165.5 -26.5t108.5 -59.5l27 -27q-4 110 -4 164v297zM823 526q4 61 -26.5 106t-74.5 62t-94.5 8.5t-84.5 -45.5q-47 -47 -47 -131
q0 -82 46.5 -130t116.5 -48q71 0 117.5 48t46.5 130zM1337 829l185 584h430l-236 -584h-379z" />
    <glyph glyph-name="Dcroat" unicode="&#x110;" horiz-adv-x="1474" 
d="M1198 154q-201 -154 -563 -154h-533v573h-102v287h102v553h533q363 0 563 -153q236 -181 236 -553t-236 -553zM967 707q0 180 -82 256q-71 71 -215 71h-107v-174h199v-276h-199v-195h107q143 0 215 72q82 82 82 246z" />
    <glyph glyph-name="dslash" unicode="&#x111;" horiz-adv-x="1355" 
d="M1270 1343h73v-204h-73v-1139h-436l6 113q-108 -138 -328 -138q-217 0 -350 154q-131 155 -131 391q0 237 131 389q132 156 350 156q90 0 165.5 -26.5t108.5 -59.5l27 -27q-4 110 -4 164v23h-399v204h399v70h461v-70zM823 526q4 61 -26.5 106t-74.5 62t-94.5 8.5
t-84.5 -45.5q-47 -47 -47 -131q0 -82 46.5 -130t116.5 -48q71 0 117.5 48t46.5 130z" />
    <glyph glyph-name="Emacron" unicode="&#x112;" horiz-adv-x="1187" 
d="M563 369h563v-369h-1024v1413h1004v-364h-543v-154h512v-363h-512v-163zM236 1735h768v-205h-768v205z" />
    <glyph glyph-name="emacron" unicode="&#x113;" horiz-adv-x="1202" 
d="M1178 543l-7 -129h-686q21 -117 201 -117q165 0 287 82l174 -225l-10 -9q-206 -170 -519 -170q-255 0 -423 142q-164 144 -164 403t168 402t426 143q250 0 399 -143q154 -142 154 -379zM485 655h267q-5 56 -41 89.5t-93 33.5q-56 0 -92.5 -34t-40.5 -89zM233 1366h768
v-205h-768v205z" />
    <glyph glyph-name="Ebreve" unicode="&#x114;" horiz-adv-x="1187" 
d="M563 369h563v-369h-1024v1413h1004v-364h-543v-154h512v-363h-512v-163zM817 1782h184q-23 -147 -124.5 -222t-264.5 -75t-264.5 75t-124.5 222h185q44 -103 204 -103q161 0 205 103z" />
    <glyph glyph-name="ebreve" unicode="&#x115;" horiz-adv-x="1202" 
d="M1178 543l-7 -129h-686q21 -117 201 -117q165 0 287 82l174 -225l-10 -9q-206 -170 -519 -170q-255 0 -423 142q-164 144 -164 403t168 402t426 143q250 0 399 -143q154 -142 154 -379zM485 655h267q-5 56 -41 89.5t-93 33.5q-56 0 -92.5 -34t-40.5 -89zM825 1413h185
q-23 -147 -124.5 -222t-264.5 -75t-265 75t-125 222h185q44 -102 205 -102t204 102z" />
    <glyph glyph-name="Edotaccent" unicode="&#x116;" horiz-adv-x="1187" 
d="M563 369h563v-369h-1024v1413h1004v-364h-543v-154h512v-363h-512v-163zM797 1638q0 -73 -49 -121.5t-119 -48.5t-120 49.5t-50 120.5t50 117.5t120 46.5t119 -46.5t49 -117.5z" />
    <glyph glyph-name="edotaccent" unicode="&#x117;" horiz-adv-x="1202" 
d="M1178 543l-7 -129h-686q21 -117 201 -117q165 0 287 82l174 -225l-10 -9q-206 -170 -519 -170q-255 0 -423 142q-164 144 -164 403t168 402t426 143q250 0 399 -143q154 -142 154 -379zM485 655h267q-5 56 -41 89.5t-93 33.5q-56 0 -92.5 -34t-40.5 -89zM786 1270
q0 -73 -49 -121.5t-119 -48.5t-119.5 49.5t-49.5 120.5t49.5 117.5t119.5 46.5t119 -46.5t49 -117.5z" />
    <glyph glyph-name="Eogonek" unicode="&#x118;" horiz-adv-x="1187" 
d="M1075 -205l51 -102q-26 -21 -39 -29q-37 -23 -94 -45q-76 -29 -133 -29q-121 0 -193.5 47t-72.5 138q0 143 143 225h-635v1413h1004v-364h-543v-154h512v-363h-512v-163h563v-369h-153q-62 -33 -103 -75.5t-41 -88.5q0 -82 113 -82q71 0 133 41z" />
    <glyph glyph-name="eogonek" unicode="&#x119;" horiz-adv-x="1202" 
d="M930 -205l51 -102q-26 -21 -39 -29q-37 -23 -94 -45q-76 -29 -133 -29q-121 0 -193.5 47t-72.5 138q0 123 108 202q-235 18 -381 158q-145 142 -145 385q0 259 168 402t426 143q250 0 399 -143q154 -142 154 -379l-7 -129h-686q21 -117 201 -117q165 0 287 82l174 -225
q-28 -24 -44.5 -36.5t-60.5 -40.5t-101.5 -48.5t-127.5 -34.5q-129 -71 -129 -158q0 -82 113 -82q71 0 133 41zM485 655h267q-5 56 -41 89.5t-93 33.5q-56 0 -92.5 -34t-40.5 -89z" />
    <glyph glyph-name="Ecaron" unicode="&#x11a;" horiz-adv-x="1187" 
d="M563 369h563v-369h-1024v1413h1004v-364h-543v-154h512v-363h-512v-163zM625 1608l96 174h297l-164 -297h-461l-164 297h297z" />
    <glyph glyph-name="ecaron" unicode="&#x11b;" horiz-adv-x="1202" 
d="M1178 543l-7 -129h-686q21 -117 201 -117q165 0 287 82l174 -225l-10 -9q-206 -170 -519 -170q-255 0 -423 142q-164 144 -164 403t168 402t426 143q250 0 399 -143q154 -142 154 -379zM485 655h267q-5 56 -41 89.5t-93 33.5q-56 0 -92.5 -34t-40.5 -89zM602 1239l96 174
h297l-164 -297h-460l-164 297h297z" />
    <glyph glyph-name="Gcircumflex" unicode="&#x11c;" horiz-adv-x="1515" 
d="M778 854h666v-618q-68 -60 -78 -68q-29 -25 -92 -66q-64 -43 -125 -65q-155 -60 -361 -60q-116 0 -223.5 27t-203.5 85.5t-167 143t-112.5 206.5t-40.5 268q0 146 42 267.5t113.5 205.5t168.5 142t206.5 85t227.5 27q56 0 109.5 -6t96.5 -15.5t85 -24.5t73 -28.5t63 -33
t51.5 -33.5t42.5 -34t32.5 -29.5t24.5 -25t16 -16.5l-308 -256q-123 123 -286 123q-130 0 -211.5 -93.5t-81.5 -254.5t81.5 -255t211.5 -94q67 0 117.5 12.5t64.5 26.5l12 13v102h-215v342zM518 1782h461l164 -297h-297l-96 174l-99 -174h-297z" />
    <glyph glyph-name="gcircumflex" unicode="&#x11d;" horiz-adv-x="1355" 
d="M809 1044h461v-839q0 -294 -201 -451q-171 -133 -496 -133q-155 0 -301.5 43t-240.5 111l174 286q68 -43 166 -72.5t182 -29.5q154 0 215 61q45 45 45 123v21q-101 -113 -301 -113t-340 131q-141 132 -141 375t141 375q142 133 340 133q193 0 301 -123zM823 553
q0 67 -47.5 112.5t-116.5 45.5t-116 -45.5t-47 -112.5q0 -69 47 -114.5t116 -45.5t116.5 45.5t47.5 114.5zM430 1413h461l164 -297h-297l-96 174l-99 -174h-297z" />
    <glyph glyph-name="Gbreve" unicode="&#x11e;" horiz-adv-x="1515" 
d="M778 854h666v-618q-68 -60 -78 -68q-29 -25 -92 -66q-64 -43 -125 -65q-155 -60 -361 -60q-116 0 -223.5 27t-203.5 85.5t-167 143t-112.5 206.5t-40.5 268q0 146 42 267.5t113.5 205.5t168.5 142t206.5 85t227.5 27q56 0 109.5 -6t96.5 -15.5t85 -24.5t73 -28.5t63 -33
t51.5 -33.5t42.5 -34t32.5 -29.5t24.5 -25t16 -16.5l-308 -256q-123 123 -286 123q-130 0 -211.5 -93.5t-81.5 -254.5t81.5 -255t211.5 -94q67 0 117.5 12.5t64.5 26.5l12 13v102h-215v342zM963 1782h184q-23 -147 -124.5 -222t-264.5 -75t-264.5 75t-124.5 222h184
q44 -103 205 -103t205 103z" />
    <glyph glyph-name="gbreve" unicode="&#x11f;" horiz-adv-x="1355" 
d="M809 1044h461v-839q0 -294 -201 -451q-171 -133 -496 -133q-155 0 -301.5 43t-240.5 111l174 286q68 -43 166 -72.5t182 -29.5q154 0 215 61q45 45 45 123v21q-101 -113 -301 -113t-340 131q-141 132 -141 375t141 375q142 133 340 133q193 0 301 -123zM823 553
q0 67 -47.5 112.5t-116.5 45.5t-116 -45.5t-47 -112.5q0 -69 47 -114.5t116 -45.5t116.5 45.5t47.5 114.5zM862 1413h185q-23 -147 -125 -222t-265 -75t-264.5 75t-124.5 222h185q43 -102 204 -102t205 102z" />
    <glyph glyph-name="Gdotaccent" unicode="&#x120;" horiz-adv-x="1515" 
d="M778 854h666v-618q-68 -60 -78 -68q-29 -25 -92 -66q-64 -43 -125 -65q-155 -60 -361 -60q-116 0 -223.5 27t-203.5 85.5t-167 143t-112.5 206.5t-40.5 268q0 146 42 267.5t113.5 205.5t168.5 142t206.5 85t227.5 27q56 0 109.5 -6t96.5 -15.5t85 -24.5t73 -28.5t63 -33
t51.5 -33.5t42.5 -34t32.5 -29.5t24.5 -25t16 -16.5l-308 -256q-123 123 -286 123q-130 0 -211.5 -93.5t-81.5 -254.5t81.5 -255t211.5 -94q67 0 117.5 12.5t64.5 26.5l12 13v102h-215v342zM926 1642q0 -73 -49 -121t-119 -48t-120 49t-50 120t50 117.5t120 46.5t119 -46.5
t49 -117.5z" />
    <glyph glyph-name="gdotaccent" unicode="&#x121;" horiz-adv-x="1355" 
d="M809 1044h461v-839q0 -294 -201 -451q-171 -133 -496 -133q-155 0 -301.5 43t-240.5 111l174 286q68 -43 166 -72.5t182 -29.5q154 0 215 61q45 45 45 123v21q-101 -113 -301 -113t-340 131q-141 132 -141 375t141 375q142 133 340 133q193 0 301 -123zM823 553
q0 67 -47.5 112.5t-116.5 45.5t-116 -45.5t-47 -112.5q0 -69 47 -114.5t116 -45.5t116.5 45.5t47.5 114.5zM846 1270q0 -73 -49 -121.5t-119 -48.5t-120 49.5t-50 120.5t50 117.5t120 46.5t119 -46.5t49 -117.5z" />
    <glyph glyph-name="Gcommaaccent" unicode="&#x122;" horiz-adv-x="1515" 
d="M778 854h666v-618q-68 -60 -78 -68q-29 -25 -92 -66q-64 -43 -125 -65q-155 -60 -361 -60q-116 0 -223.5 27t-203.5 85.5t-167 143t-112.5 206.5t-40.5 268q0 146 42 267.5t113.5 205.5t168.5 142t206.5 85t227.5 27q56 0 109.5 -6t96.5 -15.5t85 -24.5t73 -28.5t63 -33
t51.5 -33.5t42.5 -34t32.5 -29.5t24.5 -25t16 -16.5l-308 -256q-123 123 -286 123q-130 0 -211.5 -93.5t-81.5 -254.5t81.5 -255t211.5 -94q67 0 117.5 12.5t64.5 26.5l12 13v102h-215v342zM528 -389l70 287h430l-127 -287h-373z" />
    <glyph glyph-name="gcommaaccent" unicode="&#x123;" horiz-adv-x="1355" 
d="M809 1044h461v-839q0 -294 -201 -451q-171 -133 -496 -133q-155 0 -301.5 43t-240.5 111l174 286q68 -43 166 -72.5t182 -29.5q154 0 215 61q45 45 45 123v21q-101 -113 -301 -113t-340 131q-141 132 -141 375t141 375q142 133 340 133q193 0 301 -123zM823 553
q0 67 -47.5 112.5t-116.5 45.5t-116 -45.5t-47 -112.5q0 -69 47 -114.5t116 -45.5t116.5 45.5t47.5 114.5zM897 1489l-70 -287h-430l127 287h373z" />
    <glyph glyph-name="Hcircumflex" unicode="&#x124;" horiz-adv-x="1515" 
d="M950 1413h463v-1413h-463v522h-385v-522h-463v1413h463v-512h385v512zM526 1782h461l164 -297h-297l-96 174l-99 -174h-297z" />
    <glyph glyph-name="hcircumflex" unicode="&#x125;" horiz-adv-x="1290" 
d="M1223 614v-614h-461v512q0 96 -22 138t-85 42q-64 0 -86 -41.5t-22 -138.5v-512h-461v1413h461v-307l-4 -195q95 154 291 154q208 0 298.5 -114t90.5 -337zM76 1851h461l163 -297h-297l-96 175l-98 -175h-297z" />
    <glyph glyph-name="Hbar" unicode="&#x126;" horiz-adv-x="1515" 
d="M1413 1276h92v-205h-92v-1071h-463v522h-385v-522h-463v1071h-92v205h92v137h463v-137h385v137h463v-137zM565 1071v-170h385v170h-385z" />
    <glyph glyph-name="hbar" unicode="&#x127;" horiz-adv-x="1290" 
d="M1223 614v-614h-461v512q0 96 -22 138t-85 42q-64 0 -86 -41.5t-22 -138.5v-512h-461v1139h-76v204h76v70h461v-70h397v-204h-397v-33l-4 -195q95 154 291 154q208 0 298.5 -114t90.5 -337z" />
    <glyph glyph-name="Itilde" unicode="&#x128;" horiz-adv-x="667" 
d="M569 1782l185 -21q0 -111 -82 -196q-83 -86 -195 -86q-87 0 -170 47q-74 45 -112 45q-70 0 -97 -86l-184 20q0 113 82 195q83 86 194 86q94 0 168 -45q83 -47 113 -47q71 0 98 88zM102 1413h463v-1413h-463v1413z" />
    <glyph glyph-name="itilde" unicode="&#x129;" horiz-adv-x="624" 
d="M549 1413l184 -20q0 -112 -82 -197q-83 -86 -194 -86q-87 0 -170 47q-74 45 -113 45q-69 0 -96 -86l-184 21q0 113 81 194q83 86 195 86q94 0 168 -45q83 -47 113 -47q71 0 98 88zM82 1044h461v-1044h-461v1044z" />
    <glyph glyph-name="Imacron" unicode="&#x12a;" horiz-adv-x="667" 
d="M102 1413h463v-1413h-463v1413zM-49 1735h768v-205h-768v205z" />
    <glyph glyph-name="imacron" unicode="&#x12b;" horiz-adv-x="624" 
d="M82 1044h461v-1044h-461v1044zM-72 1366h768v-205h-768v205z" />
    <glyph glyph-name="Ibreve" unicode="&#x12c;" horiz-adv-x="667" 
d="M539 1782h184q-23 -147 -124.5 -222t-264.5 -75t-264.5 75t-124.5 222h184q44 -103 205 -103t205 103zM102 1413h463v-1413h-463v1413z" />
    <glyph glyph-name="ibreve" unicode="&#x12d;" horiz-adv-x="624" 
d="M518 1413h184q-23 -147 -124.5 -222t-264.5 -75t-264.5 75t-124.5 222h185q43 -102 204 -102t205 102zM82 1044h461v-1044h-461v1044z" />
    <glyph glyph-name="Iogonek" unicode="&#x12e;" horiz-adv-x="667" 
d="M573 -205l52 -102q-26 -21 -39 -29q-37 -23 -94 -45q-76 -29 -134 -29q-121 0 -193.5 47t-72.5 138q0 143 144 225h-134v1413h463v-1413h-94q-63 -32 -103 -75t-40 -89q0 -82 112 -82q71 0 133 41z" />
    <glyph glyph-name="iogonek" unicode="&#x12f;" horiz-adv-x="624" 
d="M569 -205l52 -102q-26 -21 -39 -29q-36 -22 -95 -45q-76 -29 -133 -29q-121 0 -193.5 47t-72.5 138q0 143 143 225h-149v1044h461v-1044h-76q-63 -32 -103 -75t-40 -89q0 -82 112 -82q71 0 133 41zM311 1081q-111 0 -178 60t-67 159q0 100 67.5 160t177.5 60
q112 0 179 -60t67 -160t-67 -159.5t-179 -59.5z" />
    <glyph glyph-name="Idot" unicode="&#x130;" horiz-adv-x="667" 
d="M504 1638q0 -73 -49 -121.5t-119 -48.5t-120 49.5t-50 120.5t50 117.5t120 46.5t119 -46.5t49 -117.5zM102 1413h463v-1413h-463v1413z" />
    <glyph glyph-name="dotlessi" unicode="&#x131;" horiz-adv-x="624" 
d="M82 1044h461v-1044h-461v1044z" />
    <glyph glyph-name="IJ" unicode="&#x132;" horiz-adv-x="1333" 
d="M770 1413h461v-1362q0 -223 -99.5 -326.5t-300.5 -103.5q-79 0 -161 12q-76 9 -105 23l21 334q62 -21 112 -21q38 0 55 17.5t17 64.5v1362zM102 1413h463v-1413h-463v1413z" />
    <glyph glyph-name="ij" unicode="&#x133;" horiz-adv-x="1249" 
d="M311 1081q-111 0 -178 60t-67 159q0 100 67.5 160t177.5 60q112 0 179 -60t67 -160t-67 -159.5t-179 -59.5zM82 1044h461v-1044h-461v1044zM936 1081q-111 0 -178.5 60t-67.5 159t67.5 159.5t178.5 60.5q112 0 179 -60t67 -160t-67 -159.5t-179 -59.5zM707 1044h460v-993
q0 -225 -108 -327q-109 -103 -318 -103q-116 0 -188 14l-21 7l11 348q33 -10 82 -10q44 0 63 20.5t19 75.5v968z" />
    <glyph glyph-name="Jcircumflex" unicode="&#x134;" horiz-adv-x="665" 
d="M102 1413h461v-1362q0 -223 -99 -326.5t-300 -103.5q-80 0 -162 12q-75 8 -104 23l20 334q62 -21 113 -21q37 0 54 17.5t17 64.5v1362zM102 1782h461l164 -297h-297l-96 174l-98 -174h-297z" />
    <glyph glyph-name="jcircumflex" unicode="&#x135;" horiz-adv-x="624" 
d="M82 1044h461v-993q0 -224 -109 -327t-317 -103q-124 0 -187 14l-22 7l10 348q33 -10 82 -10q44 0 63 20.5t19 75.5v968zM82 1413h461l164 -297h-297l-97 174l-98 -174h-297z" />
    <glyph glyph-name="Kcommaaccent" unicode="&#x136;" horiz-adv-x="1392" 
d="M1403 1413l-457 -569l488 -844h-553l-236 471l-82 -102v-369h-461v1413h461v-430l297 430h543zM461 -389l69 287h431l-127 -287h-373z" />
    <glyph glyph-name="kcommaaccent" unicode="&#x137;" horiz-adv-x="1259" 
d="M1290 1044l-358 -389l368 -655h-522l-164 317l-67 -71v-246h-461v1413h461v-645l221 276h522zM403 -389l70 287h430l-127 -287h-373z" />
    <glyph glyph-name="kgreenlandic" unicode="&#x138;" horiz-adv-x="1255" 
d="M1286 1044l-358 -389l368 -655h-522l-164 317l-67 -71v-246h-461v1044h461v-276l221 276h522z" />
    <glyph glyph-name="Lacute" unicode="&#x139;" horiz-adv-x="1064" 
d="M563 379h481v-379h-942v1413h461v-1034zM166 1554l143 297h369l-195 -297h-317z" />
    <glyph glyph-name="lacute" unicode="&#x13a;" horiz-adv-x="634" 
d="M86 1413h461v-1413h-461v1413zM139 1556l144 297h368l-194 -297h-318z" />
    <glyph glyph-name="Lcommaaccent" unicode="&#x13b;" horiz-adv-x="1064" 
d="M563 379h481v-379h-942v1413h461v-1034zM319 -389l70 287h430l-127 -287h-373z" />
    <glyph glyph-name="lcommaaccent" unicode="&#x13c;" horiz-adv-x="634" 
d="M86 1413h461v-1413h-461v1413zM68 -389l69 287h430l-127 -287h-372z" />
    <glyph glyph-name="Lcaron" unicode="&#x13d;" horiz-adv-x="1161" 
d="M563 379h481v-379h-942v1413h461v-1034zM639 829l184 584h430l-235 -584h-379z" />
    <glyph glyph-name="lcaron" unicode="&#x13e;" horiz-adv-x="1136" 
d="M86 1413h461v-1413h-461v1413zM614 829l185 584h430l-236 -584h-379z" />
    <glyph glyph-name="Ldot" unicode="&#x13f;" horiz-adv-x="1247" 
d="M1206 791q0 -100 -67.5 -161t-177.5 -61q-112 0 -179 61t-67 161q0 99 67 159t179 60q110 0 177.5 -60.5t67.5 -158.5zM563 379h481v-379h-942v1413h461v-1034z" />
    <glyph glyph-name="ldot" unicode="&#x140;" horiz-adv-x="1249" 
d="M1161 600q0 -100 -68 -160.5t-178 -60.5q-112 0 -178.5 60.5t-66.5 160.5q0 99 66.5 159t178.5 60q110 0 178 -60.5t68 -158.5zM86 1413h461v-1413h-461v1413z" />
    <glyph glyph-name="Lslash" unicode="&#x141;" horiz-adv-x="1064" 
d="M563 379h481v-379h-942v379l-71 -51v327l71 52v706h461v-399l195 143v-328l-195 -143v-307z" />
    <glyph glyph-name="lslash" unicode="&#x142;" horiz-adv-x="645" 
d="M553 1106l82 61v-317l-82 -62v-788h-461v440l-82 -61v317l82 62v655h461v-307z" />
    <glyph glyph-name="Nacute" unicode="&#x143;" horiz-adv-x="1556" 
d="M1004 1413h450v-1413h-481l-430 788q10 -170 10 -256v-532h-451v1413h502l410 -788q-10 170 -10 256v532zM580 1485l143 297h369l-195 -297h-317z" />
    <glyph glyph-name="nacute" unicode="&#x144;" horiz-adv-x="1294" 
d="M1219 614v-614h-461v512q0 97 -22.5 138.5t-86.5 41.5q-63 0 -84.5 -41.5t-21.5 -138.5v-512h-461v1044h461l-6 -133q109 154 292 154q208 0 299 -114t91 -337zM408 1116l143 297h369l-195 -297h-317z" />
    <glyph glyph-name="Ncommaaccent" unicode="&#x145;" horiz-adv-x="1556" 
d="M1004 1413h450v-1413h-481l-430 788q10 -170 10 -256v-532h-451v1413h502l410 -788q-10 170 -10 256v532zM520 -389l70 287h430l-127 -287h-373z" />
    <glyph glyph-name="ncommaaccent" unicode="&#x146;" horiz-adv-x="1294" 
d="M1219 614v-614h-461v512q0 97 -22.5 138.5t-86.5 41.5q-63 0 -84.5 -41.5t-21.5 -138.5v-512h-461v1044h461l-6 -133q109 154 292 154q208 0 299 -114t91 -337zM401 -389l70 287h430l-127 -287h-373z" />
    <glyph glyph-name="Ncaron" unicode="&#x147;" horiz-adv-x="1556" 
d="M1004 1413h450v-1413h-481l-430 788q10 -170 10 -256v-532h-451v1413h502l410 -788q-10 170 -10 256v532zM778 1608l96 174h297l-163 -297h-461l-164 297h297z" />
    <glyph glyph-name="ncaron" unicode="&#x148;" horiz-adv-x="1294" 
d="M1219 614v-614h-461v512q0 97 -22.5 138.5t-86.5 41.5q-63 0 -84.5 -41.5t-21.5 -138.5v-512h-461v1044h461l-6 -133q109 154 292 154q208 0 299 -114t91 -337zM635 1239l96 174h297l-164 -297h-461l-163 297h297z" />
    <glyph glyph-name="Eng" unicode="&#x14a;" horiz-adv-x="1556" 
d="M1004 1413h450v-1362q0 -223 -99 -326.5t-300 -103.5q-79 0 -162 12q-76 9 -105 23l21 334q61 -21 113 -21q37 0 63 13l-442 806q10 -170 10 -256v-532h-451v1413h502l410 -788q-10 170 -10 256v532z" />
    <glyph glyph-name="eng" unicode="&#x14b;" horiz-adv-x="1294" 
d="M1219 614v-563q0 -224 -109 -327t-317 -103q-124 0 -187 14l-22 7l10 348q33 -10 82 -10q44 0 63 20.5t19 75.5v436q0 97 -22.5 138.5t-86.5 41.5q-63 0 -84.5 -41.5t-21.5 -138.5v-512h-461v1044h461l-6 -133q109 154 292 154q208 0 299 -114t91 -337z" />
    <glyph glyph-name="Omacron" unicode="&#x14c;" horiz-adv-x="1617" 
d="M1362 1239q215 -197 215 -534q0 -338 -215 -535q-216 -195 -553 -195t-553 195q-215 197 -215 535q0 337 215 534t553 197t553 -197zM1028 475q82 91 82 240t-82 237q-83 92 -219 92q-138 0 -221 -92q-82 -88 -82 -237t82 -240q84 -90 221 -90q135 0 219 90zM424 1735
h768v-205h-768v205z" />
    <glyph glyph-name="omacron" unicode="&#x14d;" horiz-adv-x="1269" 
d="M1071 920q168 -143 168 -400q0 -258 -168 -401q-169 -144 -436 -144t-436 144q-168 143 -168 401q0 257 168 400q171 145 436 145t436 -145zM739 395q39 48 39 131t-39 131q-38 50 -104 50t-107 -50q-36 -48 -36 -131t36 -131q41 -47 107 -47t104 47zM250 1366h768v-205
h-768v205z" />
    <glyph glyph-name="Obreve" unicode="&#x14e;" horiz-adv-x="1617" 
d="M1362 1239q215 -197 215 -534q0 -338 -215 -535q-216 -195 -553 -195t-553 195q-215 197 -215 535q0 337 215 534t553 197t553 -197zM1028 475q82 91 82 240t-82 237q-83 92 -219 92q-138 0 -221 -92q-82 -88 -82 -237t82 -240q84 -90 221 -90q135 0 219 90zM1014 1782
h184q-23 -147 -124.5 -222t-264.5 -75t-264.5 75t-124.5 222h184q44 -103 205 -103t205 103z" />
    <glyph glyph-name="obreve" unicode="&#x14f;" horiz-adv-x="1269" 
d="M1071 920q168 -143 168 -400q0 -258 -168 -401q-169 -144 -436 -144t-436 144q-168 143 -168 401q0 257 168 400q171 145 436 145t436 -145zM739 395q39 48 39 131t-39 131q-38 50 -104 50t-107 -50q-36 -48 -36 -131t36 -131q41 -47 107 -47t104 47zM840 1413h184
q-23 -147 -124.5 -222t-264.5 -75t-264.5 75t-124.5 222h184q44 -102 205 -102t205 102z" />
    <glyph glyph-name="Ohungarumlaut" unicode="&#x150;" horiz-adv-x="1617" 
d="M1362 1239q215 -197 215 -534q0 -338 -215 -535q-216 -195 -553 -195t-553 195q-215 197 -215 535q0 337 215 534t553 197t553 -197zM1028 475q82 91 82 240t-82 237q-83 92 -219 92q-138 0 -221 -92q-82 -88 -82 -237t82 -240q84 -90 221 -90q135 0 219 90zM850 1485
l154 297h358l-205 -297h-307zM399 1485l154 297h358l-204 -297h-308z" />
    <glyph glyph-name="ohungarumlaut" unicode="&#x151;" horiz-adv-x="1269" 
d="M1071 920q168 -143 168 -400q0 -258 -168 -401q-169 -144 -436 -144t-436 144q-168 143 -168 401q0 257 168 400q171 145 436 145t436 -145zM739 395q39 48 39 131t-39 131q-38 50 -104 50t-107 -50q-36 -48 -36 -131t36 -131q41 -47 107 -47t104 47zM651 1116l154 297
h358l-205 -297h-307zM201 1116l153 297h359l-205 -297h-307z" />
    <glyph glyph-name="OE" unicode="&#x152;" horiz-adv-x="2017" 
d="M1444 369h512v-369h-932q-77 -25 -215 -25q-337 0 -553 195q-215 197 -215 535q0 337 215 534t553 197q108 0 205 -23h921v-364h-491v-154h461v-363h-461v-163zM983 420v594q-61 30 -174 30q-136 0 -219.5 -90.5t-83.5 -238.5t83.5 -239t219.5 -91q102 0 174 35z" />
    <glyph glyph-name="oe" unicode="&#x153;" horiz-adv-x="1939" 
d="M1915 543l-6 -129h-686q21 -117 200 -117q165 0 287 82l174 -225l-10 -9q-206 -170 -518 -170q-234 0 -359 101q-137 -101 -362 -101q-267 0 -436 144q-168 143 -168 401q0 257 168 400q171 145 436 145q225 0 369 -102q144 102 358 102q250 0 399 -143
q154 -142 154 -379zM1223 655h266q-5 56 -40.5 89.5t-92.5 33.5q-56 0 -92.5 -34t-40.5 -89zM739 395q39 48 39 131t-39 131q-38 50 -104 50t-107 -50q-36 -48 -36 -131t36 -131q41 -47 107 -47t104 47z" />
    <glyph glyph-name="Racute" unicode="&#x154;" horiz-adv-x="1351" 
d="M1065 537l317 -537h-532l-225 471h-60v-471h-463v1413h615q265 0 409 -102q174 -122 174 -348q0 -286 -235 -426zM782 1038q-34 27 -102 27h-117v-246h117q71 0 102 25q52 37 52 98q0 62 -52 96zM420 1485l143 297h369l-195 -297h-317z" />
    <glyph glyph-name="racute" unicode="&#x155;" horiz-adv-x="901" 
d="M893 1049l8 -5l-20 -419h-21q-62 30 -133 30q-94 0 -143 -67q-41 -53 -41 -178v-410h-461v1044h461l-6 -133q92 154 262 154q66 0 94 -16zM274 1116l144 297h368l-194 -297h-318z" />
    <glyph glyph-name="Rcommaaccent" unicode="&#x156;" horiz-adv-x="1351" 
d="M1065 537l317 -537h-532l-225 471h-60v-471h-463v1413h615q265 0 409 -102q174 -122 174 -348q0 -286 -235 -426zM782 1038q-34 27 -102 27h-117v-246h117q71 0 102 25q52 37 52 98q0 62 -52 96zM442 -389l70 287h430l-127 -287h-373z" />
    <glyph glyph-name="rcommaaccent" unicode="&#x157;" horiz-adv-x="901" 
d="M893 1049l8 -5l-20 -419h-21q-62 30 -133 30q-94 0 -143 -67q-41 -53 -41 -178v-410h-461v1044h461l-6 -133q92 154 262 154q66 0 94 -16zM74 -389l69 287h430l-127 -287h-372z" />
    <glyph glyph-name="Rcaron" unicode="&#x158;" horiz-adv-x="1351" 
d="M1065 537l317 -537h-532l-225 471h-60v-471h-463v1413h615q265 0 409 -102q174 -122 174 -348q0 -286 -235 -426zM782 1038q-34 27 -102 27h-117v-246h117q71 0 102 25q52 37 52 98q0 62 -52 96zM655 1608l97 174h297l-164 -297h-461l-164 297h297z" />
    <glyph glyph-name="rcaron" unicode="&#x159;" horiz-adv-x="901" 
d="M893 1049l8 -5l-20 -419h-21q-62 30 -133 30q-94 0 -143 -67q-41 -53 -41 -178v-410h-461v1044h461l-6 -133q92 154 262 154q66 0 94 -16zM479 1239l96 174h297l-163 -297h-461l-164 297h297z" />
    <glyph glyph-name="Sacute" unicode="&#x15a;" horiz-adv-x="1167" 
d="M1147 465q0 -225 -184 -369q-157 -121 -418 -121q-288 0 -545 189l205 348q92 -76 201 -115q110 -39 176 -39q104 0 104 60q-7 29 -30.5 45t-71.5 29q-80 22 -205 65q-135 54 -195 105q-129 111 -129 301q0 207 164 342q146 122 416 122q139 0 275.5 -46t228.5 -124
l-176 -327q-72 63 -172 98q-98 37 -164 37q-115 0 -115 -57q0 -42 98 -66l72 -22q45 -12 96 -29q158 -53 236 -119q133 -115 133 -307zM389 1485l143 297h369l-194 -297h-318z" />
    <glyph glyph-name="sacute" unicode="&#x15b;" horiz-adv-x="997" 
d="M967 328q0 -160 -138 -262q-125 -93 -337 -93q-291 0 -484 146l156 270q62 -42 145 -70q121 -40 195 -40q59 0 59 32q0 24 -51 39l-43 17q-10 4 -29.5 9.5t-34.5 9t-16 3.5q-80 24 -123 41q-194 68 -194 287q0 159 123 254q128 96 317 96q253 0 442 -121l-125 -258
q-154 98 -301 98q-57 0 -57 -34q0 -26 113 -56q117 -34 147 -47q102 -43 150 -92q86 -86 86 -229zM293 1116l143 297h369l-195 -297h-317z" />
    <glyph glyph-name="Scircumflex" unicode="&#x15c;" horiz-adv-x="1167" 
d="M1147 465q0 -225 -184 -369q-157 -121 -418 -121q-288 0 -545 189l205 348q92 -76 201 -115q110 -39 176 -39q104 0 104 60q-7 29 -30.5 45t-71.5 29q-80 22 -205 65q-135 54 -195 105q-129 111 -129 301q0 207 164 342q146 122 416 122q139 0 275.5 -46t228.5 -124
l-176 -327q-72 63 -172 98q-98 37 -164 37q-115 0 -115 -57q0 -42 98 -66l72 -22q45 -12 96 -29q158 -53 236 -119q133 -115 133 -307zM369 1782h460l164 -297h-297l-96 174l-98 -174h-297z" />
    <glyph glyph-name="scircumflex" unicode="&#x15d;" horiz-adv-x="997" 
d="M967 328q0 -160 -138 -262q-125 -93 -337 -93q-291 0 -484 146l156 270q62 -42 145 -70q121 -40 195 -40q59 0 59 32q0 24 -51 39l-43 17q-10 4 -29.5 9.5t-34.5 9t-16 3.5q-80 24 -123 41q-194 68 -194 287q0 159 123 254q128 96 317 96q253 0 442 -121l-125 -258
q-154 98 -301 98q-57 0 -57 -34q0 -26 113 -56q117 -34 147 -47q102 -43 150 -92q86 -86 86 -229zM272 1413h461l164 -297h-297l-96 174l-98 -174h-297z" />
    <glyph glyph-name="Scedilla" unicode="&#x15e;" horiz-adv-x="1167" 
d="M1147 465q0 -225 -184 -369q-70 -52 -152 -82l-141 -301h-318l158 262q-271 9 -510 189l205 348q92 -76 201 -115q110 -39 176 -39q104 0 104 60q-7 29 -30.5 45t-71.5 29q-80 22 -205 65q-135 54 -195 105q-129 111 -129 301q0 207 164 342q146 122 416 122
q139 0 275.5 -46t228.5 -124l-176 -327q-72 63 -172 98q-98 37 -164 37q-115 0 -115 -57q0 -42 98 -66l72 -22q45 -12 96 -29q158 -53 236 -119q133 -115 133 -307z" />
    <glyph glyph-name="scedilla" unicode="&#x15f;" horiz-adv-x="997" 
d="M967 328q0 -160 -138 -262q-56 -43 -108 -60l-139 -297h-318l160 266q-250 15 -416 144l156 270q62 -42 145 -70q121 -40 195 -40q59 0 59 32q0 24 -51 39l-43 17q-10 4 -29.5 9.5t-34.5 9t-16 3.5q-80 24 -123 41q-194 68 -194 287q0 159 123 254q128 96 317 96
q253 0 442 -121l-125 -258q-154 98 -301 98q-57 0 -57 -34q0 -26 113 -56q117 -34 147 -47q102 -43 150 -92q86 -86 86 -229z" />
    <glyph glyph-name="Scaron" unicode="&#x160;" horiz-adv-x="1167" 
d="M1147 465q0 -225 -184 -369q-157 -121 -418 -121q-288 0 -545 189l205 348q92 -76 201 -115q110 -39 176 -39q104 0 104 60q-7 29 -30.5 45t-71.5 29q-80 22 -205 65q-135 54 -195 105q-129 111 -129 301q0 207 164 342q146 122 416 122q139 0 275.5 -46t228.5 -124
l-176 -327q-72 63 -172 98q-98 37 -164 37q-115 0 -115 -57q0 -42 98 -66l72 -22q45 -12 96 -29q158 -53 236 -119q133 -115 133 -307zM635 1597l96 175h297l-164 -297h-461l-163 297h297z" />
    <glyph glyph-name="scaron" unicode="&#x161;" horiz-adv-x="997" 
d="M967 328q0 -160 -138 -262q-125 -93 -337 -93q-291 0 -484 146l156 270q62 -42 145 -70q121 -40 195 -40q59 0 59 32q0 24 -51 39l-43 17q-10 4 -29.5 9.5t-34.5 9t-16 3.5q-80 24 -123 41q-194 68 -194 287q0 159 123 254q128 96 317 96q253 0 442 -121l-125 -258
q-154 98 -301 98q-57 0 -57 -34q0 -26 113 -56q117 -34 147 -47q102 -43 150 -92q86 -86 86 -229zM512 1239l96 174h297l-164 -297h-460l-164 297h297z" />
    <glyph glyph-name="Tcommaaccent" unicode="&#x162;" horiz-adv-x="1128" 
d="M0 1413h1128v-360h-333v-1053h-463v1053h-332v360zM313 -389l70 287h430l-127 -287h-373z" />
    <glyph glyph-name="tcommaaccent" unicode="&#x163;" horiz-adv-x="829" 
d="M604 1044h215v-337h-215v-287q0 -41 19 -56.5t63 -15.5q52 0 88 12l14 2l21 -352q-140 -35 -287 -35q-181 0 -286 91q-93 87 -93 303v338h-143v337h143v256h461v-256zM225 -389l70 287h430l-127 -287h-373z" />
    <glyph glyph-name="Tcaron" unicode="&#x164;" horiz-adv-x="1128" 
d="M0 1413h1128v-360h-333v-1053h-463v1053h-332v360zM565 1608l97 174h296l-163 -297h-461l-164 297h297z" />
    <glyph glyph-name="tcaron" unicode="&#x165;" horiz-adv-x="829" 
d="M604 1044h215v-337h-215v-287q0 -41 19 -56.5t63 -15.5q52 0 88 12l14 2l21 -352q-140 -35 -287 -35q-181 0 -286 91q-93 87 -93 303v338h-143v337h143v256h461v-256zM684 1126l184 584h430l-235 -584h-379z" />
    <glyph glyph-name="Tbar" unicode="&#x166;" horiz-adv-x="1128" 
d="M795 788h153v-266h-153v-522h-463v522h-152v266h152v265h-332v360h1128v-360h-333v-265z" />
    <glyph glyph-name="tbar" unicode="&#x167;" horiz-adv-x="829" 
d="M604 1044h215v-337h-215v-80h195v-164h-195v-43q0 -41 19 -56.5t63 -15.5q52 0 88 12l14 2l21 -352q-140 -35 -287 -35q-181 0 -286 91q-93 87 -93 303v94h-112v164h112v80h-143v337h143v256h461v-256z" />
    <glyph glyph-name="Utilde" unicode="&#x168;" horiz-adv-x="1474" 
d="M915 1413h467v-809q0 -308 -153 -461q-166 -166 -492 -166q-325 0 -491 166q-154 154 -154 461v809h465v-829q0 -107 47 -154q51 -51 133 -51t133 51q45 45 45 154v829zM973 1782l184 -21q0 -111 -82 -196q-83 -86 -194 -86q-87 0 -170 47q-74 45 -113 45q-69 0 -96 -86
l-185 20q0 113 82 195q83 86 195 86q94 0 168 -45q83 -47 112 -47q72 0 99 88z" />
    <glyph glyph-name="utilde" unicode="&#x169;" horiz-adv-x="1273" 
d="M731 1044h461v-1044h-440l-4 92q-117 -117 -287 -117q-218 0 -307 127q-78 110 -78 308v634h461v-552q0 -140 98 -140q96 0 96 140v552zM872 1413l185 -20q0 -112 -82 -197q-83 -86 -195 -86q-87 0 -170 47q-74 45 -112 45q-70 0 -97 -86l-184 21q0 112 82 194
q83 86 195 86q94 0 168 -45q83 -47 112 -47q71 0 98 88z" />
    <glyph glyph-name="Umacron" unicode="&#x16a;" horiz-adv-x="1474" 
d="M915 1413h467v-809q0 -308 -153 -461q-166 -166 -492 -166q-325 0 -491 166q-154 154 -154 461v809h465v-829q0 -107 47 -154q51 -51 133 -51t133 51q45 45 45 154v829zM352 1735h768v-205h-768v205z" />
    <glyph glyph-name="umacron" unicode="&#x16b;" horiz-adv-x="1273" 
d="M731 1044h461v-1044h-440l-4 92q-117 -117 -287 -117q-218 0 -307 127q-78 110 -78 308v634h461v-552q0 -140 98 -140q96 0 96 140v552zM252 1366h768v-205h-768v205z" />
    <glyph glyph-name="Ubreve" unicode="&#x16c;" horiz-adv-x="1474" 
d="M915 1413h467v-809q0 -308 -153 -461q-166 -166 -492 -166q-325 0 -491 166q-154 154 -154 461v809h465v-829q0 -107 47 -154q51 -51 133 -51t133 51q45 45 45 154v829zM942 1782h184q-23 -147 -124.5 -222t-264.5 -75t-264.5 75t-124.5 222h184q44 -103 205 -103
t205 103z" />
    <glyph glyph-name="ubreve" unicode="&#x16d;" horiz-adv-x="1273" 
d="M731 1044h461v-1044h-440l-4 92q-117 -117 -287 -117q-218 0 -307 127q-78 110 -78 308v634h461v-552q0 -140 98 -140q96 0 96 140v552zM842 1413h184q-23 -147 -124.5 -222t-264.5 -75t-264.5 75t-124.5 222h184q43 -102 205 -102q161 0 205 102z" />
    <glyph glyph-name="Uring" unicode="&#x16e;" horiz-adv-x="1474" 
d="M915 1413h467v-809q0 -308 -153 -461q-166 -166 -492 -166q-325 0 -491 166q-154 154 -154 461v809h465v-829q0 -107 47 -154q51 -51 133 -51t133 51q45 45 45 154v829zM928 1868q76 -58 76 -168t-76 -168q-75 -57 -191 -57q-115 0 -190 57q-76 58 -76 168t76 168
q75 57 190 57q116 0 191 -57zM737 1608q103 0 103 92t-103 92q-102 0 -102 -92t102 -92z" />
    <glyph glyph-name="uring" unicode="&#x16f;" horiz-adv-x="1273" 
d="M731 1044h461v-1044h-440l-4 92q-117 -117 -287 -117q-218 0 -307 127q-78 110 -78 308v634h461v-552q0 -140 98 -140q96 0 96 140v552zM827 1499q76 -58 76 -168t-76 -168q-75 -57 -190 -57q-116 0 -191 57t-75 168t75 168t191 57q115 0 190 -57zM637 1239q102 0 102 92
t-102 92t-102 -92t102 -92z" />
    <glyph glyph-name="Uhungarumlaut" unicode="&#x170;" horiz-adv-x="1474" 
d="M915 1413h467v-809q0 -308 -153 -461q-166 -166 -492 -166q-325 0 -491 166q-154 154 -154 461v809h465v-829q0 -107 47 -154q51 -51 133 -51t133 51q45 45 45 154v829zM788 1485l154 297h358l-204 -297h-308zM338 1485l154 297h358l-205 -297h-307z" />
    <glyph glyph-name="uhungarumlaut" unicode="&#x171;" horiz-adv-x="1273" 
d="M731 1044h461v-1044h-440l-4 92q-117 -117 -287 -117q-218 0 -307 127q-78 110 -78 308v634h461v-552q0 -140 98 -140q96 0 96 140v552zM668 1116l153 297h359l-205 -297h-307zM217 1116l154 297h358l-205 -297h-307z" />
    <glyph glyph-name="Uogonek" unicode="&#x172;" horiz-adv-x="1474" 
d="M1024 -205l51 -102q-26 -21 -39 -29q-37 -23 -94 -45q-76 -29 -133 -29q-121 0 -193.5 47t-72.5 138q0 129 112 207q-266 18 -409 161q-154 154 -154 461v809h465v-829q0 -107 47 -154q51 -51 133 -51t133 51q45 45 45 154v829h467v-809q0 -308 -153 -461
q-118 -118 -328 -153q-123 -71 -123 -154q0 -82 113 -82q71 0 133 41z" />
    <glyph glyph-name="uogonek" unicode="&#x173;" horiz-adv-x="1273" 
d="M1182 -205l51 -102q-26 -21 -39 -29q-37 -23 -94 -45q-76 -29 -133 -29q-122 0 -194.5 47t-72.5 138q0 143 144 225h-92l-4 92q-117 -117 -287 -117q-218 0 -307 127q-78 110 -78 308v634h461v-552q0 -140 98 -140q96 0 96 140v552h461v-1044h-113q-62 -33 -102.5 -75.5
t-40.5 -88.5q0 -82 113 -82q71 0 133 41z" />
    <glyph glyph-name="Wcircumflex" unicode="&#x174;" horiz-adv-x="2078" 
d="M1444 625l174 788h481l-399 -1413h-471l-191 799l-188 -799h-471l-399 1413h481l174 -788l174 788h461zM809 1782h461l164 -297h-297l-97 174l-98 -174h-297z" />
    <glyph glyph-name="wcircumflex" unicode="&#x175;" horiz-adv-x="1812" 
d="M1229 492l133 552h461l-338 -1044h-441l-139 512l-137 -512h-440l-338 1044h461l133 -552l133 552h379zM676 1413h461l163 -297h-296l-97 174l-98 -174h-297z" />
    <glyph glyph-name="Ycircumflex" unicode="&#x176;" 
d="M680 936l211 477h512l-492 -860v-553h-462v553l-490 860h512zM451 1782h460l164 -297h-297l-96 174l-98 -174h-297z" />
    <glyph glyph-name="ycircumflex" unicode="&#x177;" horiz-adv-x="1249" 
d="M629 502l170 542h471l-430 -1064q-70 -176 -156 -269q-84 -90 -244 -90q-99 0 -195.5 14.5t-142.5 32.5l-41 15l93 327q62 -30 143 -30q43 0 64 13t28 48l-409 1003h481zM393 1413h461l164 -297h-297l-96 174l-99 -174h-297z" />
    <glyph glyph-name="Ydieresis" unicode="&#x178;" 
d="M1063 1618q0 -73 -48 -118.5t-122 -45.5t-121 45.5t-47 118.5q0 72 48 118t120 46q74 0 122 -46t48 -118zM637 1618q0 -73 -47 -118.5t-121 -45.5t-122 45.5t-48 118.5q0 72 48 118t122 46q72 0 120 -46t48 -118zM680 936l211 477h512l-492 -860v-553h-462v553l-490 860
h512z" />
    <glyph glyph-name="Zacute" unicode="&#x179;" horiz-adv-x="1351" 
d="M655 379h645v-379h-1239v328l615 716h-594v369h1188v-317zM471 1485l143 297h369l-195 -297h-317z" />
    <glyph glyph-name="zacute" unicode="&#x17a;" horiz-adv-x="1095" 
d="M614 358h461v-358h-1055v256l451 451h-430v337h1014v-245zM342 1116l143 297h369l-195 -297h-317z" />
    <glyph glyph-name="Zdotaccent" unicode="&#x17b;" horiz-adv-x="1351" 
d="M655 379h645v-379h-1239v328l615 716h-594v369h1188v-317zM844 1638q0 -73 -49 -121.5t-119 -48.5t-120 49.5t-50 120.5t50 117.5t120 46.5t119 -46.5t49 -117.5z" />
    <glyph glyph-name="zdotaccent" unicode="&#x17c;" horiz-adv-x="1095" 
d="M614 358h461v-358h-1055v256l451 451h-430v337h1014v-245zM717 1270q0 -73 -49 -121.5t-119 -48.5t-120 49.5t-50 120.5t50 117.5t120 46.5t119 -46.5t49 -117.5z" />
    <glyph glyph-name="Zcaron" unicode="&#x17d;" horiz-adv-x="1351" 
d="M655 379h645v-379h-1239v328l615 716h-594v369h1188v-317zM676 1597l96 175h297l-164 -297h-461l-163 297h297z" />
    <glyph glyph-name="zcaron" unicode="&#x17e;" horiz-adv-x="1095" 
d="M547 1239l98 174h297l-164 -297h-461l-163 297h297zM614 358h461v-358h-1055v256l451 451h-430v337h1014v-245z" />
    <glyph glyph-name="florin" unicode="&#x192;" 
d="M1233 1452l37 -18l-92 -308q-64 31 -113 31q-81 0 -102 -123l-17 -82h211l-57 -297h-209l-92 -501q-43 -229 -153.5 -329.5t-328.5 -100.5q-126 0 -225 51l103 327q50 -20 92 -20q53 0 78.5 40.5t44.5 133.5l75 399h-194l57 297h195q0 10 8 62l12 73l15 64q9 50 18 74
q18 59 49 116q101 168 328 168q68 0 142 -18t118 -39z" />
    <glyph glyph-name="AEacute" unicode="&#x1fc;" horiz-adv-x="2017" 
d="M1454 369h502v-369h-963v199h-456l-107 -199h-522l840 1413h1187v-364h-481v-154h451v-363h-451v-163zM993 1055l-268 -502h268v502zM1112 1485l143 297h369l-194 -297h-318z" />
    <glyph glyph-name="aeacute" unicode="&#x1fd;" horiz-adv-x="1837" 
d="M1812 543l-6 -129h-686q21 -117 201 -117q165 0 287 82l174 -225l-10 -9q-206 -170 -519 -170q-265 0 -409 138q-90 -78 -182 -107q-95 -31 -238 -31q-167 0 -283 82t-116 260q0 62 19.5 112.5t53.5 84t74.5 58t88.5 38.5t89.5 20.5t83.5 8.5l242 10v10q0 99 -170 99
q-164 0 -328 -92l-112 290q239 109 501 109q259 0 369 -82q134 82 324 82q250 0 399 -143q153 -141 153 -379zM1120 655h266q-5 56 -40.5 89.5t-92.5 33.5q-56 0 -92.5 -34t-40.5 -89zM711 297q-24 53 -35 129l-88 -6q-103 -9 -103 -82q0 -82 103 -82q61 0 123 41zM745 1116
l144 297h368l-194 -297h-318z" />
    <glyph glyph-name="Oslashacute" unicode="&#x1fe;" horiz-adv-x="1617" 
d="M1577 705q0 -338 -215 -535q-216 -195 -553 -195q-241 0 -428 105l-145 -148l-195 191l135 137q-135 184 -135 445q0 340 215 534q215 197 553 197q241 0 428 -105l145 148l195 -189l-137 -137q137 -180 137 -448zM520 608l410 414q-61 22 -121 22q-136 0 -219.5 -90.5
t-83.5 -238.5q0 -52 14 -107zM1110 715q0 58 -8 94l-402 -406q49 -18 109 -18q136 0 218.5 91t82.5 239zM649 1475l144 297h368l-194 -297h-318z" />
    <glyph glyph-name="oslashacute" unicode="&#x1ff;" horiz-adv-x="1269" 
d="M1239 520q0 -258 -168 -401q-169 -144 -436 -144q-190 0 -332 74l-104 -100l-164 157l94 91q-98 131 -98 323q0 257 168 400q171 145 436 145q183 0 326 -70l104 101l164 -160l-92 -86q102 -135 102 -330zM473 492l229 229q-33 10 -63 10q-74 0 -121 -56t-47 -149
q0 -26 2 -34zM809 526q0 27 -2 33l-225 -225q24 -12 57 -12q76 0 123 55.5t47 148.5zM471 1116l143 297h369l-195 -297h-317z" />
    <glyph glyph-name="dotlessj" unicode="&#x237;" horiz-adv-x="624" 
d="M82 1044h461v-993q0 -224 -109 -327t-317 -103q-124 0 -187 14l-22 7l10 348q33 -10 82 -10q44 0 63 20.5t19 75.5v968z" />
    <glyph glyph-name="circumflex" unicode="&#x2c6;" horiz-adv-x="1024" 
d="M281 1413h460l164 -297h-297l-96 174l-98 -174h-297z" />
    <glyph glyph-name="caron" unicode="&#x2c7;" horiz-adv-x="1024" 
d="M512 1239l96 174h297l-164 -297h-460l-164 297h297z" />
    <glyph glyph-name="breve" unicode="&#x2d8;" horiz-adv-x="1024" 
d="M717 1413h184q-23 -147 -124.5 -222t-264.5 -75t-264.5 75t-124.5 222h184q43 -102 205 -102t205 102z" />
    <glyph glyph-name="dotaccent" unicode="&#x2d9;" horiz-adv-x="1024" 
d="M680 1270q0 -73 -49 -121.5t-119 -48.5t-120 49.5t-50 120.5t50 117.5t120 46.5t119 -46.5t49 -117.5z" />
    <glyph glyph-name="ring" unicode="&#x2da;" horiz-adv-x="1024" 
d="M702 1499q76 -58 76 -168t-76 -168q-75 -57 -190 -57t-190 57q-76 58 -76 168t76 168q75 57 190 57t190 -57zM512 1239q102 0 102 92t-102 92t-102 -92t102 -92z" />
    <glyph glyph-name="ogonek" unicode="&#x2db;" horiz-adv-x="1024" 
d="M727 -205l51 -102q-26 -21 -39 -29q-37 -23 -94 -45q-76 -29 -133 -29q-121 0 -193.5 47t-72.5 138q0 152 164 235h215v-10q-62 -33 -103 -75.5t-41 -88.5q0 -82 113 -82q71 0 133 41z" />
    <glyph glyph-name="tilde" unicode="&#x2dc;" horiz-adv-x="1024" 
d="M748 1413l184 -20q0 -112 -82 -197q-83 -86 -195 -86q-87 0 -170 47q-74 45 -112 45q-70 0 -97 -86l-184 21q0 112 82 194q83 86 195 86q94 0 168 -45q83 -47 112 -47q72 0 99 88z" />
    <glyph glyph-name="hungarumlaut" unicode="&#x2dd;" horiz-adv-x="1024" 
d="M481 1116l154 297h358l-205 -297h-307zM31 1116l153 297h359l-205 -297h-307z" />
    <glyph glyph-name="Wgrave" unicode="&#x1e80;" horiz-adv-x="2078" 
d="M1444 625l174 788h481l-399 -1413h-471l-191 799l-188 -799h-471l-399 1413h481l174 -788l174 788h461zM782 1782h369l143 -297h-317z" />
    <glyph glyph-name="wgrave" unicode="&#x1e81;" horiz-adv-x="1812" 
d="M1229 492l133 552h461l-338 -1044h-441l-139 512l-137 -512h-440l-338 1044h461l133 -552l133 552h379zM649 1413h369l143 -297h-317z" />
    <glyph glyph-name="Wacute" unicode="&#x1e82;" horiz-adv-x="2078" 
d="M1444 625l174 788h481l-399 -1413h-471l-191 799l-188 -799h-471l-399 1413h481l174 -788l174 788h461zM782 1485l144 297h368l-194 -297h-318z" />
    <glyph glyph-name="wacute" unicode="&#x1e83;" horiz-adv-x="1812" 
d="M1229 492l133 552h461l-338 -1044h-441l-139 512l-137 -512h-440l-338 1044h461l133 -552l133 552h379zM649 1116l144 297h368l-194 -297h-318z" />
    <glyph glyph-name="Wdieresis" unicode="&#x1e84;" horiz-adv-x="2078" 
d="M1423 1632q0 -72 -48 -118t-120 -46q-74 0 -122 46t-48 118q0 73 48 118.5t122 45.5t121 -45.5t47 -118.5zM993 1632q0 -72 -48 -118t-120 -46q-74 0 -122 46t-48 118q0 73 48 118.5t122 45.5t121 -45.5t47 -118.5zM1444 625l174 788h481l-399 -1413h-471l-191 799
l-188 -799h-471l-399 1413h481l174 -788l174 788h461z" />
    <glyph glyph-name="wdieresis" unicode="&#x1e85;" horiz-adv-x="1812" 
d="M1290 1264q0 -72 -48 -118t-120 -46q-74 0 -122 46t-48 118q0 73 48 118t122 45t121 -45t47 -118zM860 1264q0 -72 -48 -118t-120 -46q-74 0 -122 46t-48 118q0 73 48 118t122 45t121 -45t47 -118zM1229 492l133 552h461l-338 -1044h-441l-139 512l-137 -512h-440
l-338 1044h461l133 -552l133 552h379z" />
    <glyph glyph-name="Ygrave" unicode="&#x1ef2;" 
d="M680 936l211 477h512l-492 -860v-553h-462v553l-490 860h512zM362 1782h369l143 -297h-317z" />
    <glyph glyph-name="ygrave" unicode="&#x1ef3;" horiz-adv-x="1249" 
d="M629 502l170 542h471l-430 -1064q-70 -176 -156 -269q-84 -90 -244 -90q-99 0 -195.5 14.5t-142.5 32.5l-41 15l93 327q62 -30 143 -30q43 0 64 13t28 48l-409 1003h481zM307 1413h369l143 -297h-317z" />
    <glyph glyph-name="endash" unicode="&#x2013;" horiz-adv-x="1024" 
d="M0 707h1024v-338h-1024v338z" />
    <glyph glyph-name="emdash" unicode="&#x2014;" horiz-adv-x="2048" 
d="M51 707h1946v-338h-1946v338z" />
    <glyph glyph-name="quoteleft" unicode="&#x2018;" horiz-adv-x="808" 
d="M113 829l235 584h379l-184 -584h-430z" />
    <glyph glyph-name="quoteright" unicode="&#x2019;" horiz-adv-x="808" 
d="M82 829l184 584h430l-235 -584h-379z" />
    <glyph glyph-name="quotesinglbase" unicode="&#x201a;" horiz-adv-x="808" 
d="M82 -246l184 584h430l-235 -584h-379z" />
    <glyph glyph-name="quotedblleft" unicode="&#x201c;" horiz-adv-x="1331" 
d="M645 829l236 584h358l-184 -584h-410zM123 829l235 584h359l-185 -584h-409z" />
    <glyph glyph-name="quotedblright" unicode="&#x201d;" horiz-adv-x="1331" 
d="M614 829l185 584h409l-235 -584h-359zM92 829l184 584h410l-235 -584h-359z" />
    <glyph glyph-name="quotedblbase" unicode="&#x201e;" horiz-adv-x="1331" 
d="M614 -246l185 584h409l-235 -584h-359zM92 -246l184 584h410l-235 -584h-359z" />
    <glyph glyph-name="dagger" unicode="&#x2020;" horiz-adv-x="1484" 
d="M922 1044h409v-327h-409v-993h-359v993h-409v327h409v451h359v-451z" />
    <glyph glyph-name="daggerdbl" unicode="&#x2021;" horiz-adv-x="1484" 
d="M922 461h409v-328h-409v-409h-359v409h-409v328h409v297h-409v327h409v410h359v-410h409v-327h-409v-297z" />
    <glyph glyph-name="bullet" unicode="&#x2022;" 
d="M944 1010q111 -108 111 -262t-111 -265q-110 -110 -264 -110t-264 110q-109 112 -109 265t109 262q110 110 264 110t264 -110z" />
    <glyph glyph-name="ellipsis" unicode="&#x2026;" horiz-adv-x="2048" 
d="M1690 -23q-116 0 -184 59t-68 163q0 105 68 164t184 59q113 0 181 -60t68 -163t-67.5 -162.5t-181.5 -59.5zM1024 -23q-116 0 -184 59t-68 163q0 105 68 164t184 59q114 0 182 -60t68 -163t-68 -162.5t-182 -59.5zM358 -23q-116 0 -184 59t-68 163q0 105 68 164t184 59
q114 0 182 -60t68 -163t-68 -162.5t-182 -59.5z" />
    <glyph glyph-name="perthousand" unicode="&#x2030;" horiz-adv-x="2816" 
d="M2755 362q0 -178 -110.5 -285.5t-289.5 -107.5t-289 107.5t-110 285.5q0 180 110 287q112 109 289 109t289 -109q111 -108 111 -287zM1884 362q0 -178 -110 -285.5t-289 -107.5t-289.5 107.5t-110.5 285.5q0 179 111 287q112 109 289 109t289 -109q110 -107 110 -287z
M440 55l885 1399l180 -108l-887 -1397zM860 1038q0 -178 -110 -285.5t-289 -107.5t-289.5 107.5t-110.5 285.5q0 179 111 287q112 109 289 109t289 -109q110 -107 110 -287zM2355 512q-112 0 -112 -143q0 -144 112 -144q117 0 117 144q0 143 -117 143zM1485 512
q-113 0 -113 -143q0 -144 113 -144q117 0 117 144q0 143 -117 143zM461 1188q-113 0 -113 -144q0 -143 113 -143q117 0 117 143q0 144 -117 144z" />
    <glyph glyph-name="guilsinglleft" unicode="&#x2039;" horiz-adv-x="849" 
d="M707 854l-242 -332l242 -334l-215 -147l-349 481l349 482z" />
    <glyph glyph-name="guilsinglright" unicode="&#x203a;" horiz-adv-x="849" 
d="M143 854l215 150l349 -482l-349 -481l-215 147l240 334z" />
    <glyph glyph-name="fraction" unicode="&#x2044;" horiz-adv-x="716" 
d="M-176 53l895 1411l174 -106l-895 -1411z" />
    <glyph glyph-name="Euro" unicode="&#x20ac;" 
d="M1198 440l113 -338q-1 -1 -18 -13t-32 -21t-42.5 -23.5t-60.5 -25t-75.5 -21t-97 -16t-115.5 -5.5q-488 0 -614 447h-123v246h88q-2 18 -2 47v41h-86v246h133q64 218 221 324t383 106q110 0 216 -24t159 -54l45 -25l-112 -327q-130 86 -256 86q-160 0 -195 -86h277v-246
h-345v-88h345v-246h-277q8 -38 57 -61t127 -23q158 0 287 100z" />
    <glyph glyph-name="trademark" unicode="&#x2122;" horiz-adv-x="1894" 
d="M1423 1413h297l52 -860h-226l-20 563h-6l-148 -563h-190l-148 563h-6l-20 -563h-226l52 860h296l144 -543h6zM92 1413h649v-180h-215v-680h-219v680h-215v180z" />
    <glyph glyph-name="product" unicode="&#x220f;" horiz-adv-x="1787" 
d="M1538 633h148v-225h-199q-59 -143 -174 -240q-198 -168 -545 -168h-479v408h-187v225h187v158h-187v225h187v397h479q342 0 545 -170q115 -100 170 -227h203v-225h-148q4 -70 4 -84q0 -12 -4 -74zM1206 707q0 43 -6 84h-582v-158h584q4 62 4 74zM618 408v-127h168
q187 0 295 102q13 9 25 25h-488zM618 1016h484l-21 22q-107 101 -295 101h-168v-123z" />
    <glyph glyph-name="minus" unicode="&#x2212;" horiz-adv-x="1505" 
d="M164 870h1177v-327h-1177v327z" />
    <glyph glyph-name="notequal" unicode="&#x2260;" horiz-adv-x="1505" 
d="M903 604h438v-328h-497l-31 -184h-338l31 184h-342v328h401l37 205h-438v328h495l31 184h338l-31 -184h344v-328h-401z" />
    <glyph glyph-name="lessequal" unicode="&#x2264;" horiz-adv-x="2015" 
d="M813 31q-32 -32 -79.5 -32t-82.5 32q-32 35 -32 82.5t32 79.5q35 35 82.5 35t79.5 -35q35 -32 35 -79.5t-35 -82.5zM639 266q-32 -32 -79.5 -32t-82.5 32q-32 35 -32 82.5t32 79.5q35 35 82.5 35t79.5 -35q35 -32 35 -79.5t-35 -82.5zM465 502q-32 -32 -79.5 -32
t-82.5 32q-32 35 -32 82.5t32 79.5q35 35 82.5 35t79.5 -35q35 -32 35 -79.5t-35 -82.5zM651 1606q35 35 82.5 35t79.5 -35q35 -32 35 -79.5t-35 -82.5q-32 -32 -79.5 -32t-82.5 32q-32 35 -32 82.5t32 79.5zM477 1370q35 35 82.5 35t79.5 -35q35 -32 35 -79.5t-35 -82.5
q-32 -32 -79.5 -32t-82.5 32q-32 35 -32 82.5t32 79.5zM303 1135q35 35 82.5 35t79.5 -35q35 -32 35 -79.5t-35 -82.5q-32 -32 -79.5 -32t-82.5 32q-32 35 -32 82.5t32 79.5zM1819 899q35 35 82 35t79 -35q35 -32 35 -79.5t-35 -82.5q-32 -32 -79 -32t-82 32
q-32 35 -32 82.5t32 79.5zM1481 899q35 35 82 35t79 -35q35 -32 35 -79.5t-35 -82.5q-32 -32 -79 -32t-82 32q-32 35 -32 82.5t32 79.5zM467 899q35 35 82.5 35t79.5 -35q35 -32 35 -79.5t-35 -82.5q-32 -32 -79.5 -32t-82.5 32q-32 35 -32 82.5t32 79.5zM129 899
q35 35 82.5 35t79.5 -35q35 -32 35 -79.5t-35 -82.5q-32 -32 -79.5 -32t-82.5 32q-32 35 -32 82.5t32 79.5zM805 899q35 35 82.5 35t79.5 -35q35 -32 35 -79.5t-35 -82.5q-32 -32 -79.5 -32t-82.5 32q-32 35 -32 82.5t32 79.5zM1143 899q35 35 82.5 35t79.5 -35
q35 -32 35 -79.5t-35 -82.5q-32 -32 -79.5 -32t-82.5 32q-32 35 -32 82.5t32 79.5z" />
    <glyph glyph-name="greaterequal" unicode="&#x2265;" horiz-adv-x="2015" 
d="M709 899q35 35 82 35t79 -35q35 -32 35 -79.5t-35 -82.5q-32 -32 -79 -32t-82 32q-32 35 -32 82.5t32 79.5zM1047 899q35 35 82 35t79 -35q35 -32 35 -79.5t-35 -82.5q-32 -32 -79 -32t-82 32q-32 35 -32 82.5t32 79.5zM1722 899q35 35 82.5 35t79.5 -35q35 -32 35 -79.5
t-35 -82.5q-32 -32 -79.5 -32t-82.5 32q-32 35 -32 82.5t32 79.5zM1384 899q35 35 82.5 35t79.5 -35q35 -32 35 -79.5t-35 -82.5q-32 -32 -79.5 -32t-82.5 32q-32 35 -32 82.5t32 79.5zM371 899q35 35 82 35t79 -35q35 -32 35 -79.5t-35 -82.5q-32 -32 -79 -32t-82 32
q-32 35 -32 82.5t32 79.5zM33 899q35 35 82.5 35t79.5 -35q35 -32 35 -79.5t-35 -82.5q-32 -32 -79.5 -32t-82.5 32q-32 35 -32 82.5t32 79.5zM1548 1135q35 35 82.5 35t79.5 -35q35 -32 35 -79.5t-35 -82.5q-32 -32 -79.5 -32t-82.5 32q-32 35 -32 82.5t32 79.5zM1374 1370
q35 35 82.5 35t79.5 -35q35 -32 35 -79.5t-35 -82.5q-32 -32 -79.5 -32t-82.5 32q-32 35 -32 82.5t32 79.5zM1200 1606q35 35 82.5 35t79.5 -35q35 -32 35 -79.5t-35 -82.5q-32 -32 -79.5 -32t-82.5 32q-32 35 -32 82.5t32 79.5zM1710 502q-32 -32 -79.5 -32t-82.5 32
q-32 35 -32 82.5t32 79.5q35 35 82.5 35t79.5 -35q35 -32 35 -79.5t-35 -82.5zM1536 266q-32 -32 -79.5 -32t-82.5 32q-32 35 -32 82.5t32 79.5q35 35 82.5 35t79.5 -35q35 -32 35 -79.5t-35 -82.5zM1362 31q-32 -32 -79.5 -32t-82.5 32q-32 35 -32 82.5t32 79.5
q35 35 82.5 35t79.5 -35q35 -32 35 -79.5t-35 -82.5z" />
    <glyph glyph-name="commaaccent" unicode="&#xf6c3;" horiz-adv-x="716" 
d="M102 -389l70 287h430l-127 -287h-373z" />
    <glyph glyph-name="apple" unicode="&#xf8ff;" horiz-adv-x="2947" 
d="M1288 -127h-14q51 42 51 92q0 72 -59 84q10 -68 10 -106q0 -74 -63 -117t-150 -43q-56 0 -96.5 31t-40.5 80q0 43 29 64.5t65 21.5q18 0 27 -3q27 55 92 82v7q-6 15 -6 47q-41 -84 -113 -84q-38 0 -65 42t-27 103q0 45 37 135q36 91 36 123q0 47 -18 47q-21 0 -43.5 -23
t-24.5 -38q0 -72 -69 -109q0 -291 -238 -291q-72 0 -118 34.5t-46 99.5q0 44 25.5 78t62.5 34q52 0 52 -59q0 -45 -23.5 -78t-60.5 -33q-4 0 -17 5t-16 5q6 -24 26.5 -41.5t41.5 -17.5q67 0 104 88q32 81 53 176q-44 17 -71 64q-18 -6 -29 -6q-115 0 -115 118q0 92 66 164
q65 74 157 74q74 0 129 -27q58 -24 74 -24q5 0 33 4v-8q-115 -27 -188 -129q-4 38 -33 62t-70 24q-59 0 -105 -50t-46 -112q0 -86 92 -86q16 0 28 6q-10 23 -10 57q0 40 21 69.5t45 29.5q35 0 35 -41q0 -32 -21.5 -65t-52.5 -52q14 -35 63 -57q34 137 97 215
q29 33 69.5 62.5t73.5 33.5v-10q-96 -47 -96 -224q0 -6 0.5 -16t1.5 -28t2 -33q65 35 65 94q0 51 -24 78v2q27 -12 30 -62q35 66 101 66q46 0 71 -43t25 -109q0 -24 -37 -117q-35 -96 -35 -137q0 -35 19 -35q25 0 45.5 30.5t34.5 86.5q21 77 26 107l25 116l20 97
q39 -17 54 -17q25 0 69 33q-1 -8 -26 -117q-45 -205 -45 -280v-15l2 -28q75 -15 75 -103q0 -58 -49 -98zM2787 236l66 -52l-232 -45l17 -82l-144 115q-55 -122 -131 -201q32 -14 84 -14q109 0 150 84h4q-7 -46 -50 -75t-95 -29q-53 0 -109 20q-118 -121 -231 -121
q-119 0 -119 195q-2 -2 -12 -2q-66 0 -111 60.5t-45 162.5q0 70 84 160t176 90q37 0 59.5 -27t22.5 -80q0 -68 -68 -121q-61 -49 -139 -59q-20 -97 -20 -135q0 -35 41 -35q10 0 12 2v2q0 67 39 129q41 68 98 68q27 0 27 -41q0 -50 -50 -109q-45 -57 -100 -63
q0 -178 115 -178q91 0 201 110q-129 61 -129 197q0 53 30 97t78 54v-6q-46 -12 -71 -53.5t-25 -97.5q0 -118 131 -176q90 103 123 208l-185 56l80 32l-106 220l86 -27l-19 129l84 -92l50 72l49 -160l69 219l35 -57l127 75v-145h78l-168 -166l166 47l-27 -86l125 -12z
M1620 -8h12v-8q-18 0 -31.5 -10t-13.5 -27q0 -19 13 -31t32 -12q60 0 103 61t43 121q0 31 -23 72q-61 -129 -143 -129q-62 0 -62 86q0 52 28 86t62 41q23 158 23 223q0 16 -18 16q-10 0 -25.5 -12.5t-30 -43.5t-14.5 -71q0 -39 -47 -282q-47 -244 -55 -267q-39 17 -54 17
q-20 0 -67 -33l34 184q49 266 56 310q26 142 26 172q0 74 -82 120q-33 21 -56 83.5t-23 158.5q0 61 36 176q39 118 39 183q0 34 -14 34q-20 0 -49.5 -35.5t-48.5 -87.5q-4 -29 -32 -178.5t-30 -152.5q-37 18 -53 18q-37 0 -63 -20l22 125q45 250 45 301q0 28 -14 28
q-27 0 -62 -86h-16q15 51 36.5 79t67.5 28q82 0 97 -92q3 4 13 19.5t14.5 22t15 19t19.5 18t21.5 10.5t26.5 5q46 0 74.5 -55.5t28.5 -131.5q0 -81 -41 -202t-41 -178q0 -56 21.5 -88.5t54.5 -40.5q33 -7 60 -35.5t34 -75.5q47 78 94 78q53 0 88 -72t35 -131q0 -63 -27 -125
q31 -48 31 -94q0 -76 -43 -133.5t-109 -57.5q-26 0 -44.5 16.5t-18.5 41.5q0 19 13 32t32 13zM350 526h-8l6 6q21 0 44.5 18.5t23.5 41.5v10q-35 -14 -80 -14q-50 0 -94.5 18.5t-44.5 50.5q0 23 27 36.5t57 13.5q36 0 81.5 -24t63.5 -54q72 31 72 94q0 37 -17 57
q-51 -32 -114 -32q-98 0 -160 67.5t-62 181.5q0 29 21 88q-53 41 -53 119q0 77 47 142q49 67 116 67q5 0 16 -1l11 -1v-10h-18q-66 0 -113 -62t-47 -133q0 -68 49 -102q56 127 162 248q108 123 176 123q63 0 63 -109q0 -88 -73 -170q-71 -80 -166 -115v-2q-2 -2 -2 -4
q-45 -179 -45 -237q0 -31 18 -50t33 -23.5t25 -4.5q48 0 100 37q-26 20 -70 20q-45 0 -57 -12v6q18 18 51 18q51 0 86 -24q86 77 86 186q0 90 -57 90q-53 0 -89 -46.5t-36 -104.5q0 -62 37 -62q27 0 45 34t18 73q0 4 -4 24h12q5 -15 5 -24q0 -41 -23.5 -80t-52.5 -39
q-49 0 -49 78q0 59 39 110.5t92 51.5q42 0 68 -37t26 -92q0 -109 -98 -179q24 -24 24 -69q0 -76 -88 -113q2 -2 2 -8q0 -28 -26 -50t-56 -22zM2410 936h19q-47 -176 -125 -176q-37 0 -66 26.5t-36 73.5q-30 -59 -53 -80.5t-54 -21.5q-57 0 -86 69q-29 76 -29 138
q0 74 76 168q76 98 139 98q36 0 50 -39q7 44 18.5 99.5t18.5 89.5l8 34q30 -19 53 -16.5t72 33.5q-113 -590 -113 -623q0 -27 14 -27q27 0 54 52q29 56 40 102zM1944 868h14q-27 -108 -92 -108q-78 0 -99 98q-29 -57 -52.5 -78.5t-51.5 -21.5q-57 0 -86 69q-31 73 -31 138
q0 74 76 168q76 98 139 98q39 0 54 -47l10 41q41 -15 55 -15t68 31q-78 -407 -78 -432q0 -27 12 -27q27 0 62 86zM2853 868h16q-30 -108 -94 -108q-81 0 -96 98q-31 -59 -54 -79.5t-51 -20.5q-54 0 -88 69q-30 71 -30 138q0 73 77 168q76 98 140 98q35 0 53 -47l10 41
q40 -15 53 -15q20 0 68 31l-25 -125q-20 -95 -36 -192q-17 -100 -17 -115q0 -27 14 -27q25 0 60 86zM1024 868h14q-27 -108 -94 -108q-34 0 -61.5 25.5t-34.5 72.5q-30 -60 -52.5 -80t-54.5 -20q-55 0 -84 69q-28 73 -28 138q0 72 78 168q76 98 139 98q31 0 49 -47l10 41
q57 -20 78 -11q7 3 18 9.5t18.5 12t8.5 5.5q-1 -7 -4.5 -23t-10 -46t-12.5 -58q-21 -104 -36 -190q-17 -100 -17 -115q0 -27 17 -27q24 0 59 86zM688 -152h-8q-42 0 -78.5 21.5t-36.5 56.5q0 43 53 43q37 0 69 -26t32 -58q0 -1 -1 -8t-1 -8q53 13 88 48.5t35 88.5
q0 23 -11 60h7q12 -18 12 -60q0 -56 -40.5 -99t-98.5 -54q-30 -58 -117 -58q-61 0 -108.5 27t-47.5 74q0 25 14.5 41t38.5 16q19 0 25 -2q-133 115 -295 115q-38 0 -174 -17q25 9 83 27t67 22q73 28 129 90q57 63 57 121q0 66 -46 106t-116 40q-145 0 -145 -84q0 -24 27 -40
t61 -16q38 0 106 56v-15q-45 -63 -106 -63q-43 0 -74 22t-31 56q0 98 154 98q89 0 138.5 -46t49.5 -122q0 -58 -51 -115q-52 -58 -94 -84l29 -8q90 -20 146.5 -53.5t105.5 -103.5h-3v-3q-4 0 -17 3.5t-17 3.5q-52 0 -52 -45t50 -66q55 -25 96 -25q62 0 96 43zM2234 1141
q-3 73 -30 73q-23 0 -38.5 -38t-15.5 -66q-51 -219 -51 -313q0 -17 15 -17q40 0 61 70q22 74 59 291zM1036 -49h-24q-68 0 -68 -64q0 -41 34.5 -66.5t80.5 -25.5q45 0 84 29.5t39 71.5q0 36 -41 147q-62 -22 -82 -70q28 -10 44.5 -31.5t16.5 -41.5q0 -13 -12 -26t-29 -13
q-21 0 -33 19.5t-12 39.5t2 31zM2675 926q2 48 35 198q0 90 -29 90q-38 0 -53 -104q-50 -273 -50 -313q0 -17 13 -17q49 0 84 146zM1765 926q4 58 35 198q0 90 -28 90q-37 2 -54 -104q-49 -267 -49 -313q0 -17 10 -17q51 0 86 146zM846 926q2 48 35 198q0 90 -29 90
q-17 0 -32.5 -34t-20.5 -70q-49 -215 -49 -313q0 -17 12 -17q46 0 84 146zM434 1356q0 -1 -17 -46.5t-41 -111t-36 -98.5q82 37 141 127q60 91 60 186q0 41 -29 41q-19 0 -35.5 -20.5t-42.5 -77.5zM2421 795h4q-10 -61 -53.5 -100.5t-102.5 -47.5q0 -43 -43 -75.5
t-100 -32.5q-55 0 -92 24.5t-37 75.5q0 32 26 60.5t60 29.5v-6q-27 -5 -48.5 -26.5t-21.5 -45.5q0 -84 117 -84q126 0 129 80q-2 -2 -12 -2q-38 0 -63 15.5t-25 41.5q0 12 12 21.5t24 9.5q24 0 45 -19t29 -46q51 6 95.5 43t56.5 84zM1917 729l16 -8q-12 -56 -68.5 -95.5
t-123.5 -39.5h-17q-27 -27 -77 -27q-113 0 -160 86v2q71 -80 155 -80q47 0 68 21q-69 9 -139 51q-68 44 -68 117q0 35 17 55l8 -6q-8 -24 -8 -45q0 -67 65 -105q61 -35 144 -45q6 12 6 29q0 36 -30.5 62t-72.5 26q-34 0 -63 -16l-6 2q18 18 49 22t60.5 -5.5t51 -33
t21.5 -55.5q0 -11 -4 -31h6q63 0 111 31t59 88zM1966 231q57 9 94 84t37 136q0 34 -16 34q-66 0 -115 -254zM2009 53v-4q40 0 86 55q49 58 49 107q0 22 -14 22q-44 0 -84 -63q-37 -61 -37 -117zM410 623q-18 29 -57 50t-72 21q-64 0 -64 -37q0 -49 109 -49q44 0 84 15z
M1290 522l-8 2v4q-6 39 -28 59.5t-48 20.5q-14 0 -63 -24q-54 -23 -99 -23q-53 0 -53 41q0 24 21 37.5t49 13.5l94 -10q51 0 51 37q0 22 -17.5 35.5t-43.5 13.5q-45 0 -45 -29q0 -22 24 -22q18 0 35 10l2 -12q-13 -8 -35 -8q-39 0 -39 30q0 16 20 28.5t40 12.5
q31 0 51.5 -16t20.5 -41q0 -47 -64 -47l-94 10q-62 0 -62 -43q0 -29 43 -29q25 0 80 25q52 27 72 27q42 0 69 -29t27 -74zM1638 223q-31 -1 -54 -37.5t-23 -79.5q0 -57 36 -57q16 0 25 47l6 41q10 42 10 86zM705 -111q0 28 -25 48t-55 20q-43 0 -43 -41q0 -29 44 -46
q46 -17 69 -1q10 7 10 20zM627 391q67 46 67 105q0 30 -24 30q-25 0 -38.5 -28.5t-11.5 -58.5t7 -48zM2251 668h6q-12 53 -55 53q-25 0 -25 -21q0 -32 74 -32zM1053 -53q-2 -6 -2 -21q0 -49 24 -49q25 0 25 19q0 30 -47 51z" />
    <glyph glyph-name="NULL" horiz-adv-x="0" 
 />
    <glyph glyph-name="CR" horiz-adv-x="681" 
 />
    </font>
</defs>
</svg>
