<?xml version="1.0" standalone="no"?>
<!DOCTYPE svg PUBLIC "-//W3C//DTD SVG 1.1//EN" "http://www.w3.org/Graphics/SVG/1.1/DTD/svg11.dtd" >
<svg xmlns="http://www.w3.org/2000/svg" xmlns:xlink="http://www.w3.org/1999/xlink" version="1.1">
<metadata>
Created by FontForge 20170731 at Fri May 20 12:51:47 2022
 By Aleksey,,,
Copyright (c) 2011 Rod McDonald. Published by Canada Type. All rights reserved.
</metadata>
<defs>
<font id="Gibson" horiz-adv-x="1366" >
  <font-face 
    font-family="Gibson"
    font-weight="400"
    font-stretch="normal"
    units-per-em="2048"
    panose-1="2 0 0 0 0 0 0 0 0 0"
    ascent="1599"
    descent="-449"
    x-height="971"
    cap-height="1413"
    bbox="-307 -461 2908 1938"
    underline-thickness="40"
    underline-position="-312"
    unicode-range="U+0020-FB04"
  />
<missing-glyph horiz-adv-x="409" 
 />
    <glyph glyph-name="ff" unicode="ff" horiz-adv-x="1122" 
d="M1184 1419l16 -6l-12 -145q-56 18 -111 18q-84 0 -116.5 -51t-32.5 -156v-108h231v-158h-231v-813h-195v813h-366v-813h-195v813h-139v158h139v98q0 176 66 260q85 107 233 107q99 0 152 -17l16 -6l-12 -145q-55 18 -111 18q-84 0 -116.5 -51t-32.5 -156v-108h366v98
q0 176 66 260q85 107 233 107q99 0 152 -17z" />
    <glyph glyph-name="fi" unicode="fi" horiz-adv-x="1062" 
d="M821 1171q-56 0 -91.5 33.5t-35.5 87.5t35.5 87.5t91.5 33.5q57 0 93 -33.5t36 -87.5t-36 -87.5t-93 -33.5zM725 973h195v-973h-195v973zM612 1419l21 -6l-15 -145q-46 18 -102 18q-41 0 -72.5 -16t-46.5 -39q-12 -17 -22 -64q-8 -57 -8 -137v-59h231v-158h-231v-813
h-195v813h-139v158h139v98q0 185 66 260q94 107 241 107q76 0 133 -17z" />
    <glyph glyph-name="fl" unicode="fl" horiz-adv-x="1067" 
d="M725 1413h197v-1413h-197v1413zM614 1419l19 -6l-15 -145q-40 18 -102 18q-84 0 -116.5 -51t-32.5 -156v-108h231v-158h-231v-813h-195v813h-139v158h139v106q0 155 61 246q82 113 246 113q86 0 135 -17z" />
    <glyph glyph-name="ffi" unicode="ffi" horiz-adv-x="1605" 
d="M1184 1419l16 -6l-12 -145q-56 18 -111 18q-84 0 -116.5 -51t-32.5 -156v-108h231v-158h-231v-813h-195v813h-366v-813h-195v813h-139v158h139v98q0 176 66 260q85 107 233 107q99 0 152 -17l16 -6l-12 -145q-55 18 -111 18q-84 0 -116.5 -51t-32.5 -156v-108h366v98
q0 176 66 260q85 107 233 107q99 0 152 -17zM1266 973h196v-973h-196v973zM1364 1171q-57 0 -93 33.5t-36 87.5t36 87.5t93 33.5q56 0 91.5 -33.5t35.5 -87.5t-35.5 -87.5t-91.5 -33.5z" />
    <glyph glyph-name="ffl" unicode="ffl" horiz-adv-x="1607" 
d="M1184 1419l16 -6l-12 -145q-56 18 -111 18q-84 0 -116.5 -51t-32.5 -156v-108h231v-158h-231v-813h-195v813h-366v-813h-195v813h-139v158h139v98q0 176 66 260q85 107 233 107q99 0 152 -17l16 -6l-12 -145q-55 18 -111 18q-84 0 -116.5 -51t-32.5 -156v-108h366v98
q0 176 66 260q85 107 233 107q99 0 152 -17zM1268 1413h194v-1413h-194v1413z" />
    <glyph glyph-name="f_j" unicode="fj" horiz-adv-x="1044" 
d="M623 1419l16 -6l-12 -145q-55 18 -111 18q-84 0 -116.5 -51t-32.5 -156v-108h231v-158h-231v-813h-195v813h-139v158h139v98q0 176 66 260q85 107 233 107q99 0 152 -17zM803 1171q-57 0 -93 33.5t-36 87.5t36 87.5t93 33.5q56 0 91.5 -33.5t35.5 -87.5t-35.5 -87.5
t-91.5 -33.5zM705 973h196v-975q0 -194 -61 -279q-88 -120 -246 -120q-75 0 -111 12l-12 4l2 156q41 -15 92 -15q82 0 111 58.5t29 189.5v969z" />
    <glyph glyph-name="f_t" unicode="ft" horiz-adv-x="1198" 
d="M1145 162l12 6l12 -158q-73 -33 -178 -33q-140 0 -207 101q-49 73 -49 291v444h-368v-813h-195v813h-139v158h139v98q0 176 66 260q85 107 233 107q99 0 152 -17l16 -6l-12 -145q-55 18 -111 18q-84 0 -116.5 -51t-32.5 -156v-108h368v291h197v-291h233v-158h-233v-440
q0 -131 24 -178q27 -50 101 -50q54 0 88 17z" />
    <glyph glyph-name=".notdef" horiz-adv-x="409" 
 />
    <glyph glyph-name=".null" horiz-adv-x="0" 
 />
    <glyph glyph-name="nonmarkingreturn" horiz-adv-x="682" 
 />
    <glyph glyph-name="space" unicode=" " horiz-adv-x="407" 
 />
    <glyph glyph-name="exclam" unicode="!" horiz-adv-x="616" 
d="M223 377l-16 1036h205l-19 -1036h-170zM444 106q0 -57 -37.5 -91.5t-97.5 -34.5q-62 0 -99.5 34.5t-37.5 91.5q0 60 37.5 95t99.5 35q61 0 98 -35.5t37 -94.5z" />
    <glyph glyph-name="quotedbl" unicode="&#x22;" horiz-adv-x="913" 
d="M549 975l-21 438h189l-23 -438h-145zM217 975l-20 438h188l-20 -438h-148z" />
    <glyph glyph-name="numbersign" unicode="#" horiz-adv-x="1222" 
d="M920 1030h227v-127h-248l-47 -309h229v-129h-250l-65 -426h-131l65 426h-272l-68 -426h-131l68 426h-221v129h241l48 309h-224v127h244l68 428h129l-66 -428h272l68 428h131zM446 594h275l47 309h-272z" />
    <glyph glyph-name="dollar" unicode="$" horiz-adv-x="1200" 
d="M1063 381q0 -178 -145 -293q-107 -85 -246 -100l-2 -150h-115v148q-131 2 -243 69.5t-175 184.5l119 112q41 -91 128.5 -149t180.5 -60l2 506l-75 35q-107 49 -160 90q-135 108 -135 281q0 160 120 268q101 87 261 102l2 140h114v-142q221 -18 332 -190l-100 -117
q-90 143 -242 158l-2 -473l123 -58q258 -114 258 -362zM541 858l32 -16l2 434q-93 -11 -146.5 -66.5t-53.5 -142.5q5 -83 46.5 -128t119.5 -81zM883 358q0 83 -38.5 135t-117.5 91l-51 24l-2 -467q77 3 143 66q66 66 66 151z" />
    <glyph glyph-name="percent" unicode="%" horiz-adv-x="1595" 
d="M1438 561q94 -94 94 -246q0 -151 -94 -245q-95 -95 -240 -95t-240 95q-94 94 -94 245q0 152 94 246t240 94t240 -94zM309 14l875 1432l102 -62l-874 -1431zM731 1083q0 -153 -94 -247q-95 -95 -240 -95q-144 0 -239 95t-95 247q0 149 95 244q96 96 239 96q144 0 240 -96
q94 -94 94 -244zM1335 164q54 60 54 153q0 94 -54 154q-53 59 -137 59q-86 0 -139 -59q-51 -57 -51 -154q0 -96 51 -153q54 -60 139 -60q83 0 137 60zM535 930q53 59 53 153q0 95 -53 154t-138 59q-86 0 -139 -59q-51 -57 -51 -154q0 -96 51 -153q52 -58 139 -58
q86 0 138 58z" />
    <glyph glyph-name="ampersand" unicode="&#x26;" horiz-adv-x="1415" 
d="M1104 336l297 -324v-12h-236l-174 203q-116 -118 -225 -173t-252 -55q-189 0 -315 105q-123 108 -123 291q0 145 89.5 244t280.5 196q-9 8 -26 31l-29 35q-41 52 -51 71q-2 5 -11 22.5t-16.5 34.5t-11.5 29q-14 63 -14 101q0 138 100 219q101 82 260 82q156 0 254 -82
t98 -215q0 -204 -280 -361l274 -323q28 33 90 133q60 98 86 153l154 -69q-18 -39 -100 -168q-70 -110 -119 -168zM821 1135q0 74 -46.5 115.5t-125.5 41.5q-76 0 -125 -46t-49 -120q0 -84 78 -174l57 -65q59 33 129 88q82 64 82 160zM881 322l-326 376l-59 -32
q-61 -36 -105 -68q-46 -33 -81.5 -93t-35.5 -124q0 -108 76 -179t189 -71q97 0 189.5 55.5t152.5 135.5z" />
    <glyph glyph-name="quotesingle" unicode="'" horiz-adv-x="622" 
d="M238 975l-21 438h189l-21 -438h-147z" />
    <glyph glyph-name="parenleft" unicode="(" horiz-adv-x="581" 
d="M526 -236l-125 -67q-301 451 -301 940t301 940l125 -68q-96 -145 -170 -383q-77 -245 -77 -489t77 -492q75 -237 170 -381z" />
    <glyph glyph-name="parenright" unicode=")" horiz-adv-x="581" 
d="M178 -303l-125 67q95 144 170 381q78 251 78 492t-78 489q-74 238 -170 383l125 68q303 -446 303 -940t-303 -940z" />
    <glyph glyph-name="asterisk" unicode="*" horiz-adv-x="1075" 
d="M588 1159l286 115l46 -123l-306 -90l201 -264l-106 -74l-172 278l-170 -278l-107 74l201 264l-305 90l45 123l286 -115l-18 295h137z" />
    <glyph glyph-name="plus" unicode="+" 
d="M760 782h459v-151h-459v-459h-152v459h-461v151h461v459h152v-459z" />
    <glyph glyph-name="comma" unicode="," horiz-adv-x="616" 
d="M125 -287l143 504h201l-188 -504h-156z" />
    <glyph glyph-name="hyphen" unicode="-" horiz-adv-x="598" 
d="M51 643h496v-164h-496v164z" />
    <glyph glyph-name="period" unicode="." horiz-adv-x="616" 
d="M444 106q0 -57 -37.5 -91.5t-97.5 -34.5q-62 0 -99.5 34.5t-37.5 91.5q0 60 37.5 95t99.5 35q61 0 98 -35.5t37 -94.5z" />
    <glyph glyph-name="slash" unicode="/" horiz-adv-x="1064" 
d="M43 -131l852 1747l131 -57l-852 -1749z" />
    <glyph glyph-name="zero" unicode="0" horiz-adv-x="1200" 
d="M1141 705q0 -189 -54 -353q-52 -159 -180 -268q-125 -107 -307 -107q-184 0 -309 107q-232 203 -232 621q0 190 54 354q56 159 180 266q127 109 307 109q110 0 201.5 -40.5t153.5 -109.5t104.5 -163t62 -198.5t19.5 -217.5zM940 709q0 257 -88.5 407t-251.5 150
t-251.5 -150t-88.5 -407q0 -250 86 -404q88 -153 254 -153t252 153q88 152 88 404z" />
    <glyph glyph-name="one" unicode="1" horiz-adv-x="892" 
d="M127 1413h469v-1413h-193v1268h-276v145z" />
    <glyph glyph-name="two" unicode="2" horiz-adv-x="1200" 
d="M389 164h721v-164h-954l-29 133l500 473q117 113 173 202.5t56 188.5q0 123 -79.5 199t-211.5 76q-208 0 -346 -228l-104 117q44 95 159 182q123 91 304 91q212 0 342 -115q131 -113 131 -301q0 -160 -107 -303q-88 -112 -174 -189l-18 -16z" />
    <glyph glyph-name="three" unicode="3" horiz-adv-x="1200" 
d="M1075 395q0 -188 -145 -303q-141 -112 -365 -112q-275 0 -459 239l111 121q32 -41 59 -68q34 -34 117 -84q86 -47 168 -47q143 0 230.5 69.5t87.5 192.5q0 120 -81 188t-212 68h-105v158h105q117 0 185.5 61t68.5 169q0 106 -75.5 167.5t-191.5 61.5q-172 0 -337 -162
l-93 119q92 100 195 150.5t252 50.5q183 0 311 -101q131 -101 131 -266q0 -130 -64 -208t-165 -111v-7q98 -17 186 -108q86 -89 86 -238z" />
    <glyph glyph-name="four" unicode="4" horiz-adv-x="1200" 
d="M954 473h205v-164h-205v-309h-192v309h-713v146l699 966h206v-948zM764 1188l-520 -717h520v717z" />
    <glyph glyph-name="five" unicode="5" horiz-adv-x="1200" 
d="M1079 453q0 -223 -155 -351q-154 -127 -367 -127q-176 0 -297 74q-116 76 -168 164l111 115q48 -84 143.5 -136.5t208.5 -52.5q134 0 229 80q99 83 99 234t-99 231q-94 82 -229 82q-165 0 -250 -76l-100 60l123 663h710v-160h-567l-74 -374q79 36 201 36q191 0 334 -122
q147 -123 147 -340z" />
    <glyph glyph-name="six" unicode="6" horiz-adv-x="1200" 
d="M1114 463q0 -209 -133 -348q-134 -140 -348 -140q-283 0 -428 244q-99 163 -99 461q0 362 166 567q150 187 406 187q102 0 192 -33q100 -36 121 -53q52 -35 84 -58l-84 -133q-145 121 -311 121q-161 0 -262 -131q-121 -157 -121 -451q112 201 383 201q175 0 305 -121
q129 -120 129 -313zM844 223q78 90 78 219q0 130 -78 220t-215 90q-138 0 -219 -90q-78 -90 -78 -220q0 -129 78 -219q81 -90 219 -90q137 0 215 90z" />
    <glyph glyph-name="seven" unicode="7" horiz-adv-x="1200" 
d="M123 1413h962l54 -115l-680 -1298h-209l668 1253h-795v160z" />
    <glyph glyph-name="eight" unicode="8" horiz-adv-x="1200" 
d="M1087 391q0 -195 -137 -305q-136 -109 -350 -109t-350 109q-135 111 -135 305q0 129 70.5 222t193.5 130v7q-221 83 -221 317q0 166 127 266q128 101 315 101q188 0 313 -101q129 -99 129 -266q0 -230 -219 -319v-5q123 -39 193.5 -131.5t70.5 -220.5zM850 1049
q0 104 -70 166.5t-180 62.5t-180 -62.5t-70 -166.5q0 -107 69 -168.5t181 -61.5t181 61.5t69 168.5zM807 209q84 75 84 197q0 124 -82 194q-83 74 -209 74t-209 -74q-82 -70 -82 -194q0 -122 84 -197q84 -72 207 -72t207 72z" />
    <glyph glyph-name="nine" unicode="9" horiz-adv-x="1200" 
d="M1094 729q0 -359 -166 -567q-150 -187 -400 -187q-231 0 -409 146l84 131q53 -50 139.5 -83.5t181.5 -33.5q166 0 260 129q119 155 119 457q-46 -93 -142.5 -151t-240.5 -58q-174 0 -305 119q-129 120 -129 315q0 211 131 348q134 140 350 140q277 0 428 -244
q99 -156 99 -461zM788 752q80 89 80 219t-80 219q-78 90 -217 90t-217 -90q-75 -87 -75 -219t75 -219q78 -90 217 -90t217 90z" />
    <glyph glyph-name="colon" unicode=":" horiz-adv-x="616" 
d="M309 731q-61 0 -99 36t-38 93t38 93t99 36q60 0 97.5 -36t37.5 -93t-37.5 -93t-97.5 -36zM444 106q0 -57 -37.5 -91.5t-97.5 -34.5q-62 0 -99.5 34.5t-37.5 91.5q0 60 37.5 95t99.5 35q61 0 98 -35.5t37 -94.5z" />
    <glyph glyph-name="semicolon" unicode=";" horiz-adv-x="616" 
d="M309 731q-61 0 -99 36t-38 93t38 93t99 36q60 0 97.5 -36t37.5 -93t-37.5 -93t-97.5 -36zM125 -287l143 504h201l-188 -504h-156z" />
    <glyph glyph-name="less" unicode="&#x3c;" 
d="M338 707l881 -377v-166l-1072 459v168l1072 458v-166z" />
    <glyph glyph-name="equal" unicode="=" 
d="M147 967h1072v-150h-1072v150zM147 596h1072v-152h-1072v152z" />
    <glyph glyph-name="greater" unicode="&#x3e;" 
d="M147 1249l1072 -458v-168l-1072 -459v166l881 377l-881 376v166z" />
    <glyph glyph-name="question" unicode="?" horiz-adv-x="1007" 
d="M893 1098q0 -75 -29 -144q-25 -60 -55 -98q-25 -32 -84 -88q-13 -13 -50 -47t-48 -45q-18 -14 -35.5 -37t-24.5 -43q-13 -25 -16 -76l-4 -143h-166l-4 145q-3 73 22 137q22 57 47 89q8 9 74 71l119 109q66 63 66 149q0 90 -62.5 141.5t-167.5 51.5q-89 0 -159 -42.5
t-109 -109.5l-86 123q44 80 141 136.5t242 56.5q173 0 280 -101q109 -100 109 -235zM600 106q0 -57 -37 -91.5t-98 -34.5t-98 34.5t-37 91.5q0 60 36.5 95t98.5 35t98.5 -35t36.5 -95z" />
    <glyph glyph-name="at" unicode="@" horiz-adv-x="1638" 
d="M1554 578q0 -260 -159 -426q-140 -152 -308 -152q-148 0 -172 129q-129 -129 -262 -129q-30 0 -60.5 8t-65 30t-60.5 56t-43.5 91t-17.5 130q0 129 55 254q59 132 167 215.5t234 83.5q73 0 133.5 -24t81.5 -53l21 -25l20 65h133l-174 -546q-29 -72 -17.5 -120t68.5 -48
q107 0 207 133q101 131 101 323q0 220 -160 365q-157 145 -418 145q-270 0 -461 -188q-188 -188 -188 -473q0 -287 168 -461t434 -174q182 0 315 49q17 4 37.5 12.5t42.5 18t29 12.5q56 25 108 60l17 10l45 -84l-25 -17q-25 -18 -47.5 -31.5t-63 -35.5t-87 -38t-104 -32
t-129 -24.5t-148.5 -8.5q-307 0 -512 205t-205 539q0 219 109 399q107 178 282 274.5t379 96.5q318 0 518 -188q182 -173 182 -426zM973 375l90 280l-4 7q-8 13 -19.5 25.5t-34 29.5t-59.5 28t-82 11q-132 0 -223 -131q-98 -134 -98 -297q0 -107 43 -157t114 -50
q80 0 157 64.5t116 189.5z" />
    <glyph glyph-name="A" unicode="A" horiz-adv-x="1331" 
d="M578 1417h174l577 -1417h-221l-145 369h-607l-145 -369h-209zM659 1169l-247 -634h495z" />
    <glyph glyph-name="B" unicode="B" horiz-adv-x="1202" 
d="M1122 401q0 -188 -151 -309q-118 -92 -357 -92h-458v1413h381q231 0 335 -67q152 -100 152 -287q0 -107 -61 -193t-154 -116v-5q148 -31 230.5 -120t82.5 -224zM825 1036q0 129 -94 181q-66 38 -194 38h-183v-448h166q153 0 211 43q94 70 94 186zM918 410q0 123 -103 194
q-74 51 -248 51h-213v-493h213q178 0 248 49q103 71 103 199z" />
    <glyph glyph-name="C" unicode="C" horiz-adv-x="1361" 
d="M1229 330l86 -146q-188 -209 -516 -209q-311 0 -518 201q-205 202 -205 529q0 325 207 526q206 203 516 203q311 0 501 -187l-83 -160q-49 64 -164 117q-115 56 -246 56q-231 0 -379 -154q-147 -150 -147 -397t147 -400q151 -151 379 -151q266 0 422 172z" />
    <glyph glyph-name="D" unicode="D" horiz-adv-x="1404" 
d="M1110 184q-199 -184 -528 -184h-426v1413h426q329 0 528 -184q219 -201 219 -522q0 -322 -219 -523zM1126 707q0 247 -168 405q-137 131 -376 131h-228v-1071h228q239 0 376 131q168 158 168 404z" />
    <glyph glyph-name="E" unicode="E" horiz-adv-x="1087" 
d="M354 168h645v-168h-843v1413h827v-166h-629v-422h594v-166h-594v-491z" />
    <glyph glyph-name="F" unicode="F" horiz-adv-x="1011" 
d="M156 1413h784v-166h-586v-471h551v-166h-551v-610h-198v1413z" />
    <glyph glyph-name="G" unicode="G" horiz-adv-x="1529" 
d="M823 754h574v-549q-230 -230 -600 -230q-308 0 -514 203q-207 204 -207 529t205 524q206 203 514 203q344 0 561 -236l10 -10l-135 -125q-174 201 -436 201q-223 0 -369 -152q-145 -151 -145 -405q0 -257 149 -406q151 -151 377 -151q82 0 151.5 12.5t115.5 33t72.5 37
t45.5 33.5l12 13v313h-381v162z" />
    <glyph glyph-name="H" unicode="H" horiz-adv-x="1462" 
d="M1106 1413h199v-1413h-199v659h-752v-659h-198v1413h198v-584h752v584z" />
    <glyph glyph-name="I" unicode="I" horiz-adv-x="509" 
d="M156 1413h198v-1413h-198v1413z" />
    <glyph glyph-name="J" unicode="J" horiz-adv-x="509" 
d="M156 1413h198v-1409q0 -202 -63 -299q-83 -115 -228 -115q-36 0 -73.5 6t-56.5 11.5t-23 7.5l4 152q46 -17 109 -17q77 0 105 60t28 188v1415z" />
    <glyph glyph-name="K" unicode="K" horiz-adv-x="1185" 
d="M1171 1413l-538 -557l577 -856h-241l-469 709l-146 -148v-561h-198v1413h198v-602l576 602h241z" />
    <glyph glyph-name="L" unicode="L" horiz-adv-x="872" 
d="M354 170h498v-170h-696v1413h198v-1243z" />
    <glyph glyph-name="M" unicode="M" horiz-adv-x="1748" 
d="M1284 1413h244l129 -1413h-197l-92 1116h-6l-432 -1128h-113l-432 1128h-6l-90 -1116h-197l127 1413h246l407 -1091h5z" />
    <glyph glyph-name="N" unicode="N" horiz-adv-x="1515" 
d="M1163 1413h195v-1413h-195l-815 1126q4 -254 4 -374v-752h-196v1413h209l800 -1110q-2 117 -2 361v749z" />
    <glyph glyph-name="O" unicode="O" horiz-adv-x="1609" 
d="M1323 1233q211 -199 211 -528q0 -332 -211 -531t-518 -199t-518 199t-211 531q0 329 211 528q213 201 518 201t518 -201zM279 709q0 -251 151 -402t375 -151q226 0 375 149q151 151 151 404q0 250 -151 401q-152 152 -375 152t-375 -152q-151 -151 -151 -401z" />
    <glyph glyph-name="P" unicode="P" horiz-adv-x="1087" 
d="M1032 1010q0 -190 -137 -303q-116 -101 -342 -101h-199v-606h-198v1413h397q227 0 342 -100q137 -119 137 -303zM741 1196q-76 55 -204 55h-183v-483h183q127 0 204 53q86 65 86 189t-86 186z" />
    <glyph glyph-name="Q" unicode="Q" horiz-adv-x="1609" 
d="M1534 705q0 -316 -197 -519l156 -178l-129 -114l-162 186q-178 -105 -397 -105q-307 0 -518 199t-211 531q0 329 211 528q213 201 518 201t518 -201q211 -199 211 -528zM1331 709q0 250 -151 401q-152 152 -375 152t-375 -152q-151 -151 -151 -401q0 -251 151 -402
t375 -151q150 0 270 69l-119 135l129 115l121 -139q125 149 125 373z" />
    <glyph glyph-name="R" unicode="R" horiz-adv-x="1105" 
d="M711 629l403 -629h-240l-368 608h-152v-608h-198v1413h399q215 0 340 -98q137 -110 137 -299q0 -170 -96 -266q-98 -98 -225 -121zM827 1012q0 122 -90 188q-68 51 -237 51h-146v-479h146q167 0 237 49q90 69 90 191z" />
    <glyph glyph-name="S" unicode="S" horiz-adv-x="1093" 
d="M1020 393q0 -186 -148 -307q-135 -111 -346 -111q-171 0 -299 91q-55 41 -85 69.5t-72 77.5l116 133q66 -87 162 -145t197 -58q120 0 198 65.5t78 172.5q0 105 -92 162q-57 37 -67 41q-16 9 -70 30q-119 46 -225 95q-90 43 -142 100q-92 95 -92 246q0 164 129 272
q126 105 326 105q228 0 405 -183l-104 -135q-146 152 -311 152q-111 0 -178.5 -52.5t-67.5 -144.5t59 -145q41 -33 123 -70l260 -109q101 -46 160 -114q86 -109 86 -238z" />
    <glyph glyph-name="T" unicode="T" horiz-adv-x="1026" 
d="M14 1413h996v-166h-398v-1247h-198v1247h-400v166z" />
    <glyph glyph-name="U" unicode="U" 
d="M1022 1413h199v-835q0 -157 -24 -256t-89 -175q-150 -172 -424 -172q-277 0 -424 172q-65 77 -90 176t-25 255v835h201v-817q0 -90 2 -121q14 -134 64 -196q91 -125 272 -125q178 0 272 125q31 42 45 96q21 89 21 221v817z" />
    <glyph glyph-name="V" unicode="V" horiz-adv-x="1220" 
d="M612 287l398 1126h209l-521 -1415h-176l-520 1415h213z" />
    <glyph glyph-name="W" unicode="W" horiz-adv-x="1902" 
d="M1378 299l305 1114h209l-407 -1415h-195l-340 1143l-338 -1143h-194l-408 1415h209l305 -1114l326 1114h203z" />
    <glyph glyph-name="X" unicode="X" horiz-adv-x="1185" 
d="M1155 1413l-434 -684l469 -729h-240l-358 600l-356 -600h-238l467 729l-434 684h233l328 -551l330 551h233z" />
    <glyph glyph-name="Y" unicode="Y" horiz-adv-x="1177" 
d="M588 764l368 649h224l-492 -821v-592h-199v592l-491 821h223z" />
    <glyph glyph-name="Z" unicode="Z" horiz-adv-x="1159" 
d="M309 170h799v-170h-1047v152l773 1093h-750v168h1010v-135z" />
    <glyph glyph-name="bracketleft" unicode="[" horiz-adv-x="581" 
d="M276 -172h218v-115h-388v1846h388v-117h-218v-1614z" />
    <glyph glyph-name="backslash" unicode="\" horiz-adv-x="1056" 
d="M45 1571l123 57l846 -1638l-125 -60z" />
    <glyph glyph-name="bracketright" unicode="]" horiz-adv-x="581" 
d="M102 1559h387v-1846h-387v115h217v1614h-217v117z" />
    <glyph glyph-name="asciicircum" unicode="^" 
d="M598 1432h170l373 -818h-166l-291 650l-293 -650h-166z" />
    <glyph glyph-name="underscore" unicode="_" horiz-adv-x="1024" 
d="M0 76h1024v-154h-1024v154z" />
    <glyph glyph-name="grave" unicode="`" horiz-adv-x="686" 
d="M156 1413h192l182 -297h-149z" />
    <glyph glyph-name="a" unicode="a" horiz-adv-x="1007" 
d="M891 565v-565h-191l-2 123q-140 -146 -309 -146q-141 0 -239 82q-97 85 -97 220q0 137 100.5 212.5t280.5 83.5l260 11v39q0 105 -65 163t-176 58q-156 0 -293 -84l-60 131q171 98 365 98q211 0 321 -110q105 -108 105 -316zM696 258v209l-227 -14q-221 -12 -221 -168
q0 -74 54.5 -121t146.5 -47q153 0 247 141z" />
    <glyph glyph-name="b" unicode="b" horiz-adv-x="1222" 
d="M1153 487q0 -223 -131 -366q-129 -144 -342 -144q-221 0 -342 177h-4v-154h-189v1413h195v-592h4q120 170 340 170q212 0 340 -143q129 -141 129 -361zM868 242q84 101 84 247q0 150 -84 246t-225 96q-143 0 -227 -96t-84 -246q0 -146 84 -247q85 -97 227 -97
q140 0 225 97z" />
    <glyph glyph-name="c" unicode="c" horiz-adv-x="972" 
d="M848 238l33 30l69 -143q-82 -82 -182 -117q-95 -31 -207 -31q-202 0 -348 140q-143 140 -143 368q0 229 147 367q148 139 350 139q118 0 211 -37q93 -34 121 -59q32 -25 45 -43l-70 -143q-118 118 -290 118q-135 0 -226 -94q-90 -93 -90 -241q0 -154 88.5 -250.5
t229.5 -96.5q79 0 153 29t109 64z" />
    <glyph glyph-name="d" unicode="d" horiz-adv-x="1222" 
d="M883 1413h194v-1413h-188v156h-4q-120 -179 -342 -179q-212 0 -344 144q-129 144 -129 366q0 220 129 361q128 143 340 143q226 0 340 -170h4v592zM805 242q84 101 84 247q0 150 -84 246t-225 96q-144 0 -228 -96q-82 -94 -82 -246q0 -149 82 -247q85 -97 228 -97
q140 0 225 97z" />
    <glyph glyph-name="e" unicode="e" horiz-adv-x="1083" 
d="M1024 526l-6 -86h-750q7 -142 92.5 -225.5t221.5 -83.5q51 -1 100 9t86 26.5t63.5 31.5t47.5 30t24 16l82 -113l-8 -8q-19 -19 -45.5 -38t-78 -46.5t-129 -44.5t-167.5 -17q-215 0 -352 140q-135 138 -135 370q0 227 141 365q145 139 352 139q204 0 332 -131
q129 -129 129 -334zM270 571h568q-3 101 -76 189q-72 90 -205 90q-134 0 -207 -88q-74 -86 -80 -191z" />
    <glyph glyph-name="f" unicode="f" horiz-adv-x="561" 
d="M623 1419l16 -6l-12 -145q-55 18 -111 18q-84 0 -116.5 -51t-32.5 -156v-108h231v-158h-231v-813h-195v813h-139v158h139v98q0 176 66 260q85 107 233 107q99 0 152 -17z" />
    <glyph glyph-name="g" unicode="g" horiz-adv-x="1214" 
d="M883 973h194v-768q0 -296 -106 -420q-149 -186 -434 -186q-231 0 -435 145l93 137q50 -43 147 -82q103 -41 201 -41q184 0 266 107q74 89 74 272v49h-4q-116 -174 -340 -174q-195 0 -334 133q-135 132 -135 357q0 224 135 356q139 133 334 133q114 0 202.5 -47
t137.5 -125h6zM580 834q-140 0 -225 -93.5t-85 -238.5q0 -146 83.5 -238t226.5 -92t226 92t83 238t-83 239t-226 93z" />
    <glyph glyph-name="h" unicode="h" horiz-adv-x="1122" 
d="M991 580v-580h-196v551q0 116 -35 190q-39 88 -166 88q-124 0 -189 -94t-65 -254v-481h-195v1413h195v-594h4q43 78 121 125t178 47q189 0 268.5 -103t79.5 -308z" />
    <glyph glyph-name="i" unicode="i" horiz-adv-x="483" 
d="M242 1171q-57 0 -93 33.5t-36 87.5t36 87.5t93 33.5q56 0 91.5 -33.5t35.5 -87.5t-35.5 -87.5t-91.5 -33.5zM143 973h197v-973h-197v973z" />
    <glyph glyph-name="j" unicode="j" horiz-adv-x="483" 
d="M242 1171q-57 0 -93 33.5t-36 87.5t36 87.5t93 33.5q56 0 91.5 -33.5t35.5 -87.5t-35.5 -87.5t-91.5 -33.5zM143 973h197v-975q0 -194 -61 -279q-88 -120 -246 -120q-75 0 -111 12l-12 4l2 156q40 -15 92 -15q82 0 110.5 58t28.5 190v969z" />
    <glyph glyph-name="k" unicode="k" horiz-adv-x="997" 
d="M967 973l-381 -367l430 -606h-230l-333 471l-113 -106v-365h-195v1413h195v-829l397 389h230z" />
    <glyph glyph-name="l" unicode="l" horiz-adv-x="485" 
d="M145 1413h195v-1413h-195v1413z" />
    <glyph glyph-name="m" unicode="m" horiz-adv-x="1671" 
d="M1544 590v-590h-194v567q0 262 -179 262q-108 0 -170.5 -90t-62.5 -233v-506h-197v567q0 262 -176 262q-108 0 -170.5 -90t-62.5 -233v-506h-197v973h197l-2 -154h6q38 75 114 123.5t166 48.5q222 0 289 -192q101 192 309 192q330 0 330 -401z" />
    <glyph glyph-name="n" unicode="n" horiz-adv-x="1107" 
d="M981 575v-575h-197v543q0 150 -43 218t-159 68q-125 0 -187.5 -91t-62.5 -249v-489h-197v973h197l-2 -154h6q43 78 120.5 125t176.5 47q185 0 266.5 -106t81.5 -310z" />
    <glyph glyph-name="o" unicode="o" horiz-adv-x="1169" 
d="M586 -23q-221 0 -369 142q-147 141 -147 364q0 224 147 365q146 143 369 143q220 0 366 -143q148 -142 148 -365q0 -222 -148 -364t-366 -142zM815 244q86 100 86 245q0 149 -86 244q-85 98 -229 98t-232 -98q-86 -95 -86 -244q0 -145 86 -245q89 -99 232 -99
q144 0 229 99z" />
    <glyph glyph-name="p" unicode="p" horiz-adv-x="1220" 
d="M1151 487q0 -223 -131 -366q-129 -144 -342 -144q-222 0 -336 175l-2 2v-535h-197v1354h189v-154h4q129 172 346 172q212 0 340 -143q129 -141 129 -361zM866 242q84 101 84 247q0 150 -84 246t-225 96q-143 0 -227 -96q-82 -94 -82 -246q0 -149 82 -247q85 -97 227 -97
q140 0 225 97z" />
    <glyph glyph-name="q" unicode="q" horiz-adv-x="1212" 
d="M889 973h188v-1354h-194v533h-4q-114 -175 -336 -175q-212 0 -344 144q-129 144 -129 366q0 220 129 361q128 143 340 143q220 0 346 -172h6zM805 242q84 101 84 247q0 150 -84 246t-225 96q-144 0 -228 -96q-82 -94 -82 -246q0 -149 82 -247q85 -97 228 -97
q140 0 225 97z" />
    <glyph glyph-name="r" unicode="r" horiz-adv-x="686" 
d="M668 979l10 -4l-12 -182h-9q-44 20 -106 20q-96 0 -160 -82q-59 -86 -59 -246v-485h-197v973h197l-2 -150h6q70 168 239 168q61 0 93 -12z" />
    <glyph glyph-name="s" unicode="s" horiz-adv-x="847" 
d="M791 285q0 -140 -101 -222q-106 -86 -270 -86q-247 0 -379 175l94 114q52 -64 132 -101.5t155 -37.5q83 0 134.5 34.5t51.5 104.5q0 69 -86 113q-20 11 -47 20l-86 29q-110 38 -133 51q-154 77 -154 234q0 128 95 202q94 76 233 76q211 0 332 -127l-82 -121
q-102 105 -246 105q-73 0 -114 -31t-41 -90q0 -51 44.5 -82t145.5 -63l131 -47q73 -30 113 -70q78 -75 78 -180z" />
    <glyph glyph-name="t" unicode="t" horiz-adv-x="636" 
d="M584 162l12 6l12 -158q-73 -33 -178 -33q-140 0 -207 101q-49 73 -49 291v444h-143v158h143v291h197v-291h233v-158h-233v-440q0 -131 24 -178q27 -50 101 -50q54 0 88 17z" />
    <glyph glyph-name="u" unicode="u" horiz-adv-x="1097" 
d="M766 975h197v-975h-191l-2 139q-42 -74 -122 -118t-179 -44q-182 0 -270 113q-72 97 -72 301v584h195v-576q0 -127 45 -192.5t157 -65.5q117 0 179.5 86.5t62.5 225.5v522z" />
    <glyph glyph-name="v" unicode="v" horiz-adv-x="987" 
d="M496 240l286 733h203l-405 -973h-172l-406 973h205z" />
    <glyph glyph-name="w" unicode="w" horiz-adv-x="1558" 
d="M1114 238l225 735h199l-321 -973h-181l-256 727l-258 -727h-180l-322 973h199l225 -735l256 737h158z" />
    <glyph glyph-name="x" unicode="x" horiz-adv-x="1015" 
d="M975 973l-352 -461l395 -512h-221l-289 395l-289 -395h-221l395 512l-350 461h217l248 -350l248 350h219z" />
    <glyph glyph-name="y" unicode="y" horiz-adv-x="980" 
d="M496 217l286 758l203 -2l-469 -1143q-49 -121 -109.5 -173t-146.5 -52q-92 0 -162 26l-22 9l39 159q55 -22 102 -22q25 0 34.5 2t27.5 12q38 15 65 100l47 129l-389 955l205 -2z" />
    <glyph glyph-name="z" unicode="z" horiz-adv-x="933" 
d="M295 162h596v-162h-848v121l569 692h-540v158h790v-119z" />
    <glyph glyph-name="braceleft" unicode="{" horiz-adv-x="581" 
d="M459 -172h45v-115h-90q-146 0 -203 70t-57 235v373q0 170 -131 170v148q131 0 131 172v370q0 168 56.5 238t203.5 70h90v-117h-45q-77 0 -107 -30t-30 -105v-408q0 -125 -33.5 -179.5t-114.5 -80.5v-8q82 -26 115 -80t33 -178v-410q0 -75 30 -105t107 -30z" />
    <glyph glyph-name="bar" unicode="|" horiz-adv-x="581" 
d="M219 1638h143v-1882h-143v1882z" />
    <glyph glyph-name="braceright" unicode="}" horiz-adv-x="581" 
d="M557 709v-148q-129 0 -129 -170v-373q0 -165 -57 -235t-203 -70h-92v115h47q78 0 106.5 28.5t28.5 106.5v410q0 125 33.5 178.5t116.5 79.5v8q-83 26 -116.5 80.5t-33.5 179.5v408q0 78 -28.5 106.5t-106.5 28.5h-47v117h92q147 0 203.5 -70t56.5 -238v-370
q0 -172 129 -172z" />
    <glyph glyph-name="asciitilde" unicode="~" 
d="M1104 756l104 -101q-126 -206 -305 -206q-97 0 -244 75q-143 70 -200 70q-109 0 -197 -143l-104 100q127 207 305 207q98 0 244 -76q134 -70 200 -70q111 0 197 144z" />
    <glyph glyph-name="nbspace" unicode="&#xa0;" horiz-adv-x="407" 
 />
    <glyph glyph-name="exclamdown" unicode="&#xa1;" horiz-adv-x="616" 
d="M309 737q-61 0 -99 36t-38 93t38 93t99 36q60 0 97.5 -36t37.5 -93t-37.5 -93t-97.5 -36zM223 598h170l19 -1038h-205z" />
    <glyph glyph-name="cent" unicode="&#xa2;" horiz-adv-x="1200" 
d="M987 387l57 -139q-32 -37 -129 -82q-91 -42 -186 -45v-182h-121v184q-200 21 -325 158q-127 139 -127 344q0 203 127 342q128 140 325 161v183h121v-181q93 -6 181.5 -42.5t127.5 -79.5l-61 -144q-88 94 -248 109v-690q69 1 145 33t113 71zM608 291v676
q-118 -21 -190 -117q-72 -97 -72 -223q0 -129 70.5 -221t191.5 -115z" />
    <glyph glyph-name="sterling" unicode="&#xa3;" horiz-adv-x="1200" 
d="M551 158h549v-158h-973v158h240q29 47 50 125.5t21 138.5l-14 162h-236v131h213l-45 127q-47 133 -47 233q0 153 109 256t282 103q241 0 355 -170l-94 -113l-9 12q-18 22 -31.5 35.5t-44 37t-71.5 36t-90 12.5q-107 0 -164 -61.5t-57 -153.5q0 -104 51 -238l41 -116h307
v-131h-285q15 -82 15 -162q0 -60 -21.5 -138.5t-50.5 -125.5z" />
    <glyph glyph-name="currency" unicode="&#xa4;" horiz-adv-x="1200" 
d="M1038 289l6 6l82 -131l-8 -10q-9 -16 -26 -35.5t-51 -46t-75.5 -47t-103.5 -35.5t-131 -15q-204 0 -342.5 141.5t-179.5 393.5h-137v133l123 2q-2 27 -2 72v69h-121v134h139q34 223 176 368q140 146 348 146q200 0 361 -140l-68 -153q-106 133 -289 133
q-126 0 -211.5 -90t-111.5 -264h510v-134h-529v-69l2 -74h527v-133h-510q20 -171 107 -267t218 -96q164 0 297 142z" />
    <glyph glyph-name="yen" unicode="&#xa5;" horiz-adv-x="1200" 
d="M600 772l344 641h221l-352 -600h250v-133h-324l-41 -82v-70h365v-133h-365v-395h-196v395h-365v133h365v68l-39 84h-326v133h250l-352 600h223z" />
    <glyph glyph-name="brokenbar" unicode="&#xa6;" horiz-adv-x="581" 
d="M219 1638h143v-641h-143v641zM219 639h143v-639h-143v639z" />
    <glyph glyph-name="section" unicode="&#xa7;" horiz-adv-x="1251" 
d="M1055 514q0 -55 -20.5 -105.5t-51 -84t-59 -55t-52.5 -31.5l-20 -11q75 -40 124.5 -116.5t49.5 -173.5q0 -155 -119 -246q-118 -92 -289 -92q-311 0 -421 247l129 91q36 -91 117 -143t182 -52q100 0 158.5 48.5t58.5 137.5q0 80 -54 130t-186 110l-176 82
q-203 95 -203 299q0 55 17.5 103.5t42.5 80.5t56 58t53.5 38.5t39.5 18.5q-2 0 -16 9.5t-35.5 31.5t-42.5 51.5t-36.5 74.5t-16.5 95q0 148 104 236q107 88 268 88q282 0 396 -217l-111 -97q-92 176 -278 176q-92 0 -145.5 -45.5t-53.5 -128.5q0 -71 53 -120t178 -107
l142 -64q217 -102 217 -317zM885 500q0 124 -137 188l-211 92q-146 -50 -146 -209q0 -115 135 -186l211 -92q148 53 148 207z" />
    <glyph glyph-name="dieresis" unicode="&#xa8;" horiz-adv-x="686" 
d="M608 1264q0 -47 -31.5 -78t-76.5 -31t-76 31t-31 78q0 49 31 79.5t76 30.5t76.5 -31t31.5 -79zM293 1264q0 -47 -31 -78t-76 -31t-76.5 31t-31.5 78q0 48 31.5 79t76.5 31t76 -30.5t31 -79.5z" />
    <glyph glyph-name="copyright" unicode="&#xa9;" horiz-adv-x="1611" 
d="M807 -23q-307 0 -518 211t-211 519q0 307 211 518t518 211q305 0 516 -211q213 -213 213 -518q0 -306 -213 -519q-211 -211 -516 -211zM1253 258q187 187 187 449t-187 446q-183 186 -446 186t-449 -186q-184 -184 -184 -446t184 -449q187 -184 449 -184t446 184z
M1092 492l63 -91q-46 -55 -129 -92t-188 -37q-182 0 -306 121q-122 122 -122 314t122 311q123 123 306 123q205 0 309 -119l-66 -98q-34 42 -98 72t-141 30q-128 0 -211.5 -85t-83.5 -230q0 -147 82 -232.5t213 -85.5q148 0 250 99z" />
    <glyph glyph-name="ordfeminine" unicode="&#xaa;" horiz-adv-x="718" 
d="M612 719v-334h-141l-2 74q-29 -34 -82 -59t-111 -25q-89 0 -151 49.5t-62 136.5q0 169 238 178l166 6v13q0 62 -40 95.5t-108 33.5q-52 0 -105.5 -17t-74.5 -36l-47 92q103 65 240 65q144 0 213 -69q67 -64 67 -203zM467 541v121l-135 -5q-117 -9 -117 -90q0 -94 115 -94
q43 0 82 22t55 46z" />
    <glyph glyph-name="guillemotleft" unicode="&#xab;" horiz-adv-x="1001" 
d="M864 813l-243 -326l243 -329l-108 -76l-303 405l303 406zM522 813l-241 -326l243 -329l-108 -76l-305 405l305 406z" />
    <glyph glyph-name="logicalnot" unicode="&#xac;" horiz-adv-x="1370" 
d="M147 954h1072v-612h-152v461h-920v151z" />
    <glyph glyph-name="uni00AD" unicode="&#xad;" horiz-adv-x="598" 
d="M51 643h496v-164h-496v164z" />
    <glyph glyph-name="registered" unicode="&#xae;" horiz-adv-x="1611" 
d="M807 -23q-307 0 -518 211t-211 519q0 307 211 518t518 211q305 0 516 -211q213 -213 213 -518q0 -306 -213 -519q-211 -211 -516 -211zM1253 258q187 187 187 449t-187 446q-183 186 -446 186t-449 -186q-184 -184 -184 -446t184 -449q187 -184 449 -184t446 184z
M909 649l228 -364h-158l-203 350h-104v-350h-131v843l290 -2q113 0 189 -66.5t76 -176.5q0 -99 -52.5 -157t-134.5 -77zM784 1018h-112v-275h112q177 0 177 138q0 137 -177 137z" />
    <glyph glyph-name="overscore" unicode="&#xaf;" horiz-adv-x="686" 
d="M78 1325h530v-113h-530v113z" />
    <glyph glyph-name="degree" unicode="&#xb0;" horiz-adv-x="843" 
d="M737 1196q0 -134 -92 -223q-91 -88 -223 -88t-223 88q-93 90 -93 223q0 129 93 219t223 90t223 -90q92 -89 92 -219zM563 1055q60 60 60 141.5t-60 138.5q-57 60 -141 60t-141 -60q-57 -57 -57 -138.5t57 -141.5t141 -60t141 60z" />
    <glyph glyph-name="plusminus" unicode="&#xb1;" 
d="M760 961h459v-150h-459v-399h-154v399h-459v150h459v399h154v-399zM147 326h1072v-150h-1072v150z" />
    <glyph glyph-name="twosuperior" unicode="&#xb2;" horiz-adv-x="776" 
d="M279 715h421v-123h-606l-10 106l324 316q75 75 103 120t28 97q0 62 -45.5 99.5t-122.5 37.5q-147 0 -203 -156l-94 60q12 93 97 156t210 63q133 0 218 -69.5t85 -178.5q0 -39 -18 -100q-4 -11 -13.5 -27t-22.5 -35.5t-14 -21.5q-11 -22 -61 -72l-35 -35l-31 -28z" />
    <glyph glyph-name="threesuperior" unicode="&#xb3;" horiz-adv-x="776" 
d="M709 846q0 -118 -93 -193q-92 -71 -223 -71q-116 0 -196.5 49.5t-112.5 142.5l98 64q23 -63 77 -99.5t126 -36.5q75 0 126.5 40.5t51.5 105.5q0 68 -49.5 108.5t-128.5 42.5h-51v115h59q64 2 107 39.5t43 97.5q0 54 -41.5 88.5t-108.5 34.5q-131 0 -190 -121l-82 70
q33 77 106.5 122.5t171.5 45.5q119 0 203 -66t84 -165q0 -142 -143 -197v-4q74 -20 120 -79t46 -134z" />
    <glyph glyph-name="acute" unicode="&#xb4;" horiz-adv-x="686" 
d="M156 1116l182 297h192l-225 -297h-149z" />
    <glyph glyph-name="mu" unicode="&#xb5;" horiz-adv-x="1107" 
d="M776 971h197v-971h-191l-2 131q-35 -53 -112 -100q-74 -45 -160 -45q-66 0 -116 22.5t-68 54.5l4 -444h-193v1352h195v-549q0 -137 47.5 -207t159.5 -70q120 0 179.5 75t59.5 210v541z" />
    <glyph glyph-name="paragraph" unicode="&#xb6;" horiz-adv-x="1230" 
d="M565 1413h549v-141h-106v-1653h-148v1653h-186v-1653h-150v948q-193 5 -306.5 116t-113.5 308q0 204 119.5 313t341.5 109z" />
    <glyph glyph-name="middot" unicode="&#xb7;" horiz-adv-x="694" 
d="M442 684q38 -35 38 -92t-38 -94q-37 -35 -96 -35t-96 35q-37 37 -37 94t37 92t96 35t96 -35z" />
    <glyph glyph-name="cedilla" unicode="&#xb8;" horiz-adv-x="716" 
d="M186 -299l207 299h137l-165 -299h-179z" />
    <glyph glyph-name="onesuperior" unicode="&#xb9;" horiz-adv-x="776" 
d="M217 1470h318v-880h-148v770h-170v110z" />
    <glyph glyph-name="ordmasculine" unicode="&#xba;" horiz-adv-x="806" 
d="M723 682q0 -132 -92 -221q-89 -86 -228 -86q-137 0 -229 86q-90 90 -90 221q0 134 90 221q91 88 229 88q140 0 228 -88q92 -86 92 -221zM575 688q0 84 -49 135t-123 51q-76 0 -125 -50t-49 -136t49.5 -139t124.5 -53q74 0 123 53t49 139z" />
    <glyph glyph-name="guillemotright" unicode="&#xbb;" horiz-adv-x="1001" 
d="M477 815l109 78l303 -406l-303 -405l-107 78l242 327zM135 815l109 78l305 -406l-305 -405l-107 78l242 327z" />
    <glyph glyph-name="onequarter" unicode="&#xbc;" horiz-adv-x="1822" 
d="M1544 299h129v-119h-129v-180h-145v180h-463v90l471 625h137v-596zM311 14l875 1432l102 -62l-874 -1431zM137 1413h320v-819h-148v709h-172v110zM1399 711l-301 -412h301v412z" />
    <glyph glyph-name="onehalf" unicode="&#xbd;" horiz-adv-x="1824" 
d="M1284 125h416v-125h-600l-21 94l295 277q148 139 148 233q0 67 -45 107.5t-117 40.5q-118 0 -205 -140l-82 86q89 179 305 179q121 0 205 -72t84 -178q0 -69 -33 -131q-27 -58 -61 -97q-32 -35 -86 -84zM303 14l875 1432l102 -62l-874 -1431zM133 1413h320v-850h-148v740
h-172v110z" />
    <glyph glyph-name="threequarters" unicode="&#xbe;" horiz-adv-x="1822" 
d="M1544 299h129v-119h-129v-180h-145v180h-463v90l471 625h137v-596zM709 846q0 -118 -93 -193q-92 -71 -223 -71q-116 0 -196.5 49.5t-112.5 142.5l98 64q23 -63 77 -99.5t126 -36.5q75 0 126.5 40.5t51.5 105.5q0 68 -49.5 108.5t-128.5 42.5h-51v115h59q64 2 107 39.5
t43 97.5q0 54 -41.5 88.5t-108.5 34.5q-131 0 -190 -121l-82 70q33 77 106.5 122.5t171.5 45.5q119 0 203 -66t84 -165q0 -142 -143 -197v-4q74 -20 120 -79t46 -134zM401 14l875 1432l102 -62l-874 -1431zM1399 711l-301 -412h301v412z" />
    <glyph glyph-name="questiondown" unicode="&#xbf;" horiz-adv-x="1007" 
d="M545 735q-61 0 -99 36t-38 93t38 93t99 36q60 0 97.5 -36t37.5 -93t-37.5 -93t-97.5 -36zM801 -147l88 -123q-114 -191 -385 -191q-173 0 -281 99q-106 97 -106 235q0 81 26 143q17 42 39 75t38 50t65 64q59 59 96 88q38 38 61 82q15 41 15 78l4 143h166l4 -145
q3 -72 -23 -138q-16 -39 -34 -66t-33.5 -42.5t-53.5 -50.5l-118 -111q-66 -60 -66 -149q0 -87 63 -139t166 -52q180 0 269 150z" />
    <glyph glyph-name="Agrave" unicode="&#xc0;" horiz-adv-x="1331" 
d="M578 1417h174l577 -1417h-221l-145 369h-607l-145 -369h-209zM659 1169l-247 -634h495zM371 1817h192l182 -297h-149z" />
    <glyph glyph-name="Aacute" unicode="&#xc1;" horiz-adv-x="1331" 
d="M578 1417h174l577 -1417h-221l-145 369h-607l-145 -369h-209zM659 1169l-247 -634h495zM586 1520l182 297h193l-226 -297h-149z" />
    <glyph glyph-name="Acircumflex" unicode="&#xc2;" horiz-adv-x="1331" 
d="M586 1817h159l189 -297h-143l-125 202l-125 -202h-144zM578 1417h174l577 -1417h-221l-145 369h-607l-145 -369h-209zM659 1169l-247 -634h495z" />
    <glyph glyph-name="Atilde" unicode="&#xc3;" horiz-adv-x="1331" 
d="M889 1767l96 -20q-6 -81 -60.5 -134.5t-127.5 -53.5q-18 0 -35.5 2.5t-30 6t-27 9.5t-21.5 9.5t-18.5 10t-13.5 7.5l-26 16q-26 15 -52.5 26t-42.5 7q-32 0 -57 -25t-31 -61l-96 20q4 80 60 134.5t129 54.5q18 0 35.5 -2.5t30 -6t26.5 -9.5t21.5 -10t18.5 -10t13 -7
l26 -15q25 -16 52 -27.5t43 -7.5q32 0 57 25t31 61zM578 1417h174l577 -1417h-221l-145 369h-607l-145 -369h-209zM659 1169l-247 -634h495z" />
    <glyph glyph-name="Adieresis" unicode="&#xc4;" horiz-adv-x="1331" 
d="M930 1661q0 -48 -32 -79.5t-77 -31.5t-75.5 31t-30.5 80q-5 67 51 94.5t112 -0.5t52 -94zM616 1661q0 -49 -30.5 -80t-75.5 -31t-77 31.5t-32 79.5q0 46 32 77t77 31t75.5 -30.5t30.5 -77.5zM578 1417h174l577 -1417h-221l-145 369h-607l-145 -369h-209zM659 1169
l-247 -634h495z" />
    <glyph glyph-name="Aring" unicode="&#xc5;" horiz-adv-x="1331" 
d="M811 1823q59 -56 59 -140q0 -83 -59 -139q-60 -56 -145.5 -56t-145.5 56q-59 56 -59 139q0 84 59 140q60 55 145.5 55t145.5 -55zM578 1417h174l577 -1417h-221l-145 369h-607l-145 -369h-209zM772 1683q0 45 -30 76t-76 31q-47 0 -77 -31t-30 -76q0 -47 31 -77.5
t76 -30.5t75.5 30.5t30.5 77.5zM659 1169l-247 -634h495z" />
    <glyph glyph-name="AE" unicode="&#xc6;" horiz-adv-x="1800" 
d="M1124 168h588v-168h-786v373h-539l-225 -373h-223l888 1413h869v-166h-572v-413h537v-166h-537v-500zM922 1251l-435 -714h439v714h-4z" />
    <glyph glyph-name="Ccedilla" unicode="&#xc7;" horiz-adv-x="1361" 
d="M1229 330l86 -146q-177 -198 -475 -207l-131 -284h-201l170 293q-244 30 -424 219q-178 187 -178 500q0 325 207 526q206 203 516 203q311 0 501 -187l-83 -160q-49 64 -164 117q-115 56 -246 56q-231 0 -379 -154q-147 -150 -147 -397t147 -400q151 -151 379 -151
q266 0 422 172z" />
    <glyph glyph-name="Egrave" unicode="&#xc8;" horiz-adv-x="1087" 
d="M309 1817h193l180 -297h-147zM354 168h645v-168h-843v1413h827v-166h-629v-422h594v-166h-594v-491z" />
    <glyph glyph-name="Eacute" unicode="&#xc9;" horiz-adv-x="1087" 
d="M432 1520l182 297h191l-225 -297h-148zM354 168h645v-168h-843v1413h827v-166h-629v-422h594v-166h-594v-491z" />
    <glyph glyph-name="Ecircumflex" unicode="&#xca;" horiz-adv-x="1087" 
d="M489 1817h160l189 -297h-144l-125 202l-125 -202h-143zM354 168h645v-168h-843v1413h827v-166h-629v-422h594v-166h-594v-491z" />
    <glyph glyph-name="Edieresis" unicode="&#xcb;" horiz-adv-x="1087" 
d="M618 1661q-4 66 52.5 94t112.5 0.5t51 -94.5q0 -49 -31 -80t-76 -31t-77 31.5t-32 79.5zM305 1661q-4 66 52 94t112 0.5t51 -94.5q0 -49 -30.5 -80t-75.5 -31t-77 31.5t-32 79.5zM354 168h645v-168h-843v1413h827v-166h-629v-422h594v-166h-594v-491z" />
    <glyph glyph-name="Igrave" unicode="&#xcc;" horiz-adv-x="509" 
d="M156 1413h198v-1413h-198v1413zM-20 1817h192l182 -297h-149z" />
    <glyph glyph-name="Iacute" unicode="&#xcd;" horiz-adv-x="509" 
d="M158 1520l182 297h190l-225 -297h-147zM156 1413h198v-1413h-198v1413z" />
    <glyph glyph-name="Icircumflex" unicode="&#xce;" horiz-adv-x="509" 
d="M174 1817h162l186 -297h-143l-123 202l-125 -202h-143zM156 1413h198v-1413h-198v1413z" />
    <glyph glyph-name="Idieresis" unicode="&#xcf;" horiz-adv-x="509" 
d="M520 1667q0 -47 -31.5 -77.5t-76.5 -30.5t-76 30.5t-31 77.5q0 49 31 80t76 31t76.5 -31t31.5 -80zM207 1667q4 -66 -52 -94t-112 -0.5t-51 94.5q0 49 30.5 80t75.5 31t77 -31.5t32 -79.5zM156 1413h198v-1413h-198v1413z" />
    <glyph glyph-name="Eth" unicode="&#xd0;" horiz-adv-x="1404" 
d="M1110 184q-199 -184 -528 -184h-426v666h-133v147h133v600h426q329 0 528 -184q219 -201 219 -522q0 -322 -219 -523zM1126 707q0 247 -168 405q-137 131 -376 131h-228v-430h359v-145h-359v-496h228q239 0 376 131q168 158 168 404z" />
    <glyph glyph-name="Ntilde" unicode="&#xd1;" horiz-adv-x="1515" 
d="M981 1767l96 -20q-6 -81 -60.5 -134.5t-127.5 -53.5q-18 0 -35.5 2.5t-30 6t-27 9.5t-21.5 9.5t-18.5 10t-13.5 7.5l-25 16q-26 15 -52.5 26t-42.5 7q-70 0 -91 -86l-94 20q4 81 59 135t128 54q64 0 131 -37q12 -5 43 -27q60 -31 92 -31q35 0 59.5 24t30.5 62zM1163 1413
h195v-1413h-195l-815 1126q4 -254 4 -374v-752h-196v1413h209l800 -1110q-2 117 -2 361v749z" />
    <glyph glyph-name="Ograve" unicode="&#xd2;" horiz-adv-x="1609" 
d="M506 1817h192l181 -297h-148zM1323 1233q211 -199 211 -528q0 -332 -211 -531t-518 -199t-518 199t-211 531q0 329 211 528q213 201 518 201t518 -201zM279 709q0 -251 151 -402t375 -151q226 0 375 149q151 151 151 404q0 250 -151 401q-152 152 -375 152t-375 -152
q-151 -151 -151 -401z" />
    <glyph glyph-name="Oacute" unicode="&#xd3;" horiz-adv-x="1609" 
d="M731 1520l182 297h191l-225 -297h-148zM1323 1233q211 -199 211 -528q0 -332 -211 -531t-518 -199t-518 199t-211 531q0 329 211 528q213 201 518 201t518 -201zM279 709q0 -251 151 -402t375 -151q226 0 375 149q151 151 151 404q0 250 -151 401q-152 152 -375 152
t-375 -152q-151 -151 -151 -401z" />
    <glyph glyph-name="Ocircumflex" unicode="&#xd4;" horiz-adv-x="1609" 
d="M725 1817h160l188 -297h-143l-125 202l-125 -202h-143zM1323 1233q211 -199 211 -528q0 -332 -211 -531t-518 -199t-518 199t-211 531q0 329 211 528q213 201 518 201t518 -201zM279 709q0 -251 151 -402t375 -151q226 0 375 149q151 151 151 404q0 250 -151 401
q-152 152 -375 152t-375 -152q-151 -151 -151 -401z" />
    <glyph glyph-name="Otilde" unicode="&#xd5;" horiz-adv-x="1609" 
d="M1028 1767l96 -20q-4 -80 -59.5 -134t-128.5 -54q-18 0 -35.5 2.5t-30 6t-26.5 9.5t-21.5 10t-18.5 10t-13 7l-26 16q-26 15 -52.5 26t-42.5 7q-32 0 -57 -25t-31 -61l-97 20q6 81 61 135t128 54q18 0 35.5 -2.5t30 -6t26.5 -9.5t21.5 -10t18.5 -10t13 -7l25 -15
q26 -16 53 -27.5t43 -7.5q32 0 57 25t31 61zM1323 1233q211 -199 211 -528q0 -332 -211 -531t-518 -199t-518 199t-211 531q0 329 211 528q213 201 518 201t518 -201zM279 709q0 -251 151 -402t375 -151q226 0 375 149q151 151 151 404q0 250 -151 401q-152 152 -375 152
t-375 -152q-151 -151 -151 -401z" />
    <glyph glyph-name="Odieresis" unicode="&#xd6;" horiz-adv-x="1609" 
d="M1069 1661q0 -49 -30.5 -80t-75.5 -31t-77 31.5t-32 79.5q0 46 32 77t77 31t75.5 -30.5t30.5 -77.5zM756 1661q0 -49 -31 -80t-76 -31t-76.5 31t-31.5 80q0 47 31.5 77.5t76.5 30.5t76 -30.5t31 -77.5zM1323 1233q211 -199 211 -528q0 -332 -211 -531t-518 -199t-518 199
t-211 531q0 329 211 528q213 201 518 201t518 -201zM279 709q0 -251 151 -402t375 -151q226 0 375 149q151 151 151 404q0 250 -151 401q-152 152 -375 152t-375 -152q-151 -151 -151 -401z" />
    <glyph glyph-name="multiply" unicode="&#xd7;" 
d="M1202 1114l-409 -409l409 -410l-106 -111l-412 412l-414 -412l-104 111l409 410l-409 409l104 111l414 -412l412 412z" />
    <glyph glyph-name="Oslash" unicode="&#xd8;" horiz-adv-x="1609" 
d="M1534 705q0 -332 -211 -531q-208 -199 -518 -199q-271 0 -467 156l-160 -164l-98 99l158 161q-162 192 -162 478q0 329 211 528q213 201 518 201q271 0 469 -154l162 166l98 -98l-162 -166q162 -189 162 -477zM379 371l764 776q-145 115 -338 115q-223 0 -375 -152
q-151 -151 -151 -401q0 -203 100 -338zM1331 709q0 192 -96 335l-762 -776q141 -112 332 -112q226 0 375 149q151 151 151 404z" />
    <glyph glyph-name="Ugrave" unicode="&#xd9;" 
d="M1022 1413h199v-835q0 -157 -24 -256t-89 -175q-150 -172 -424 -172q-277 0 -424 172q-65 77 -90 176t-25 255v835h201v-817q0 -90 2 -121q14 -134 64 -196q91 -125 272 -125q178 0 272 125q31 42 45 96q21 89 21 221v817zM422 1817h192l183 -297h-150z" />
    <glyph glyph-name="Uacute" unicode="&#xda;" 
d="M571 1520l181 297h192l-225 -297h-148zM1022 1413h199v-835q0 -157 -24 -256t-89 -175q-150 -172 -424 -172q-277 0 -424 172q-65 77 -90 176t-25 255v835h201v-817q0 -90 2 -121q14 -134 64 -196q91 -125 272 -125q178 0 272 125q31 42 45 96q21 89 21 221v817z" />
    <glyph glyph-name="Ucircumflex" unicode="&#xdb;" 
d="M602 1817h162l186 -297h-143l-123 202l-125 -202h-143zM1022 1413h199v-835q0 -157 -24 -256t-89 -175q-150 -172 -424 -172q-277 0 -424 172q-65 77 -90 176t-25 255v835h201v-817q0 -90 2 -121q14 -134 64 -196q91 -125 272 -125q178 0 272 125q31 42 45 96
q21 89 21 221v817z" />
    <glyph glyph-name="Udieresis" unicode="&#xdc;" 
d="M948 1661q0 -49 -31.5 -80t-76.5 -31t-76 31t-31 80q0 47 31 77.5t76 30.5t76.5 -30.5t31.5 -77.5zM635 1661q0 -48 -32 -79.5t-77 -31.5t-75.5 31t-30.5 80q-5 67 51 94.5t112 -0.5t52 -94zM1022 1413h199v-835q0 -157 -24 -256t-89 -175q-150 -172 -424 -172
q-277 0 -424 172q-65 77 -90 176t-25 255v835h201v-817q0 -90 2 -121q14 -134 64 -196q91 -125 272 -125q178 0 272 125q31 42 45 96q21 89 21 221v817z" />
    <glyph glyph-name="Yacute" unicode="&#xdd;" horiz-adv-x="1177" 
d="M475 1520l182 297h191l-225 -297h-148zM588 764l368 649h224l-492 -821v-592h-199v592l-491 821h223z" />
    <glyph glyph-name="Thorn" unicode="&#xde;" horiz-adv-x="1079" 
d="M1014 743q0 -186 -135 -303q-118 -100 -344 -100h-181v-340h-198v1413h198v-266h181q226 0 344 -100q135 -120 135 -304zM809 743q0 129 -88 187q-73 55 -205 55h-162v-485h162q129 0 205 55q88 64 88 188z" />
    <glyph glyph-name="germandbls" unicode="&#xdf;" horiz-adv-x="1144" 
d="M1075 424q0 -201 -137 -320q-133 -118 -363 -118l-116 12l12 154q49 -11 96 -11q127 0 219 74q93 75 93 217q0 145 -89.5 224t-244.5 79h-62v150h58q105 0 162 56t57 157q0 89 -62 140.5t-151 51.5q-109 0 -166 -78q-41 -65 -41 -206v-1006h-195v915q0 205 31 287
q40 101 123 160q104 72 264 72q169 0 273 -93q104 -88 104 -223q0 -119 -63 -194q-64 -79 -127 -88v-5q134 -21 227 -131q98 -107 98 -276z" />
    <glyph glyph-name="agrave" unicode="&#xe0;" horiz-adv-x="1007" 
d="M219 1413h193l180 -297h-148zM891 565v-565h-191l-2 123q-140 -146 -309 -146q-141 0 -239 82q-97 85 -97 220q0 137 100.5 212.5t280.5 83.5l260 11v39q0 105 -65 163t-176 58q-156 0 -293 -84l-60 131q171 98 365 98q211 0 321 -110q105 -108 105 -316zM696 258v209
l-227 -14q-221 -12 -221 -168q0 -74 54.5 -121t146.5 -47q153 0 247 141z" />
    <glyph glyph-name="aacute" unicode="&#xe1;" horiz-adv-x="1007" 
d="M358 1116l183 297h190l-225 -297h-148zM891 565v-565h-191l-2 123q-140 -146 -309 -146q-141 0 -239 82q-97 85 -97 220q0 137 100.5 212.5t280.5 83.5l260 11v39q0 105 -65 163t-176 58q-156 0 -293 -84l-60 131q171 98 365 98q211 0 321 -110q105 -108 105 -316z
M696 258v209l-227 -14q-221 -12 -221 -168q0 -74 54.5 -121t146.5 -47q153 0 247 141z" />
    <glyph glyph-name="acircumflex" unicode="&#xe2;" horiz-adv-x="1007" 
d="M891 565v-565h-191l-2 123q-140 -146 -309 -146q-141 0 -239 82q-97 85 -97 220q0 137 100.5 212.5t280.5 83.5l260 11v39q0 105 -65 163t-176 58q-156 0 -293 -84l-60 131q171 98 365 98q211 0 321 -110q105 -108 105 -316zM696 258v209l-227 -14q-221 -12 -221 -168
q0 -74 54.5 -121t146.5 -47q153 0 247 141zM399 1413h162l187 -297h-144l-125 205l-123 -205h-143z" />
    <glyph glyph-name="atilde" unicode="&#xe3;" horiz-adv-x="1007" 
d="M733 1370l96 -20q-6 -81 -60.5 -135t-127.5 -54q-21 0 -42 4t-32.5 8.5t-30.5 12.5t-24 10l-39 23q-61 38 -98 38q-34 0 -58 -24.5t-32 -63.5l-97 21q6 81 61 135.5t128 54.5q28 0 54 -6.5t38 -12t35 -18.5l20 -10l51 -30q38 -19 68 -19q35 0 59.5 24t30.5 62zM891 565
v-565h-191l-2 123q-140 -146 -309 -146q-141 0 -239 82q-97 85 -97 220q0 137 100.5 212.5t280.5 83.5l260 11v39q0 105 -65 163t-176 58q-156 0 -293 -84l-60 131q171 98 365 98q211 0 321 -110q105 -108 105 -316zM696 258v209l-227 -14q-221 -12 -221 -168
q0 -74 54.5 -121t146.5 -47q153 0 247 141z" />
    <glyph glyph-name="adieresis" unicode="&#xe4;" horiz-adv-x="1007" 
d="M741 1264q0 -47 -31.5 -78t-76.5 -31t-76 31t-31 78q0 49 31 79.5t76 30.5t76.5 -31t31.5 -79zM213 1264q0 48 32 79t77 31t75.5 -30.5t30.5 -79.5q5 -67 -51 -94.5t-112 0.5t-52 94zM891 565v-565h-191l-2 123q-140 -146 -309 -146q-141 0 -239 82q-97 85 -97 220
q0 137 100.5 212.5t280.5 83.5l260 11v39q0 105 -65 163t-176 58q-156 0 -293 -84l-60 131q171 98 365 98q211 0 321 -110q105 -108 105 -316zM696 258v209l-227 -14q-221 -12 -221 -168q0 -74 54.5 -121t146.5 -47q153 0 247 141z" />
    <glyph glyph-name="aring" unicode="&#xe5;" horiz-adv-x="1007" 
d="M623 1444q59 -56 59 -139q0 -84 -59 -140q-58 -55 -144 -55q-87 0 -145 55q-60 57 -60 140q0 82 60 139q58 55 145 55q86 0 144 -55zM891 565v-565h-191l-2 123q-140 -146 -309 -146q-141 0 -239 82q-97 85 -97 220q0 137 100.5 212.5t280.5 83.5l260 11v39
q0 105 -65 163t-176 58q-156 0 -293 -84l-60 131q171 98 365 98q211 0 321 -110q105 -108 105 -316zM479 1411q-65 5 -92.5 -51t0 -112t92.5 -52q64 -4 90 52t0 112t-90 51zM696 258v209l-227 -14q-221 -12 -221 -168q0 -74 54.5 -121t146.5 -47q153 0 247 141z" />
    <glyph glyph-name="ae" unicode="&#xe6;" horiz-adv-x="1703" 
d="M1642 526l-4 -86h-751q7 -142 92.5 -225.5t222.5 -83.5q51 -1 97.5 8t88.5 28t60 29.5t51 30.5l25 17l82 -113l-13 -12q-166 -142 -415 -142q-245 0 -390 189l-6 8q-85 -102 -175 -149.5t-216 -47.5q-147 0 -241 82q-97 85 -97 220q0 138 102 214t283 82l256 11v41
q0 104 -64.5 161.5t-176.5 57.5q-156 0 -293 -84l-60 131q171 98 365 98q189 0 283 -88q51 -48 63 -80l6 -10q123 178 367 178q204 0 329 -131q129 -132 129 -334zM891 571h565q0 100 -74 189q-72 90 -204 90q-136 0 -209 -88q-75 -90 -78 -191zM725 281q-31 79 -31 186
l-225 -14q-221 -9 -221 -168q0 -74 53.5 -121t144.5 -47q94 0 168 51q82 54 111 113z" />
    <glyph glyph-name="ccedilla" unicode="&#xe7;" horiz-adv-x="972" 
d="M848 238l33 30l69 -143l-24 -24t-38.5 -30t-61.5 -37.5t-81 -29t-110 -22.5l-152 -279h-192l194 281q-177 24 -297 159q-118 136 -118 342q0 229 147 367q148 139 350 139q118 0 211 -37q93 -34 121 -59q32 -25 45 -43l-70 -143q-118 118 -290 118q-135 0 -226 -94
q-90 -93 -90 -241q0 -154 88.5 -250.5t229.5 -96.5q79 0 153 29t109 64z" />
    <glyph glyph-name="egrave" unicode="&#xe8;" horiz-adv-x="1083" 
d="M1024 526l-6 -86h-750q7 -142 92.5 -225.5t221.5 -83.5q51 -1 100 9t86 26.5t63.5 31.5t47.5 30t24 16l82 -113l-8 -8q-19 -19 -45.5 -38t-78 -46.5t-129 -44.5t-167.5 -17q-215 0 -352 140q-135 138 -135 370q0 227 141 365q145 139 352 139q204 0 332 -131
q129 -129 129 -334zM270 571h568q-3 101 -76 189q-72 90 -205 90q-134 0 -207 -88q-74 -86 -80 -191zM299 1413h193l182 -297h-150z" />
    <glyph glyph-name="eacute" unicode="&#xe9;" horiz-adv-x="1083" 
d="M1024 526l-6 -86h-750q7 -142 92.5 -225.5t221.5 -83.5q51 -1 100 9t86 26.5t63.5 31.5t47.5 30t24 16l82 -113l-8 -8q-19 -19 -45.5 -38t-78 -46.5t-129 -44.5t-167.5 -17q-215 0 -352 140q-135 138 -135 370q0 227 141 365q145 139 352 139q204 0 332 -131
q129 -129 129 -334zM270 571h568q-3 101 -76 189q-72 90 -205 90q-134 0 -207 -88q-74 -86 -80 -191zM446 1116l183 297h192l-225 -297h-150z" />
    <glyph glyph-name="ecircumflex" unicode="&#xea;" horiz-adv-x="1083" 
d="M479 1413h162l186 -297h-143l-123 205l-125 -205h-143zM1024 526l-6 -86h-750q7 -142 92.5 -225.5t221.5 -83.5q51 -1 100 9t86 26.5t63.5 31.5t47.5 30t24 16l82 -113l-8 -8q-19 -19 -45.5 -38t-78 -46.5t-129 -44.5t-167.5 -17q-215 0 -352 140q-135 138 -135 370
q0 227 141 365q145 139 352 139q204 0 332 -131q129 -129 129 -334zM270 571h568q-3 101 -76 189q-72 90 -205 90q-134 0 -207 -88q-74 -86 -80 -191z" />
    <glyph glyph-name="edieresis" unicode="&#xeb;" horiz-adv-x="1083" 
d="M827 1264q0 -47 -31.5 -78t-76.5 -31t-76 31t-31 78q0 49 31 79.5t76 30.5t76.5 -31t31.5 -79zM299 1264q0 48 32 79t77 31t75.5 -30.5t30.5 -79.5q5 -67 -51 -94.5t-112 0.5t-52 94zM1024 526l-6 -86h-750q7 -142 92.5 -225.5t221.5 -83.5q51 -1 100 9t86 26.5
t63.5 31.5t47.5 30t24 16l82 -113l-8 -8q-19 -19 -45.5 -38t-78 -46.5t-129 -44.5t-167.5 -17q-215 0 -352 140q-135 138 -135 370q0 227 141 365q145 139 352 139q204 0 332 -131q129 -129 129 -334zM270 571h568q-3 101 -76 189q-72 90 -205 90q-134 0 -207 -88
q-74 -86 -80 -191z" />
    <glyph glyph-name="igrave" unicode="&#xec;" horiz-adv-x="483" 
d="M143 973h197v-973h-197v973zM-35 1413h193l182 -297h-150z" />
    <glyph glyph-name="iacute" unicode="&#xed;" horiz-adv-x="483" 
d="M143 1116l183 297h190l-225 -297h-148zM143 973h197v-973h-197v973z" />
    <glyph glyph-name="icircumflex" unicode="&#xee;" horiz-adv-x="483" 
d="M162 1413h160l188 -297h-143l-125 205l-125 -205h-144zM143 973h197v-973h-197v973z" />
    <glyph glyph-name="idieresis" unicode="&#xef;" horiz-adv-x="483" 
d="M506 1264q4 -66 -52 -94t-112 -0.5t-51 94.5q0 49 30.5 79.5t75.5 30.5t77 -31t32 -79zM193 1264q0 -47 -31 -78t-76 -31t-77 31t-32 78q0 48 32 79t77 31t76 -30.5t31 -79.5zM143 973h197v-973h-197v973z" />
    <glyph glyph-name="eth" unicode="&#xf0;" horiz-adv-x="1169" 
d="M1098 475q0 -215 -150 -356q-148 -142 -368 -142t-365 142t-145 356q0 207 145 346q148 142 340 142q164 0 272 -97q-85 175 -280 348l-238 -147l-57 92l207 129q-111 86 -201 142l129 88q110 -65 215 -150l248 154l57 -95l-217 -135q125 -107 205 -223
q203 -280 203 -594zM811 240q88 94 88 239q0 146 -88 240q-90 96 -227 96q-138 0 -228 -96q-88 -94 -88 -240q0 -145 88 -239q89 -95 228 -95q138 0 227 95z" />
    <glyph glyph-name="ntilde" unicode="&#xf1;" horiz-adv-x="1107" 
d="M776 1370l96 -20q-6 -81 -60.5 -135t-127.5 -54q-18 0 -36 2.5t-30.5 6t-27 9.5t-21.5 9.5t-18.5 10t-13.5 7.5q-77 51 -119 51q-34 0 -59 -25t-31 -63l-97 21q6 81 61 135.5t128 54.5q69 0 123 -37q10 -5 16.5 -7.5t12 -5.5t20.5 -13q50 -33 94 -33q69 0 90 86zM981 575
v-575h-197v543q0 150 -43 218t-159 68q-125 0 -187.5 -91t-62.5 -249v-489h-197v973h197l-2 -154h6q43 78 120.5 125t176.5 47q185 0 266.5 -106t81.5 -310z" />
    <glyph glyph-name="ograve" unicode="&#xf2;" horiz-adv-x="1169" 
d="M322 1413h192l180 -297h-147zM586 -23q-221 0 -369 142q-147 141 -147 364q0 224 147 365q146 143 369 143q220 0 366 -143q148 -142 148 -365q0 -222 -148 -364t-366 -142zM815 244q86 100 86 245q0 149 -86 244q-85 98 -229 98t-232 -98q-86 -95 -86 -244
q0 -145 86 -245q89 -99 232 -99q144 0 229 99z" />
    <glyph glyph-name="oacute" unicode="&#xf3;" horiz-adv-x="1169" 
d="M475 1116l182 297h191l-225 -297h-148zM586 -23q-221 0 -369 142q-147 141 -147 364q0 224 147 365q146 143 369 143q220 0 366 -143q148 -142 148 -365q0 -222 -148 -364t-366 -142zM815 244q86 100 86 245q0 149 -86 244q-85 98 -229 98t-232 -98q-86 -95 -86 -244
q0 -145 86 -245q89 -99 232 -99q144 0 229 99z" />
    <glyph glyph-name="ocircumflex" unicode="&#xf4;" horiz-adv-x="1169" 
d="M504 1413h162l186 -297h-143l-123 205l-125 -205h-144zM586 -23q-221 0 -369 142q-147 141 -147 364q0 224 147 365q146 143 369 143q220 0 366 -143q148 -142 148 -365q0 -222 -148 -364t-366 -142zM815 244q86 100 86 245q0 149 -86 244q-85 98 -229 98t-232 -98
q-86 -95 -86 -244q0 -145 86 -245q89 -99 232 -99q144 0 229 99z" />
    <glyph glyph-name="otilde" unicode="&#xf5;" horiz-adv-x="1169" 
d="M809 1370l96 -20q-6 -81 -60.5 -135t-127.5 -54q-26 0 -52 6t-39 11.5t-33.5 16.5t-21.5 11q-9 9 -53 31q-35 20 -67 20q-35 0 -59 -24.5t-32 -63.5l-96 21q6 81 61 135.5t128 54.5q59 0 145 -47l26 -15q26 -16 52.5 -27t42.5 -7q35 0 59.5 24t30.5 62zM586 -23
q-221 0 -369 142q-147 141 -147 364q0 224 147 365q146 143 369 143q220 0 366 -143q148 -142 148 -365q0 -222 -148 -364t-366 -142zM815 244q86 100 86 245q0 149 -86 244q-85 98 -229 98t-232 -98q-86 -95 -86 -244q0 -145 86 -245q89 -99 232 -99q144 0 229 99z" />
    <glyph glyph-name="odieresis" unicode="&#xf6;" horiz-adv-x="1169" 
d="M633 1264q0 48 31.5 79t76.5 31t76 -30.5t31 -79.5q5 -67 -51 -94.5t-112 0.5t-52 94zM537 1264q0 -47 -32 -78t-77 -31t-75.5 31t-30.5 78q0 49 30.5 79.5t75.5 30.5t77 -31t32 -79zM586 -23q-221 0 -369 142q-147 141 -147 364q0 224 147 365q146 143 369 143
q220 0 366 -143q148 -142 148 -365q0 -222 -148 -364t-366 -142zM815 244q86 100 86 245q0 149 -86 244q-85 98 -229 98t-232 -98q-86 -95 -86 -244q0 -145 86 -245q89 -99 232 -99q144 0 229 99z" />
    <glyph glyph-name="divide" unicode="&#xf7;" 
d="M809 1044q0 -53 -36.5 -89.5t-88.5 -36.5q-54 0 -90.5 36t-36.5 90q0 51 38 88t89 37t88 -37t37 -88zM147 782h1072v-151h-1072v151zM557 369q0 54 36.5 90.5t90.5 36.5q38 3 69.5 -20.5t45.5 -57.5t8 -73.5t-35 -65.5q-25 -28 -64 -33t-73 9t-57.5 45t-20.5 69z" />
    <glyph glyph-name="oslash" unicode="&#xf8;" horiz-adv-x="1169" 
d="M905 891l121 121l88 -86l-121 -121q107 -131 107 -322q0 -224 -148 -366q-146 -140 -366 -140q-185 0 -324 103l-121 -119l-86 84l119 121q-104 131 -104 317q0 224 147 365q146 143 369 143q184 0 319 -100zM313 303l467 465q-78 63 -194 63q-144 0 -232 -98
q-86 -95 -86 -244q0 -106 45 -186zM901 489q0 104 -43 183l-467 -463q79 -64 195 -64q144 0 229 99q86 100 86 245z" />
    <glyph glyph-name="ugrave" unicode="&#xf9;" horiz-adv-x="1097" 
d="M270 1413h193l180 -297h-147zM766 975h197v-975h-191l-2 139q-42 -74 -122 -118t-179 -44q-182 0 -270 113q-72 97 -72 301v584h195v-576q0 -127 45 -192.5t157 -65.5q117 0 179.5 86.5t62.5 225.5v522z" />
    <glyph glyph-name="uacute" unicode="&#xfa;" horiz-adv-x="1097" 
d="M766 975h197v-975h-191l-2 139q-42 -74 -122 -118t-179 -44q-182 0 -270 113q-72 97 -72 301v584h195v-576q0 -127 45 -192.5t157 -65.5q117 0 179.5 86.5t62.5 225.5v522zM442 1116l183 297h192l-225 -297h-150z" />
    <glyph glyph-name="ucircumflex" unicode="&#xfb;" horiz-adv-x="1097" 
d="M465 1413h160l188 -297h-143l-125 205l-125 -205h-144zM766 975h197v-975h-191l-2 139q-42 -74 -122 -118t-179 -44q-182 0 -270 113q-72 97 -72 301v584h195v-576q0 -127 45 -192.5t157 -65.5q117 0 179.5 86.5t62.5 225.5v522z" />
    <glyph glyph-name="udieresis" unicode="&#xfc;" horiz-adv-x="1097" 
d="M809 1264q0 -47 -32 -78t-77 -31t-75.5 31t-30.5 78q0 49 30.5 79.5t75.5 30.5t77 -31t32 -79zM281 1264q0 48 31.5 79t76.5 31t76 -30.5t31 -79.5q5 -67 -51 -94.5t-112 0.5t-52 94zM766 975h197v-975h-191l-2 139q-42 -74 -122 -118t-179 -44q-182 0 -270 113
q-72 97 -72 301v584h195v-576q0 -127 45 -192.5t157 -65.5q117 0 179.5 86.5t62.5 225.5v522z" />
    <glyph glyph-name="yacute" unicode="&#xfd;" horiz-adv-x="980" 
d="M496 217l286 758l203 -2l-469 -1143q-49 -121 -109.5 -173t-146.5 -52q-92 0 -162 26l-22 9l39 159q55 -22 102 -22q25 0 34.5 2t27.5 12q38 15 65 100l47 129l-389 955l205 -2zM383 1116l182 297h193l-226 -297h-149z" />
    <glyph glyph-name="thorn" unicode="&#xfe;" horiz-adv-x="1222" 
d="M1153 487q0 -223 -131 -366q-129 -144 -342 -144q-222 0 -336 175h-4v-533h-195v1794h195v-592h4q120 170 340 170q212 0 340 -143q129 -141 129 -361zM868 242q84 101 84 247q0 150 -84 246t-225 96q-143 0 -227 -96t-84 -246q0 -146 84 -247q85 -97 227 -97
q140 0 225 97z" />
    <glyph glyph-name="ydieresis" unicode="&#xff;" horiz-adv-x="980" 
d="M727 1352q32 -31 32 -80t-32 -80q-31 -31 -76 -31t-76 31t-31 80t31 80t76 31t76 -31zM446 1272q0 -47 -31 -79t-75 -32q-45 0 -77 31.5t-32 79.5t32 79t77 31t75.5 -30.5t30.5 -79.5zM496 217l286 758l203 -2l-469 -1143q-49 -121 -109.5 -173t-146.5 -52q-92 0 -162 26
l-22 9l39 159q55 -22 102 -22q25 0 34.5 2t27.5 12q38 15 65 100l47 129l-389 955l205 -2z" />
    <glyph glyph-name="Amacron" unicode="&#x100;" horiz-adv-x="1331" 
d="M578 1417h174l577 -1417h-221l-145 369h-607l-145 -369h-209zM659 1169l-247 -634h495zM395 1763h531v-112h-531v112z" />
    <glyph glyph-name="amacron" unicode="&#x101;" horiz-adv-x="1007" 
d="M891 565v-565h-191l-2 123q-140 -146 -309 -146q-141 0 -239 82q-97 85 -97 220q0 137 100.5 212.5t280.5 83.5l260 11v39q0 105 -65 163t-176 58q-156 0 -293 -84l-60 131q171 98 365 98q211 0 321 -110q105 -108 105 -316zM696 258v209l-227 -14q-221 -12 -221 -168
q0 -74 54.5 -121t146.5 -47q153 0 247 141zM223 1325h531v-113h-531v113z" />
    <glyph glyph-name="Abreve" unicode="&#x102;" horiz-adv-x="1331" 
d="M578 1417h174l577 -1417h-221l-145 369h-607l-145 -369h-209zM659 1169l-247 -634h495zM864 1829h101q-17 -122 -96.5 -187t-209.5 -65q-128 0 -207 65t-96 187h99q35 -133 204 -133q175 0 205 133z" />
    <glyph glyph-name="abreve" unicode="&#x103;" horiz-adv-x="1007" 
d="M891 565v-565h-191l-2 123q-140 -146 -309 -146q-141 0 -239 82q-97 85 -97 220q0 137 100.5 212.5t280.5 83.5l260 11v39q0 105 -65 163t-176 58q-156 0 -293 -84l-60 131q171 98 365 98q211 0 321 -110q105 -108 105 -316zM696 258v209l-227 -14q-221 -12 -221 -168
q0 -74 54.5 -121t146.5 -47q153 0 247 141zM686 1391h100q-17 -122 -96 -187t-209 -65q-128 0 -207 65t-96 187h98q35 -134 205 -134q175 0 205 134z" />
    <glyph glyph-name="Aogonek" unicode="&#x104;" horiz-adv-x="1331" 
d="M1343 -274l31 -64q-91 -88 -213 -88q-94 0 -152.5 49.5t-58.5 134.5q0 130 158 242l-145 369h-607l-145 -369h-209l576 1417h174l577 -1417q-111 -19 -179.5 -82.5t-68.5 -130.5q0 -52 33.5 -79t87.5 -27q67 0 141 45zM659 1169l-247 -634h495z" />
    <glyph glyph-name="aogonek" unicode="&#x105;" horiz-adv-x="1007" 
d="M938 -274l31 -64q-91 -88 -213 -88q-94 0 -152.5 49.5t-58.5 134.5q0 129 155 242l-2 123q-140 -146 -309 -146q-141 0 -239 82q-97 85 -97 220q0 137 100.5 212.5t280.5 83.5l260 11v39q0 105 -65 163t-176 58q-156 0 -293 -84l-60 131q171 98 365 98q211 0 321 -110
q105 -108 105 -316v-565q-94 -25 -154.5 -88t-60.5 -125q0 -52 33.5 -79t87.5 -27q67 0 141 45zM696 258v209l-227 -14q-221 -12 -221 -168q0 -74 54.5 -121t146.5 -47q153 0 247 141z" />
    <glyph glyph-name="Cacute" unicode="&#x106;" horiz-adv-x="1361" 
d="M1229 330l86 -146q-188 -209 -516 -209q-311 0 -518 201q-205 202 -205 529q0 325 207 526q206 203 516 203q311 0 501 -187l-83 -160q-49 64 -164 117q-115 56 -246 56q-231 0 -379 -154q-147 -150 -147 -397t147 -400q151 -151 379 -151q266 0 422 172zM629 1554
l182 297h193l-226 -297h-149z" />
    <glyph glyph-name="cacute" unicode="&#x107;" horiz-adv-x="972" 
d="M848 238l33 30l69 -143q-82 -82 -182 -117q-95 -31 -207 -31q-202 0 -348 140q-143 140 -143 368q0 229 147 367q148 139 350 139q118 0 211 -37q93 -34 121 -59q32 -25 45 -43l-70 -143q-118 118 -290 118q-135 0 -226 -94q-90 -93 -90 -241q0 -154 88.5 -250.5
t229.5 -96.5q79 0 153 29t109 64zM383 1116l182 297h193l-226 -297h-149z" />
    <glyph glyph-name="Ccircumflex" unicode="&#x108;" horiz-adv-x="1361" 
d="M674 1851h162l186 -297h-143l-125 205l-123 -205h-144zM1229 330l86 -146q-188 -209 -516 -209q-311 0 -518 201q-205 202 -205 529q0 325 207 526q206 203 516 203q311 0 501 -187l-83 -160q-49 64 -164 117q-115 56 -246 56q-231 0 -379 -154q-147 -150 -147 -397
t147 -400q151 -151 379 -151q266 0 422 172z" />
    <glyph glyph-name="ccircumflex" unicode="&#x109;" horiz-adv-x="972" 
d="M465 1413h162l186 -297h-143l-125 205l-123 -205h-143zM848 238l33 30l69 -143q-82 -82 -182 -117q-95 -31 -207 -31q-202 0 -348 140q-143 140 -143 368q0 229 147 367q148 139 350 139q118 0 211 -37q93 -34 121 -59q32 -25 45 -43l-70 -143q-118 118 -290 118
q-135 0 -226 -94q-90 -93 -90 -241q0 -154 88.5 -250.5t229.5 -96.5q79 0 153 29t109 64z" />
    <glyph glyph-name="Cdotaccent" unicode="&#x10a;" horiz-adv-x="1361" 
d="M1229 330l86 -146q-188 -209 -516 -209q-311 0 -518 201q-205 202 -205 529q0 325 207 526q206 203 516 203q311 0 501 -187l-83 -160q-49 64 -164 117q-115 56 -246 56q-231 0 -379 -154q-147 -150 -147 -397t147 -400q151 -151 379 -151q266 0 422 172zM848 1704
q0 -45 -32 -77t-79 -32q-44 0 -76 32.5t-32 76.5q0 47 30.5 77.5t77.5 30.5q48 0 79.5 -30.5t31.5 -77.5z" />
    <glyph glyph-name="cdotaccent" unicode="&#x10b;" horiz-adv-x="972" 
d="M848 238l33 30l69 -143q-82 -82 -182 -117q-95 -31 -207 -31q-202 0 -348 140q-143 140 -143 368q0 229 147 367q148 139 350 139q118 0 211 -37q93 -34 121 -59q32 -25 45 -43l-70 -143q-118 118 -290 118q-135 0 -226 -94q-90 -93 -90 -241q0 -154 88.5 -250.5
t229.5 -96.5q79 0 153 29t109 64zM639 1266q0 -45 -32 -77t-79 -32q-44 0 -76 32.5t-32 76.5q0 47 30.5 77.5t77.5 30.5q48 0 79.5 -30.5t31.5 -77.5z" />
    <glyph glyph-name="Ccaron" unicode="&#x10c;" horiz-adv-x="1361" 
d="M752 1647l125 204h143l-186 -297h-162l-187 297h144zM1229 330l86 -146q-188 -209 -516 -209q-311 0 -518 201q-205 202 -205 529q0 325 207 526q206 203 516 203q311 0 501 -187l-83 -160q-49 64 -164 117q-115 56 -246 56q-231 0 -379 -154q-147 -150 -147 -397
t147 -400q151 -151 379 -151q266 0 422 172z" />
    <glyph glyph-name="ccaron" unicode="&#x10d;" horiz-adv-x="972" 
d="M547 1208l125 205h143l-186 -297h-162l-186 297h143zM848 238l33 30l69 -143q-82 -82 -182 -117q-95 -31 -207 -31q-202 0 -348 140q-143 140 -143 368q0 229 147 367q148 139 350 139q118 0 211 -37q93 -34 121 -59q32 -25 45 -43l-70 -143q-118 118 -290 118
q-135 0 -226 -94q-90 -93 -90 -241q0 -154 88.5 -250.5t229.5 -96.5q79 0 153 29t109 64z" />
    <glyph glyph-name="Dcaron" unicode="&#x10e;" horiz-adv-x="1404" 
d="M633 1647l125 204h143l-186 -297h-162l-186 297h143zM1110 184q-199 -184 -528 -184h-426v1413h426q329 0 528 -184q219 -201 219 -522q0 -322 -219 -523zM1126 707q0 247 -168 405q-137 131 -376 131h-228v-1071h228q239 0 376 131q168 158 168 404z" />
    <glyph glyph-name="dcaron" unicode="&#x10f;" horiz-adv-x="1392" 
d="M883 1413h194v-1413h-188v156h-4q-120 -179 -342 -179q-212 0 -344 144q-129 144 -129 366q0 220 129 361q128 143 340 143q226 0 340 -170h4v592zM805 242q84 101 84 247q0 150 -84 246t-225 96q-144 0 -228 -96q-82 -94 -82 -246q0 -149 82 -247q85 -97 228 -97
q140 0 225 97zM1147 975l137 438h201l-182 -438h-156z" />
    <glyph glyph-name="Dcroat" unicode="&#x110;" horiz-adv-x="1404" 
d="M1110 184q-199 -184 -528 -184h-426v666h-133v147h133v600h426q329 0 528 -184q219 -201 219 -522q0 -322 -219 -523zM1126 707q0 247 -168 405q-137 131 -376 131h-228v-430h359v-145h-359v-496h228q239 0 376 131q168 158 168 404z" />
    <glyph glyph-name="dslash" unicode="&#x111;" horiz-adv-x="1222" 
d="M1077 1296h135v-163h-135v-1133h-188v156h-4q-120 -179 -342 -179q-212 0 -344 144q-129 144 -129 366q0 220 129 361q128 143 340 143q226 0 340 -170h4v312h-391v163h391v117h194v-117zM805 242q84 101 84 247q0 150 -84 246t-225 96q-144 0 -228 -96q-82 -94 -82 -246
q0 -149 82 -247q85 -97 228 -97q140 0 225 97z" />
    <glyph glyph-name="Emacron" unicode="&#x112;" horiz-adv-x="1087" 
d="M354 168h645v-168h-843v1413h827v-166h-629v-422h594v-166h-594v-491zM319 1763h531v-112h-531v112z" />
    <glyph glyph-name="emacron" unicode="&#x113;" horiz-adv-x="1083" 
d="M1024 526l-6 -86h-750q7 -142 92.5 -225.5t221.5 -83.5q51 -1 100 9t86 26.5t63.5 31.5t47.5 30t24 16l82 -113l-8 -8q-19 -19 -45.5 -38t-78 -46.5t-129 -44.5t-167.5 -17q-215 0 -352 140q-135 138 -135 370q0 227 141 365q145 139 352 139q204 0 332 -131
q129 -129 129 -334zM270 571h568q-3 101 -76 189q-72 90 -205 90q-134 0 -207 -88q-74 -86 -80 -191zM295 1325h530v-113h-530v113z" />
    <glyph glyph-name="Ebreve" unicode="&#x114;" horiz-adv-x="1087" 
d="M354 168h645v-168h-843v1413h827v-166h-629v-422h594v-166h-594v-491zM801 1829h100q-17 -122 -96 -187t-209 -65q-128 0 -207 65t-96 187h98q35 -133 205 -133q175 0 205 133z" />
    <glyph glyph-name="ebreve" unicode="&#x115;" horiz-adv-x="1083" 
d="M1024 526l-6 -86h-750q7 -142 92.5 -225.5t221.5 -83.5q51 -1 100 9t86 26.5t63.5 31.5t47.5 30t24 16l82 -113l-8 -8q-19 -19 -45.5 -38t-78 -46.5t-129 -44.5t-167.5 -17q-215 0 -352 140q-135 138 -135 370q0 227 141 365q145 139 352 139q204 0 332 -131
q129 -129 129 -334zM270 571h568q-3 101 -76 189q-72 90 -205 90q-134 0 -207 -88q-74 -86 -80 -191zM745 1391h101q-17 -122 -96 -187t-209 -65q-128 0 -207 65t-96 187h98q35 -134 205 -134q174 0 204 134z" />
    <glyph glyph-name="Edotaccent" unicode="&#x116;" horiz-adv-x="1087" 
d="M354 168h645v-168h-843v1413h827v-166h-629v-422h594v-166h-594v-491zM715 1704q0 -45 -32 -77t-79 -32q-46 0 -77 32t-31 77q0 47 30.5 77.5t77.5 30.5q48 0 79.5 -30.5t31.5 -77.5z" />
    <glyph glyph-name="edotaccent" unicode="&#x117;" horiz-adv-x="1083" 
d="M1024 526l-6 -86h-750q7 -142 92.5 -225.5t221.5 -83.5q51 -1 100 9t86 26.5t63.5 31.5t47.5 30t24 16l82 -113l-8 -8q-19 -19 -45.5 -38t-78 -46.5t-129 -44.5t-167.5 -17q-215 0 -352 140q-135 138 -135 370q0 227 141 365q145 139 352 139q204 0 332 -131
q129 -129 129 -334zM270 571h568q-3 101 -76 189q-72 90 -205 90q-134 0 -207 -88q-74 -86 -80 -191zM651 1266q0 -45 -31.5 -77t-78.5 -32q-44 0 -76.5 32.5t-32.5 76.5q0 47 31 77.5t78 30.5t78.5 -30.5t31.5 -77.5z" />
    <glyph glyph-name="Eogonek" unicode="&#x118;" horiz-adv-x="1087" 
d="M969 -274l30 -64q-91 -88 -213 -88q-94 0 -152.5 49.5t-58.5 134.5q0 128 156 242h-575v1413h827v-166h-629v-422h594v-166h-594v-491h645v-168h-133q-65 -38 -112 -99t-47 -114q0 -52 33 -79t87 -27q68 0 142 45z" />
    <glyph glyph-name="eogonek" unicode="&#x119;" horiz-adv-x="1083" 
d="M965 -231l30 -64q-91 -88 -213 -88q-94 0 -152.5 49.5t-58.5 134.5q0 93 84 183q-54 -7 -98 -7q-215 0 -352 140q-135 138 -135 370q0 227 141 365q145 139 352 139q204 0 332 -131q129 -129 129 -334l-6 -86h-750q7 -142 92.5 -225.5t221.5 -83.5q51 -1 100 9t86 26.5
t63.5 31.5t47.5 30t24 16l82 -113q-49 -49 -123 -88q-65 -36 -112.5 -98t-47.5 -115q0 -52 33.5 -79t87.5 -27q68 0 142 45zM270 571h568q-3 101 -76 189q-72 90 -205 90q-134 0 -207 -88q-74 -86 -80 -191z" />
    <glyph glyph-name="Ecaron" unicode="&#x11a;" horiz-adv-x="1087" 
d="M580 1647l125 204h143l-186 -297h-162l-187 297h144zM354 168h645v-168h-843v1413h827v-166h-629v-422h594v-166h-594v-491z" />
    <glyph glyph-name="ecaron" unicode="&#x11b;" horiz-adv-x="1083" 
d="M1024 526l-6 -86h-750q7 -142 92.5 -225.5t221.5 -83.5q51 -1 100 9t86 26.5t63.5 31.5t47.5 30t24 16l82 -113l-8 -8q-19 -19 -45.5 -38t-78 -46.5t-129 -44.5t-167.5 -17q-215 0 -352 140q-135 138 -135 370q0 227 141 365q145 139 352 139q204 0 332 -131
q129 -129 129 -334zM270 571h568q-3 101 -76 189q-72 90 -205 90q-134 0 -207 -88q-74 -86 -80 -191zM541 1208l125 205h143l-186 -297h-162l-187 297h144z" />
    <glyph glyph-name="Gcircumflex" unicode="&#x11c;" horiz-adv-x="1529" 
d="M823 754h574v-549q-230 -230 -600 -230q-308 0 -514 203q-207 204 -207 529t205 524q206 203 514 203q344 0 561 -236l10 -10l-135 -125q-174 201 -436 201q-223 0 -369 -152q-145 -151 -145 -405q0 -257 149 -406q151 -151 377 -151q82 0 151.5 12.5t115.5 33t72.5 37
t45.5 33.5l12 13v313h-381v162zM684 1851h162l186 -297h-143l-125 205l-123 -205h-143z" />
    <glyph glyph-name="gcircumflex" unicode="&#x11d;" horiz-adv-x="1214" 
d="M883 973h194v-768q0 -296 -106 -420q-149 -186 -434 -186q-231 0 -435 145l93 137q50 -43 147 -82q103 -41 201 -41q184 0 266 107q74 89 74 272v49h-4q-116 -174 -340 -174q-195 0 -334 133q-135 132 -135 357q0 224 135 356q139 133 334 133q114 0 202.5 -47
t137.5 -125h6zM580 834q-140 0 -225 -93.5t-85 -238.5q0 -146 83.5 -238t226.5 -92t226 92t83 238t-83 239t-226 93zM461 1413h162l186 -297h-143l-125 205l-123 -205h-144z" />
    <glyph glyph-name="Gbreve" unicode="&#x11e;" horiz-adv-x="1529" 
d="M823 754h574v-549q-230 -230 -600 -230q-308 0 -514 203q-207 204 -207 529t205 524q206 203 514 203q344 0 561 -236l10 -10l-135 -125q-174 201 -436 201q-223 0 -369 -152q-145 -151 -145 -405q0 -257 149 -406q151 -151 377 -151q82 0 151.5 12.5t115.5 33t72.5 37
t45.5 33.5l12 13v313h-381v162zM973 1829h100q-17 -122 -96 -187t-209 -65q-128 0 -207 65t-96 187h98q35 -133 205 -133q175 0 205 133z" />
    <glyph glyph-name="gbreve" unicode="&#x11f;" horiz-adv-x="1214" 
d="M883 973h194v-768q0 -296 -106 -420q-149 -186 -434 -186q-231 0 -435 145l93 137q50 -43 147 -82q103 -41 201 -41q184 0 266 107q74 89 74 272v49h-4q-116 -174 -340 -174q-195 0 -334 133q-135 132 -135 357q0 224 135 356q139 133 334 133q114 0 202.5 -47
t137.5 -125h6zM580 834q-140 0 -225 -93.5t-85 -238.5q0 -146 83.5 -238t226.5 -92t226 92t83 238t-83 239t-226 93zM754 1391h100q-17 -122 -96 -187t-209 -65q-128 0 -207 65t-96 187h98q35 -134 205 -134q175 0 205 134z" />
    <glyph glyph-name="Gdotaccent" unicode="&#x120;" horiz-adv-x="1529" 
d="M823 754h574v-549q-230 -230 -600 -230q-308 0 -514 203q-207 204 -207 529t205 524q206 203 514 203q344 0 561 -236l10 -10l-135 -125q-174 201 -436 201q-223 0 -369 -152q-145 -151 -145 -405q0 -257 149 -406q151 -151 377 -151q82 0 151.5 12.5t115.5 33t72.5 37
t45.5 33.5l12 13v313h-381v162zM874 1704q0 -45 -31.5 -77t-78.5 -32t-78 32t-31 77q0 47 31 77.5t78 30.5t78.5 -30.5t31.5 -77.5z" />
    <glyph glyph-name="gdotaccent" unicode="&#x121;" horiz-adv-x="1214" 
d="M883 973h194v-768q0 -296 -106 -420q-149 -186 -434 -186q-231 0 -435 145l93 137q50 -43 147 -82q103 -41 201 -41q184 0 266 107q74 89 74 272v49h-4q-116 -174 -340 -174q-195 0 -334 133q-135 132 -135 357q0 224 135 356q139 133 334 133q114 0 202.5 -47
t137.5 -125h6zM580 834q-140 0 -225 -93.5t-85 -238.5q0 -146 83.5 -238t226.5 -92t226 92t83 238t-83 239t-226 93zM668 1266q0 -45 -32 -77t-79 -32q-44 0 -76 32.5t-32 76.5q0 47 30.5 77.5t77.5 30.5q48 0 79.5 -30.5t31.5 -77.5z" />
    <glyph glyph-name="Gcommaaccent" unicode="&#x122;" horiz-adv-x="1529" 
d="M823 754h574v-549q-230 -230 -600 -230q-308 0 -514 203q-207 204 -207 529t205 524q206 203 514 203q344 0 561 -236l10 -10l-135 -125q-174 201 -436 201q-223 0 -369 -152q-145 -151 -145 -405q0 -257 149 -406q151 -151 377 -151q82 0 151.5 12.5t115.5 33t72.5 37
t45.5 33.5l12 13v313h-381v162zM647 -389l74 287h201l-129 -287h-146z" />
    <glyph glyph-name="gcommaaccent" unicode="&#x123;" horiz-adv-x="1214" 
d="M883 973h194v-768q0 -296 -106 -420q-149 -186 -434 -186q-231 0 -435 145l93 137q50 -43 147 -82q103 -41 201 -41q184 0 266 107q74 89 74 272v49h-4q-116 -174 -340 -174q-195 0 -334 133q-135 132 -135 357q0 224 135 356q139 133 334 133q114 0 202.5 -47
t137.5 -125h6zM580 834q-140 0 -225 -93.5t-85 -238.5q0 -146 83.5 -238t226.5 -92t226 92t83 238t-83 239t-226 93zM707 1456l-74 -287h-201l129 287h146z" />
    <glyph glyph-name="Hcircumflex" unicode="&#x124;" horiz-adv-x="1462" 
d="M649 1851h162l186 -297h-143l-125 205l-123 -205h-143zM1106 1413h199v-1413h-199v659h-752v-659h-198v1413h198v-584h752v584z" />
    <glyph glyph-name="hcircumflex" unicode="&#x125;" horiz-adv-x="1122" 
d="M164 1833h162l186 -297h-143l-125 205l-123 -205h-144zM991 580v-580h-196v551q0 116 -35 190q-39 88 -166 88q-124 0 -189 -94t-65 -254v-481h-195v1413h195v-594h4q43 78 121 125t178 47q189 0 268.5 -103t79.5 -308z" />
    <glyph glyph-name="Hbar" unicode="&#x126;" horiz-adv-x="1462" 
d="M1305 1229h147v-154h-147v-1075h-199v659h-752v-659h-198v1075h-146v154h146v184h198v-184h752v184h199v-184zM354 1075v-246h752v246h-752z" />
    <glyph glyph-name="hbar" unicode="&#x127;" horiz-adv-x="1122" 
d="M991 580v-580h-196v551q0 116 -35 190q-39 88 -166 88q-124 0 -189 -94t-65 -254v-481h-195v1133h-135v163h135v117h195v-117h391v-163h-391v-314h4q43 78 121 125t178 47q189 0 268.5 -103t79.5 -308z" />
    <glyph glyph-name="Itilde" unicode="&#x128;" horiz-adv-x="509" 
d="M479 1808l96 -20q-6 -81 -60.5 -135t-127.5 -54q-63 0 -145 46q-6 6 -54 30q-37 21 -67 21q-34 0 -59 -25t-31 -63l-97 20q6 81 61 136t128 55q52 0 90 -19q49 -22 55 -28l26 -16q25 -15 52 -26.5t43 -7.5q69 0 90 86zM156 1413h198v-1413h-198v1413z" />
    <glyph glyph-name="itilde" unicode="&#x129;" horiz-adv-x="483" 
d="M467 1370l96 -20q-6 -81 -60.5 -135t-127.5 -54q-66 0 -146 45q-9 9 -53 31q-35 20 -67 20q-35 0 -60 -25t-31 -63l-96 21q6 81 61 135.5t128 54.5q54 0 90 -18q47 -21 55 -29l26 -15q26 -16 52.5 -27t42.5 -7q69 0 90 86zM143 973h197v-973h-197v973z" />
    <glyph glyph-name="Imacron" unicode="&#x12a;" horiz-adv-x="509" 
d="M156 1413h198v-1413h-198v1413zM-10 1763h530v-112h-530v112z" />
    <glyph glyph-name="imacron" unicode="&#x12b;" horiz-adv-x="483" 
d="M143 973h197v-973h-197v973zM-23 1325h531v-113h-531v113z" />
    <glyph glyph-name="Ibreve" unicode="&#x12c;" horiz-adv-x="509" 
d="M459 1829h100q-17 -122 -96 -187t-209 -65q-128 0 -207 65t-96 187h98q35 -133 205 -133q175 0 205 133zM156 1413h198v-1413h-198v1413z" />
    <glyph glyph-name="ibreve" unicode="&#x12d;" horiz-adv-x="483" 
d="M446 1391h101q-17 -122 -96 -187t-209 -65q-128 0 -207 65t-96 187h98q35 -134 205 -134q174 0 204 134zM143 973h197v-973h-197v973z" />
    <glyph glyph-name="Iogonek" unicode="&#x12e;" horiz-adv-x="509" 
d="M393 -274l31 -64q-91 -88 -213 -88q-94 0 -152.5 49.5t-58.5 134.5q0 128 156 242v1413h198v-1413q-111 -37 -167 -93.5t-56 -119.5q0 -52 33.5 -79t87.5 -27q67 0 141 45z" />
    <glyph glyph-name="iogonek" unicode="&#x12f;" horiz-adv-x="483" 
d="M381 -274l31 -64q-91 -88 -213 -88q-94 0 -152.5 49.5t-58.5 134.5q0 129 155 242v973h197v-973q-100 -24 -160.5 -86t-60.5 -127q0 -52 33.5 -79t87.5 -27q67 0 141 45zM242 1171q-57 0 -93 33.5t-36 87.5t36 87.5t93 33.5q56 0 91.5 -33.5t35.5 -87.5t-35.5 -87.5
t-91.5 -33.5z" />
    <glyph glyph-name="Idot" unicode="&#x130;" horiz-adv-x="509" 
d="M156 1413h198v-1413h-198v1413zM365 1704q0 -45 -32 -77t-79 -32q-44 0 -76.5 32.5t-32.5 76.5q0 47 31 77.5t78 30.5q48 0 79.5 -30.5t31.5 -77.5z" />
    <glyph glyph-name="dotlessi" unicode="&#x131;" horiz-adv-x="483" 
d="M143 973h197v-973h-197v973z" />
    <glyph glyph-name="IJ" unicode="&#x132;" horiz-adv-x="1019" 
d="M666 1413h198v-1409q0 -202 -63 -299q-83 -115 -228 -115q-36 0 -73.5 6t-56.5 11.5t-23 7.5l4 152q46 -17 108 -17q77 0 105.5 60t28.5 188v1415zM156 1413h198v-1413h-198v1413z" />
    <glyph glyph-name="ij" unicode="&#x133;" horiz-adv-x="966" 
d="M725 1171q-57 0 -93 33.5t-36 87.5t36 87.5t93 33.5q56 0 91.5 -33.5t35.5 -87.5t-35.5 -87.5t-91.5 -33.5zM627 973h196v-975q0 -194 -61 -279q-88 -120 -246 -120q-74 0 -110 12l-13 4l2 156q40 -15 92 -15q82 0 111 58.5t29 189.5v969zM242 1171q-57 0 -93 33.5
t-36 87.5t36 87.5t93 33.5q56 0 91.5 -33.5t35.5 -87.5t-35.5 -87.5t-91.5 -33.5zM143 973h197v-973h-197v973z" />
    <glyph glyph-name="Jcircumflex" unicode="&#x134;" horiz-adv-x="509" 
d="M174 1851h162l186 -297h-143l-125 205l-123 -205h-143zM156 1413h198v-1409q0 -202 -63 -299q-83 -115 -228 -115q-36 0 -73.5 6t-56.5 11.5t-23 7.5l4 152q46 -17 109 -17q77 0 105 60t28 188v1415z" />
    <glyph glyph-name="jcircumflex" unicode="&#x135;" horiz-adv-x="483" 
d="M162 1413h162l186 -297h-143l-125 205l-123 -205h-144zM143 973h197v-975q0 -194 -61 -279q-88 -120 -246 -120q-75 0 -111 12l-12 4l2 156q40 -15 92 -15q82 0 110.5 58t28.5 190v969z" />
    <glyph glyph-name="Kcommaaccent" unicode="&#x136;" horiz-adv-x="1185" 
d="M1171 1413l-538 -557l577 -856h-241l-469 709l-146 -148v-561h-198v1413h198v-602l576 602h241zM475 -389l74 287h201l-129 -287h-146z" />
    <glyph glyph-name="kcommaaccent" unicode="&#x137;" horiz-adv-x="997" 
d="M967 973l-381 -367l430 -606h-230l-333 471l-113 -106v-365h-195v1413h195v-829l397 389h230zM397 -389l74 287h201l-129 -287h-146z" />
    <glyph glyph-name="kgreenlandic" unicode="&#x138;" horiz-adv-x="987" 
d="M956 973l-381 -367l431 -606h-230l-334 471l-112 -106v-365h-195v973h195v-389l397 389h229z" />
    <glyph glyph-name="Lacute" unicode="&#x139;" horiz-adv-x="872" 
d="M354 170h498v-170h-696v1413h198v-1243zM166 1554l182 297h193l-226 -297h-149z" />
    <glyph glyph-name="lacute" unicode="&#x13a;" horiz-adv-x="485" 
d="M145 1413h195v-1413h-195v1413zM125 1567l182 297h193l-226 -297h-149z" />
    <glyph glyph-name="Lcommaaccent" unicode="&#x13b;" horiz-adv-x="872" 
d="M354 170h498v-170h-696v1413h198v-1243zM360 -389l74 287h201l-129 -287h-146z" />
    <glyph glyph-name="lcommaaccent" unicode="&#x13c;" horiz-adv-x="485" 
d="M145 1413h195v-1413h-195v1413zM86 -389l74 287h200l-129 -287h-145z" />
    <glyph glyph-name="Lcaron" unicode="&#x13d;" horiz-adv-x="872" 
d="M354 170h498v-170h-696v1413h198v-1243zM549 975l137 438h201l-182 -438h-156z" />
    <glyph glyph-name="lcaron" unicode="&#x13e;" horiz-adv-x="655" 
d="M145 1413h195v-1413h-195v1413zM410 975l137 438h201l-183 -438h-155z" />
    <glyph glyph-name="Ldot" unicode="&#x13f;" horiz-adv-x="872" 
d="M354 170h498v-170h-696v1413h198v-1243zM780 745q38 -35 38 -92t-38 -94q-37 -35 -96 -35t-96 35q-37 37 -37 94t37 92t96 35t96 -35z" />
    <glyph glyph-name="ldot" unicode="&#x140;" horiz-adv-x="833" 
d="M723 684q38 -35 38 -92t-38 -94q-37 -35 -96.5 -35t-96.5 35q-37 37 -37 94t37 92t96.5 35t96.5 -35zM145 1413h195v-1413h-195v1413z" />
    <glyph glyph-name="Lslash" unicode="&#x141;" horiz-adv-x="872" 
d="M354 170h498v-170h-696v524l-125 -96v166l125 96v723h198v-584l234 183v-168l-234 -180v-494z" />
    <glyph glyph-name="lslash" unicode="&#x142;" horiz-adv-x="487" 
d="M342 936l121 117v-172l-121 -115v-766h-197v602l-120 -117v172l120 115v641h197v-477z" />
    <glyph glyph-name="Nacute" unicode="&#x143;" horiz-adv-x="1515" 
d="M1163 1413h195v-1413h-195l-815 1126q4 -254 4 -374v-752h-196v1413h209l800 -1110q-2 117 -2 361v749zM647 1554l182 297h193l-225 -297h-150z" />
    <glyph glyph-name="nacute" unicode="&#x144;" horiz-adv-x="1107" 
d="M981 575v-575h-197v543q0 150 -43 218t-159 68q-125 0 -187.5 -91t-62.5 -249v-489h-197v973h197l-2 -154h6q43 78 120.5 125t176.5 47q185 0 266.5 -106t81.5 -310zM367 1116l182 297h192l-225 -297h-149z" />
    <glyph glyph-name="Ncommaaccent" unicode="&#x145;" horiz-adv-x="1515" 
d="M1163 1413h195v-1413h-195l-815 1126q4 -254 4 -374v-752h-196v1413h209l800 -1110q-2 117 -2 361v749zM621 -389l73 287h201l-129 -287h-145z" />
    <glyph glyph-name="ncommaaccent" unicode="&#x146;" horiz-adv-x="1107" 
d="M981 575v-575h-197v543q0 150 -43 218t-159 68q-125 0 -187.5 -91t-62.5 -249v-489h-197v973h197l-2 -154h6q43 78 120.5 125t176.5 47q185 0 266.5 -106t81.5 -310zM416 -389l73 287h201l-129 -287h-145z" />
    <glyph glyph-name="Ncaron" unicode="&#x147;" horiz-adv-x="1515" 
d="M1163 1413h195v-1413h-195l-815 1126q4 -254 4 -374v-752h-196v1413h209l800 -1110q-2 117 -2 361v749zM756 1647l125 204h143l-186 -297h-162l-187 297h144z" />
    <glyph glyph-name="ncaron" unicode="&#x148;" horiz-adv-x="1107" 
d="M553 1208l125 205h143l-186 -297h-162l-186 297h143zM981 575v-575h-197v543q0 150 -43 218t-159 68q-125 0 -187.5 -91t-62.5 -249v-489h-197v973h197l-2 -154h6q43 78 120.5 125t176.5 47q185 0 266.5 -106t81.5 -310z" />
    <glyph glyph-name="Eng" unicode="&#x14a;" horiz-adv-x="1515" 
d="M1163 1413h199v-1409q0 -201 -64 -299q-83 -115 -227 -115q-36 0 -73.5 6t-56.5 11.5t-23 7.5l4 152q46 -17 108 -17q43 0 70.5 18.5t40.5 56.5t17.5 77t4.5 98l-815 1126q4 -254 4 -374v-752h-196v1413h209l798 -1108v1108z" />
    <glyph glyph-name="eng" unicode="&#x14b;" horiz-adv-x="1107" 
d="M981 575v-577q0 -194 -61 -279q-88 -120 -246 -120q-77 0 -109 12l-14 4l2 156q41 -15 92 -15q82 0 110.5 58t28.5 190v539q0 150 -43 218t-159 68q-125 0 -187.5 -91t-62.5 -249v-489h-197v973h197l-2 -154h6q43 78 120.5 125t176.5 47q185 0 266.5 -106t81.5 -310z" />
    <glyph glyph-name="Omacron" unicode="&#x14c;" horiz-adv-x="1609" 
d="M1323 1233q211 -199 211 -528q0 -332 -211 -531t-518 -199t-518 199t-211 531q0 329 211 528q213 201 518 201t518 -201zM279 709q0 -251 151 -402t375 -151q226 0 375 149q151 151 151 404q0 250 -151 401q-152 152 -375 152t-375 -152q-151 -151 -151 -401zM539 1763
h530v-112h-530v112z" />
    <glyph glyph-name="omacron" unicode="&#x14d;" horiz-adv-x="1169" 
d="M586 -23q-221 0 -369 142q-147 141 -147 364q0 224 147 365q146 143 369 143q220 0 366 -143q148 -142 148 -365q0 -222 -148 -364t-366 -142zM815 244q86 100 86 245q0 149 -86 244q-85 98 -229 98t-232 -98q-86 -95 -86 -244q0 -145 86 -245q89 -99 232 -99
q144 0 229 99zM319 1325h531v-113h-531v113z" />
    <glyph glyph-name="Obreve" unicode="&#x14e;" horiz-adv-x="1609" 
d="M1323 1233q211 -199 211 -528q0 -332 -211 -531t-518 -199t-518 199t-211 531q0 329 211 528q213 201 518 201t518 -201zM279 709q0 -251 151 -402t375 -151q226 0 375 149q151 151 151 404q0 250 -151 401q-152 152 -375 152t-375 -152q-151 -151 -151 -401zM1008 1829
h100q-17 -122 -96 -187t-209 -65q-128 0 -207 65t-96 187h98q35 -133 205 -133q175 0 205 133z" />
    <glyph glyph-name="obreve" unicode="&#x14f;" horiz-adv-x="1169" 
d="M586 -23q-221 0 -369 142q-147 141 -147 364q0 224 147 365q146 143 369 143q220 0 366 -143q148 -142 148 -365q0 -222 -148 -364t-366 -142zM815 244q86 100 86 245q0 149 -86 244q-85 98 -229 98t-232 -98q-86 -95 -86 -244q0 -145 86 -245q89 -99 232 -99
q144 0 229 99zM788 1391h101q-17 -122 -96 -187t-209 -65q-128 0 -207 65t-96 187h98q35 -134 205 -134q174 0 204 134z" />
    <glyph glyph-name="Ohungarumlaut" unicode="&#x150;" horiz-adv-x="1609" 
d="M1323 1233q211 -199 211 -528q0 -332 -211 -531t-518 -199t-518 199t-211 531q0 329 211 528q213 201 518 201t518 -201zM279 709q0 -251 151 -402t375 -151q226 0 375 149q151 151 151 404q0 250 -151 401q-152 152 -375 152t-375 -152q-151 -151 -151 -401zM850 1554
l184 297h189l-228 -297h-145zM567 1554l185 297h190l-227 -297h-148z" />
    <glyph glyph-name="ohungarumlaut" unicode="&#x151;" horiz-adv-x="1169" 
d="M586 -23q-221 0 -369 142q-147 141 -147 364q0 224 147 365q146 143 369 143q220 0 366 -143q148 -142 148 -365q0 -222 -148 -364t-366 -142zM815 244q86 100 86 245q0 149 -86 244q-85 98 -229 98t-232 -98q-86 -95 -86 -244q0 -145 86 -245q89 -99 232 -99
q144 0 229 99zM596 1116l184 297h189l-228 -297h-145zM313 1116l185 297h190l-227 -297h-148z" />
    <glyph glyph-name="OE" unicode="&#x152;" horiz-adv-x="2031" 
d="M1358 168h586v-168h-775v76q-149 -101 -372 -101q-304 0 -512 199q-209 200 -209 531q0 328 209 528q210 201 512 201q207 0 370 -97v76h760v-166h-569v-422h534v-166h-534v-491zM1159 281v856q-143 125 -362 125q-217 0 -369 -152q-149 -149 -149 -401q0 -253 149 -402
q151 -151 369 -151q219 0 362 125z" />
    <glyph glyph-name="oe" unicode="&#x153;" horiz-adv-x="1906" 
d="M1845 526l-4 -86h-751q7 -142 91.5 -225.5t221.5 -83.5q158 0 303 98l18 15l82 -113l-8 -8q-19 -19 -45 -38t-77 -46.5t-128.5 -44.5t-167.5 -17q-265 0 -389 216q-130 -216 -405 -216q-221 0 -369 142q-147 141 -147 364q0 224 147 365q146 143 369 143q134 0 239 -57.5
t168 -159.5q135 217 393 217q205 0 330 -131q129 -129 129 -334zM1094 571h565q-3 100 -74 189q-72 90 -205 90q-136 0 -209 -88q-74 -89 -77 -191zM815 244q86 100 86 245q0 149 -86 244q-85 98 -229 98t-232 -98q-86 -95 -86 -244q0 -145 86 -245q89 -99 232 -99
q144 0 229 99z" />
    <glyph glyph-name="Racute" unicode="&#x154;" horiz-adv-x="1105" 
d="M711 629l403 -629h-240l-368 608h-152v-608h-198v1413h399q215 0 340 -98q137 -110 137 -299q0 -170 -96 -266q-98 -98 -225 -121zM827 1012q0 122 -90 188q-68 51 -237 51h-146v-479h146q167 0 237 49q90 69 90 191zM406 1554l182 297h192l-225 -297h-149z" />
    <glyph glyph-name="racute" unicode="&#x155;" horiz-adv-x="686" 
d="M668 979l10 -4l-12 -182h-9q-44 20 -106 20q-96 0 -160 -82q-59 -86 -59 -246v-485h-197v973h197l-2 -150h6q70 168 239 168q61 0 93 -12zM238 1116l182 297h192l-225 -297h-149z" />
    <glyph glyph-name="Rcommaaccent" unicode="&#x156;" horiz-adv-x="1105" 
d="M711 629l403 -629h-240l-368 608h-152v-608h-198v1413h399q215 0 340 -98q137 -110 137 -299q0 -170 -96 -266q-98 -98 -225 -121zM827 1012q0 122 -90 188q-68 51 -237 51h-146v-479h146q167 0 237 49q90 69 90 191zM434 -389l74 287h201l-129 -287h-146z" />
    <glyph glyph-name="rcommaaccent" unicode="&#x157;" horiz-adv-x="686" 
d="M668 979l10 -4l-12 -182h-9q-44 20 -106 20q-96 0 -160 -82q-59 -86 -59 -246v-485h-197v973h197l-2 -150h6q70 168 239 168q61 0 93 -12zM102 -389l74 287h201l-129 -287h-146z" />
    <glyph glyph-name="Rcaron" unicode="&#x158;" horiz-adv-x="1105" 
d="M711 629l403 -629h-240l-368 608h-152v-608h-198v1413h399q215 0 340 -98q137 -110 137 -299q0 -170 -96 -266q-98 -98 -225 -121zM827 1012q0 122 -90 188q-68 51 -237 51h-146v-479h146q167 0 237 49q90 69 90 191zM530 1647l125 204h144l-187 -297h-161l-187 297h144z
" />
    <glyph glyph-name="rcaron" unicode="&#x159;" horiz-adv-x="686" 
d="M383 1208l125 205h143l-186 -297h-162l-186 297h143zM668 979l10 -4l-12 -182h-9q-44 20 -106 20q-96 0 -160 -82q-59 -86 -59 -246v-485h-197v973h197l-2 -150h6q70 168 239 168q61 0 93 -12z" />
    <glyph glyph-name="Sacute" unicode="&#x15a;" horiz-adv-x="1093" 
d="M1020 393q0 -186 -148 -307q-135 -111 -346 -111q-171 0 -299 91q-55 41 -85 69.5t-72 77.5l116 133q66 -87 162 -145t197 -58q120 0 198 65.5t78 172.5q0 105 -92 162q-57 37 -67 41q-16 9 -70 30q-119 46 -225 95q-90 43 -142 100q-92 95 -92 246q0 164 129 272
q126 105 326 105q228 0 405 -183l-104 -135q-146 152 -311 152q-111 0 -178.5 -52.5t-67.5 -144.5t59 -145q41 -33 123 -70l260 -109q101 -46 160 -114q86 -109 86 -238zM358 1554l183 297h192l-225 -297h-150z" />
    <glyph glyph-name="sacute" unicode="&#x15b;" horiz-adv-x="847" 
d="M791 285q0 -140 -101 -222q-106 -86 -270 -86q-247 0 -379 175l94 114q52 -64 132 -101.5t155 -37.5q83 0 134.5 34.5t51.5 104.5q0 69 -86 113q-20 11 -47 20l-86 29q-110 38 -133 51q-154 77 -154 234q0 128 95 202q94 76 233 76q211 0 332 -127l-82 -121
q-102 105 -246 105q-73 0 -114 -31t-41 -90q0 -51 44.5 -82t145.5 -63l131 -47q73 -30 113 -70q78 -75 78 -180zM236 1116l182 297h192l-225 -297h-149z" />
    <glyph glyph-name="Scircumflex" unicode="&#x15c;" horiz-adv-x="1093" 
d="M1020 393q0 -186 -148 -307q-135 -111 -346 -111q-171 0 -299 91q-55 41 -85 69.5t-72 77.5l116 133q66 -87 162 -145t197 -58q120 0 198 65.5t78 172.5q0 105 -92 162q-57 37 -67 41q-16 9 -70 30q-119 46 -225 95q-90 43 -142 100q-92 95 -92 246q0 164 129 272
q126 105 326 105q228 0 405 -183l-104 -135q-146 152 -311 152q-111 0 -178.5 -52.5t-67.5 -144.5t59 -145q41 -33 123 -70l260 -109q101 -46 160 -114q86 -109 86 -238zM465 1851h162l186 -297h-143l-125 205l-123 -205h-143z" />
    <glyph glyph-name="scircumflex" unicode="&#x15d;" horiz-adv-x="847" 
d="M791 285q0 -140 -101 -222q-106 -86 -270 -86q-247 0 -379 175l94 114q52 -64 132 -101.5t155 -37.5q83 0 134.5 34.5t51.5 104.5q0 69 -86 113q-20 11 -47 20l-86 29q-110 38 -133 51q-154 77 -154 234q0 128 95 202q94 76 233 76q211 0 332 -127l-82 -121
q-102 105 -246 105q-73 0 -114 -31t-41 -90q0 -51 44.5 -82t145.5 -63l131 -47q73 -30 113 -70q78 -75 78 -180zM342 1413h162l186 -297h-143l-125 205l-123 -205h-143z" />
    <glyph glyph-name="Scedilla" unicode="&#x15e;" horiz-adv-x="1093" 
d="M1020 393q0 -186 -148 -307q-88 -73 -208 -96l-160 -289h-178l188 274q-250 6 -444 238l116 133q66 -87 162 -145t197 -58q120 0 198 65.5t78 172.5q0 105 -92 162q-57 37 -67 41q-16 9 -70 30q-119 46 -225 95q-90 43 -142 100q-92 95 -92 246q0 164 129 272
q126 105 326 105q228 0 405 -183l-104 -135q-146 152 -311 152q-111 0 -178.5 -52.5t-67.5 -144.5t59 -145q41 -33 123 -70l260 -109q101 -46 160 -114q86 -109 86 -238z" />
    <glyph glyph-name="scedilla" unicode="&#x15f;" horiz-adv-x="847" 
d="M791 285q0 -140 -101 -222q-58 -49 -141 -69l-162 -293h-178l190 276q-230 9 -358 175l94 114q52 -64 132 -101.5t155 -37.5q83 0 134.5 34.5t51.5 104.5q0 69 -86 113q-20 11 -47 20l-86 29q-110 38 -133 51q-154 77 -154 234q0 128 95 202q94 76 233 76q211 0 332 -127
l-82 -121q-102 105 -246 105q-73 0 -114 -31t-41 -90q0 -51 44.5 -82t145.5 -63l131 -47q73 -30 113 -70q78 -75 78 -180z" />
    <glyph glyph-name="Scaron" unicode="&#x160;" horiz-adv-x="1093" 
d="M1020 393q0 -186 -148 -307q-135 -111 -346 -111q-171 0 -299 91q-55 41 -85 69.5t-72 77.5l116 133q66 -87 162 -145t197 -58q120 0 198 65.5t78 172.5q0 105 -92 162q-57 37 -67 41q-16 9 -70 30q-119 46 -225 95q-90 43 -142 100q-92 95 -92 246q0 164 129 272
q126 105 326 105q228 0 405 -183l-104 -135q-146 152 -311 152q-111 0 -178.5 -52.5t-67.5 -144.5t59 -145q41 -33 123 -70l260 -109q101 -46 160 -114q86 -109 86 -238zM586 1612l123 205h143l-186 -297h-162l-187 297h144z" />
    <glyph glyph-name="scaron" unicode="&#x161;" horiz-adv-x="847" 
d="M428 1208l123 205h143l-186 -297h-162l-186 297h143zM791 285q0 -140 -101 -222q-106 -86 -270 -86q-247 0 -379 175l94 114q52 -64 132 -101.5t155 -37.5q83 0 134.5 34.5t51.5 104.5q0 69 -86 113q-20 11 -47 20l-86 29q-110 38 -133 51q-154 77 -154 234q0 128 95 202
q94 76 233 76q211 0 332 -127l-82 -121q-102 105 -246 105q-73 0 -114 -31t-41 -90q0 -51 44.5 -82t145.5 -63l131 -47q73 -30 113 -70q78 -75 78 -180z" />
    <glyph glyph-name="Tcommaaccent" unicode="&#x162;" horiz-adv-x="1026" 
d="M14 1413h996v-166h-398v-1247h-198v1247h-400v166zM375 -389l74 287h200l-129 -287h-145z" />
    <glyph glyph-name="tcommaaccent" unicode="&#x163;" horiz-adv-x="636" 
d="M584 162l12 6l12 -158q-73 -33 -178 -33q-140 0 -207 101q-49 73 -49 291v444h-143v158h143v291h197v-291h233v-158h-233v-440q0 -131 24 -178q27 -50 101 -50q54 0 88 17zM215 -389l74 287h200l-129 -287h-145z" />
    <glyph glyph-name="Tcaron" unicode="&#x164;" horiz-adv-x="1026" 
d="M512 1647l125 204h143l-186 -297h-162l-186 297h143zM14 1413h996v-166h-398v-1247h-198v1247h-400v166z" />
    <glyph glyph-name="tcaron" unicode="&#x165;" horiz-adv-x="636" 
d="M584 162l12 6l12 -158q-73 -33 -178 -33q-140 0 -207 101q-49 73 -49 291v444h-143v158h143v291h197v-291h233v-158h-233v-440q0 -131 24 -178q27 -50 101 -50q54 0 88 17zM485 1081l138 439h200l-182 -439h-156z" />
    <glyph glyph-name="Tbar" unicode="&#x166;" horiz-adv-x="1026" 
d="M14 1413h996v-166h-398v-373h187v-153h-187v-721h-198v721h-187v153h187v373h-400v166z" />
    <glyph glyph-name="tbar" unicode="&#x167;" horiz-adv-x="636" 
d="M371 664h192v-164h-192v-127q0 -131 24 -178q27 -50 101 -50q54 0 88 17l12 6l12 -158q-73 -33 -178 -33q-140 0 -207 101q-49 73 -49 291v131h-106v164h106v149h-143v158h143v291h197v-291h233v-158h-233v-149z" />
    <glyph glyph-name="Utilde" unicode="&#x168;" 
d="M907 1808l97 -20q-6 -81 -61 -135t-128 -54q-63 0 -145 46q-6 6 -54 30q-37 21 -67 21q-34 0 -59 -25t-31 -63l-97 20q6 81 61 136t128 55q52 0 90 -19q49 -22 55 -28l26 -16q25 -15 52 -26.5t43 -7.5q69 0 90 86zM1022 1413h199v-835q0 -157 -24 -256t-89 -175
q-150 -172 -424 -172q-277 0 -424 172q-65 77 -90 176t-25 255v835h201v-817q0 -90 2 -121q14 -134 64 -196q91 -125 272 -125q178 0 272 125q31 42 45 96q21 89 21 221v817z" />
    <glyph glyph-name="utilde" unicode="&#x169;" horiz-adv-x="1097" 
d="M772 1370l96 -20q-6 -81 -60.5 -135t-127.5 -54q-65 0 -145 45q-8 8 -54 31q-35 20 -67 20q-34 0 -59 -25t-31 -63l-97 21q6 81 61 135.5t128 54.5q54 0 90 -18q47 -21 55 -29l26 -15q26 -16 52.5 -27t42.5 -7q69 0 90 86zM766 975h197v-975h-191l-2 139
q-42 -74 -122 -118t-179 -44q-182 0 -270 113q-72 97 -72 301v584h195v-576q0 -127 45 -192.5t157 -65.5q117 0 179.5 86.5t62.5 225.5v522z" />
    <glyph glyph-name="Umacron" unicode="&#x16a;" 
d="M1022 1413h199v-835q0 -157 -24 -256t-89 -175q-150 -172 -424 -172q-277 0 -424 172q-65 77 -90 176t-25 255v835h201v-817q0 -90 2 -121q14 -134 64 -196q91 -125 272 -125q178 0 272 125q31 42 45 96q21 89 21 221v817zM418 1763h530v-112h-530v112z" />
    <glyph glyph-name="umacron" unicode="&#x16b;" horiz-adv-x="1097" 
d="M766 975h197v-975h-191l-2 139q-42 -74 -122 -118t-179 -44q-182 0 -270 113q-72 97 -72 301v584h195v-576q0 -127 45 -192.5t157 -65.5q117 0 179.5 86.5t62.5 225.5v522zM283 1325h530v-113h-530v113z" />
    <glyph glyph-name="Ubreve" unicode="&#x16c;" 
d="M1022 1413h199v-835q0 -157 -24 -256t-89 -175q-150 -172 -424 -172q-277 0 -424 172q-65 77 -90 176t-25 255v835h201v-817q0 -90 2 -121q14 -134 64 -196q91 -125 272 -125q178 0 272 125q31 42 45 96q21 89 21 221v817zM887 1829h100q-17 -122 -96 -187t-209 -65
q-128 0 -207 65t-96 187h98q35 -133 205 -133q175 0 205 133z" />
    <glyph glyph-name="ubreve" unicode="&#x16d;" horiz-adv-x="1097" 
d="M766 975h197v-975h-191l-2 139q-42 -74 -122 -118t-179 -44q-182 0 -270 113q-72 97 -72 301v584h195v-576q0 -127 45 -192.5t157 -65.5q117 0 179.5 86.5t62.5 225.5v522zM752 1391h100q-17 -122 -96 -187t-209 -65q-128 0 -207 65t-96 187h98q35 -134 205 -134
q175 0 205 134z" />
    <glyph glyph-name="Uring" unicode="&#x16e;" 
d="M1022 1413h199v-835q0 -157 -24 -256t-89 -175q-150 -172 -424 -172q-277 0 -424 172q-65 77 -90 176t-25 255v835h201v-817q0 -90 2 -121q14 -134 64 -196q91 -125 272 -125q178 0 272 125q31 42 45 96q21 89 21 221v817zM827 1882q60 -57 60 -139t-60 -139
q-60 -56 -145 -56t-145 56q-60 57 -60 139t60 139q60 56 145 56t145 -56zM682 1849q-45 0 -74.5 -29.5t-29.5 -76.5t30 -78t74 -31q45 0 75.5 31t30.5 78t-29.5 76.5t-76.5 29.5z" />
    <glyph glyph-name="uring" unicode="&#x16f;" horiz-adv-x="1097" 
d="M766 975h197v-975h-191l-2 139q-42 -74 -122 -118t-179 -44q-182 0 -270 113q-72 97 -72 301v584h195v-576q0 -127 45 -192.5t157 -65.5q117 0 179.5 86.5t62.5 225.5v522zM694 1444q60 -57 60 -139q0 -83 -60 -140q-60 -55 -145.5 -55t-145.5 55q-59 56 -59 140
q0 83 59 139q60 56 145.5 56t145.5 -56zM625 1227q31 31 31 77.5t-31 75.5q-31 31 -76 31t-76 -31q-29 -29 -29 -75.5t29 -77.5q31 -31 76 -31t76 31z" />
    <glyph glyph-name="Uhungarumlaut" unicode="&#x170;" 
d="M1022 1413h199v-835q0 -157 -24 -256t-89 -175q-150 -172 -424 -172q-277 0 -424 172q-65 77 -90 176t-25 255v835h201v-817q0 -90 2 -121q14 -134 64 -196q91 -125 272 -125q178 0 272 125q31 42 45 96q21 89 21 221v817zM719 1554l184 297h189l-228 -297h-145z
M436 1554l185 297h190l-227 -297h-148z" />
    <glyph glyph-name="uhungarumlaut" unicode="&#x171;" horiz-adv-x="1097" 
d="M766 975h197v-975h-191l-2 139q-42 -74 -122 -118t-179 -44q-182 0 -270 113q-72 97 -72 301v584h195v-576q0 -127 45 -192.5t157 -65.5q117 0 179.5 86.5t62.5 225.5v522zM567 1116l185 297h188l-227 -297h-146zM285 1116l184 297h190l-227 -297h-147z" />
    <glyph glyph-name="Uogonek" unicode="&#x172;" 
d="M942 -266l31 -64q-91 -88 -213 -88q-94 0 -152.5 50t-58.5 135q0 108 115 208q-263 6 -404 172q-65 77 -90 176t-25 255v835h201v-817q0 -90 2 -121q14 -134 64 -196q91 -125 272 -125q178 0 272 125q31 42 45 96q21 89 21 221v817h199v-835q0 -160 -24 -258t-89 -173
q-113 -131 -305 -161q-54 -42 -88.5 -94.5t-34.5 -96.5q0 -52 33.5 -79t87.5 -27q67 0 141 45z" />
    <glyph glyph-name="uogonek" unicode="&#x173;" horiz-adv-x="1097" 
d="M1010 -274l30 -64q-91 -88 -213 -88q-94 0 -152.5 49.5t-58.5 134.5q0 128 156 242l-2 139q-42 -74 -122 -118t-179 -44q-182 0 -270 113q-72 97 -72 301v584h195v-576q0 -127 45 -192.5t157 -65.5q117 0 179.5 86.5t62.5 225.5v522h197v-975q-96 -25 -155.5 -87
t-59.5 -126q0 -52 33 -79t87 -27q68 0 142 45z" />
    <glyph glyph-name="Wcircumflex" unicode="&#x174;" horiz-adv-x="1902" 
d="M1378 299l305 1114h209l-407 -1415h-195l-340 1143l-338 -1143h-194l-408 1415h209l305 -1114l326 1114h203zM870 1851h162l187 -297h-144l-125 205l-123 -205h-143z" />
    <glyph glyph-name="wcircumflex" unicode="&#x175;" horiz-adv-x="1558" 
d="M1114 238l225 735h199l-321 -973h-181l-256 727l-258 -727h-180l-322 973h199l225 -735l256 737h158zM698 1413h162l187 -297h-144l-125 205l-123 -205h-143z" />
    <glyph glyph-name="Ycircumflex" unicode="&#x176;" horiz-adv-x="1177" 
d="M508 1851h162l186 -297h-143l-125 205l-123 -205h-143zM588 764l368 649h224l-492 -821v-592h-199v592l-491 821h223z" />
    <glyph glyph-name="ycircumflex" unicode="&#x177;" horiz-adv-x="980" 
d="M496 217l286 758l203 -2l-469 -1143q-49 -121 -109.5 -173t-146.5 -52q-92 0 -162 26l-22 9l39 159q55 -22 102 -22q25 0 34.5 2t27.5 12q38 15 65 100l47 129l-389 955l205 -2zM410 1413h161l187 -297h-144l-125 205l-122 -205h-144z" />
    <glyph glyph-name="Ydieresis" unicode="&#x178;" horiz-adv-x="1177" 
d="M821 1755q32 -31 32 -80t-32 -80q-31 -31 -75.5 -31t-75.5 31t-31 80t31 80t75.5 31t75.5 -31zM508 1755q31 -31 31 -80t-31 -80t-76.5 -31t-77.5 31q-31 31 -31 80t31 80q32 31 77.5 31t76.5 -31zM588 764l368 649h224l-492 -821v-592h-199v592l-491 821h223z" />
    <glyph glyph-name="Zacute" unicode="&#x179;" horiz-adv-x="1159" 
d="M309 170h799v-170h-1047v152l773 1093h-750v168h1010v-135zM453 1554l182 297h192l-225 -297h-149z" />
    <glyph glyph-name="zacute" unicode="&#x17a;" horiz-adv-x="933" 
d="M295 162h596v-162h-848v121l569 692h-540v158h790v-119zM338 1116l182 297h193l-226 -297h-149z" />
    <glyph glyph-name="Zdotaccent" unicode="&#x17b;" horiz-adv-x="1159" 
d="M309 170h799v-170h-1047v152l773 1093h-750v168h1010v-135zM709 1704q0 -45 -32 -77t-79 -32q-44 0 -76.5 32.5t-32.5 76.5q0 47 31 77.5t78 30.5q48 0 79.5 -30.5t31.5 -77.5z" />
    <glyph glyph-name="zdotaccent" unicode="&#x17c;" horiz-adv-x="933" 
d="M295 162h596v-162h-848v121l569 692h-540v158h790v-119zM575 1266q0 -45 -31.5 -77t-78.5 -32t-78 32t-31 77q0 47 31 77.5t78 30.5t78.5 -30.5t31.5 -77.5z" />
    <glyph glyph-name="Zcaron" unicode="&#x17d;" horiz-adv-x="1159" 
d="M588 1612l125 205h143l-186 -297h-162l-186 297h143zM309 170h799v-170h-1047v152l773 1093h-750v168h1010v-135z" />
    <glyph glyph-name="zcaron" unicode="&#x17e;" horiz-adv-x="933" 
d="M467 1208l125 205h143l-188 -297h-160l-188 297h143zM295 162h596v-162h-848v121l569 692h-540v158h790v-119z" />
    <glyph glyph-name="florin" unicode="&#x192;" horiz-adv-x="1200" 
d="M1100 1407l-53 -143q-52 34 -121 34q-50 0 -82 -32q-29 -29 -41 -61.5t-25 -104.5l-47 -244h230l-25 -145h-231l-117 -627q-31 -166 -105 -250t-219 -84q-41 0 -85.5 11.5t-67.5 25.5l-23 10l57 148q47 -29 115 -29q60 0 98 47q36 42 56 164l108 584h-188l26 145h191
l53 274q23 117 66 185q54 82 96 106q56 39 137 39q55 0 113 -18t84 -35z" />
    <glyph glyph-name="AEacute" unicode="&#x1fc;" horiz-adv-x="1800" 
d="M1124 168h588v-168h-786v373h-539l-225 -373h-223l888 1413h869v-166h-572v-413h537v-166h-537v-500zM922 1251l-435 -714h439v714h-4zM1145 1554l182 297h193l-226 -297h-149z" />
    <glyph glyph-name="aeacute" unicode="&#x1fd;" horiz-adv-x="1703" 
d="M1642 526l-4 -86h-751q7 -142 92.5 -225.5t222.5 -83.5q51 -1 97.5 8t88.5 28t60 29.5t51 30.5l25 17l82 -113l-13 -12q-166 -142 -415 -142q-245 0 -390 189l-6 8q-85 -102 -175 -149.5t-216 -47.5q-147 0 -241 82q-97 85 -97 220q0 138 102 214t283 82l256 11v41
q0 104 -64.5 161.5t-176.5 57.5q-156 0 -293 -84l-60 131q171 98 365 98q189 0 283 -88q51 -48 63 -80l6 -10q123 178 367 178q204 0 329 -131q129 -132 129 -334zM891 571h565q0 100 -74 189q-72 90 -204 90q-136 0 -209 -88q-75 -90 -78 -191zM725 281q-31 79 -31 186
l-225 -14q-221 -9 -221 -168q0 -74 53.5 -121t144.5 -47q94 0 168 51q82 54 111 113zM743 1116l183 297h192l-225 -297h-150z" />
    <glyph glyph-name="Oslashacute" unicode="&#x1fe;" horiz-adv-x="1609" 
d="M731 1520l182 297h191l-225 -297h-148zM1534 705q0 -332 -211 -531q-208 -199 -518 -199q-271 0 -467 156l-160 -164l-98 99l158 161q-162 192 -162 478q0 329 211 528q213 201 518 201q271 0 469 -154l162 166l98 -98l-162 -166q162 -189 162 -477zM379 371l764 776
q-145 115 -338 115q-223 0 -375 -152q-151 -151 -151 -401q0 -203 100 -338zM1331 709q0 192 -96 335l-762 -776q141 -112 332 -112q226 0 375 149q151 151 151 404z" />
    <glyph glyph-name="oslashacute" unicode="&#x1ff;" horiz-adv-x="1169" 
d="M475 1116l182 297h191l-225 -297h-148zM905 891l121 121l88 -86l-121 -121q107 -131 107 -322q0 -224 -148 -366q-146 -140 -366 -140q-185 0 -324 103l-121 -119l-86 84l119 121q-104 131 -104 317q0 224 147 365q146 143 369 143q184 0 319 -100zM313 303l467 465
q-78 63 -194 63q-144 0 -232 -98q-86 -95 -86 -244q0 -106 45 -186zM901 489q0 104 -43 183l-467 -463q79 -64 195 -64q144 0 229 99q86 100 86 245z" />
    <glyph glyph-name="dotlessj" unicode="&#x237;" horiz-adv-x="483" 
d="M143 973h197v-975q0 -194 -61 -279q-88 -120 -246 -120q-75 0 -111 12l-12 4l2 156q40 -15 92 -15q82 0 110.5 58t28.5 190v969z" />
    <glyph glyph-name="circumflex" unicode="&#x2c6;" horiz-adv-x="686" 
d="M262 1413h162l186 -297h-143l-125 205l-123 -205h-143z" />
    <glyph glyph-name="caron" unicode="&#x2c7;" horiz-adv-x="686" 
d="M342 1208l125 205h143l-186 -297h-162l-186 297h143z" />
    <glyph glyph-name="breve" unicode="&#x2d8;" horiz-adv-x="686" 
d="M547 1391h100q-17 -122 -96 -187t-209 -65q-128 0 -207 65t-96 187h98q35 -134 205 -134q175 0 205 134z" />
    <glyph glyph-name="dotaccent" unicode="&#x2d9;" horiz-adv-x="686" 
d="M453 1266q0 -45 -32 -77t-79 -32t-78 32t-31 77q0 47 31 77.5t78 30.5q48 0 79.5 -30.5t31.5 -77.5z" />
    <glyph glyph-name="ring" unicode="&#x2da;" horiz-adv-x="686" 
d="M487 1444q60 -57 60 -139q0 -83 -60 -140q-60 -55 -145 -55t-145 55q-60 57 -60 140q0 82 60 139q60 56 145 56t145 -56zM342 1411q-45 0 -74.5 -29.5t-29.5 -76.5t30 -78t74 -31q45 0 76 31t31 78t-30 76.5t-77 29.5z" />
    <glyph glyph-name="ogonek" unicode="&#x2db;" horiz-adv-x="686" 
d="M524 -274l31 -64q-91 -88 -213 -88q-94 0 -152.5 49.5t-58.5 134.5q0 132 170 252h121v-10q-65 -38 -112.5 -99.5t-47.5 -113.5t33.5 -79t87.5 -27q67 0 141 45z" />
    <glyph glyph-name="tilde" unicode="&#x2dc;" horiz-adv-x="686" 
d="M567 1370l97 -20q-6 -81 -61 -135t-128 -54q-65 0 -145 45q-8 8 -54 31q-35 20 -67 20q-34 0 -59 -25t-31 -63l-96 21q6 81 60.5 135.5t127.5 54.5q54 0 90 -18q47 -21 55 -29l26 -15q26 -16 52.5 -27t42.5 -7q69 0 90 86z" />
    <glyph glyph-name="hungarumlaut" unicode="&#x2dd;" horiz-adv-x="686" 
d="M297 1116l184 297h189l-228 -297h-145zM14 1116l185 297h190l-227 -297h-148z" />
    <glyph glyph-name="Wgrave" unicode="&#x1e80;" horiz-adv-x="1902" 
d="M1378 299l305 1114h209l-407 -1415h-195l-340 1143l-338 -1143h-194l-408 1415h209l305 -1114l326 1114h203zM764 1851h192l183 -297h-150z" />
    <glyph glyph-name="wgrave" unicode="&#x1e81;" horiz-adv-x="1558" 
d="M1114 238l225 735h199l-321 -973h-181l-256 727l-258 -727h-180l-322 973h199l225 -735l256 737h158zM551 1413h192l183 -297h-150z" />
    <glyph glyph-name="Wacute" unicode="&#x1e82;" horiz-adv-x="1902" 
d="M1378 299l305 1114h209l-407 -1415h-195l-340 1143l-338 -1143h-194l-408 1415h209l305 -1114l326 1114h203zM764 1554l182 297h193l-226 -297h-149z" />
    <glyph glyph-name="wacute" unicode="&#x1e83;" horiz-adv-x="1558" 
d="M1114 238l225 735h199l-321 -973h-181l-256 727l-258 -727h-180l-322 973h199l225 -735l256 737h158zM592 1116l182 297h193l-226 -297h-149z" />
    <glyph glyph-name="Wdieresis" unicode="&#x1e84;" horiz-adv-x="1902" 
d="M1378 299l305 1114h209l-407 -1415h-195l-340 1143l-338 -1143h-194l-408 1415h209l305 -1114l326 1114h203zM1217 1702q0 -47 -32 -78t-77 -31t-76 31t-31 78q0 49 31 79.5t76 30.5t77 -31t32 -79zM901 1702q0 -47 -30.5 -78t-75.5 -31t-77 31t-32 78q0 48 32 79t77 31
t75.5 -30.5t30.5 -79.5z" />
    <glyph glyph-name="wdieresis" unicode="&#x1e85;" horiz-adv-x="1558" 
d="M1114 238l225 735h199l-321 -973h-181l-256 727l-258 -727h-180l-322 973h199l225 -735l256 737h158zM1044 1264q0 -47 -31.5 -78t-76.5 -31t-76 31t-31 78q0 49 31 79.5t76 30.5t76.5 -31t31.5 -79zM729 1264q0 -47 -30.5 -78t-75.5 -31t-77 31t-32 78q0 48 32 79t77 31
t75.5 -30.5t30.5 -79.5z" />
    <glyph glyph-name="Ygrave" unicode="&#x1ef2;" horiz-adv-x="1177" 
d="M588 764l368 649h224l-492 -821v-592h-199v592l-491 821h223zM328 1851h192l182 -297h-149z" />
    <glyph glyph-name="ygrave" unicode="&#x1ef3;" horiz-adv-x="980" 
d="M496 217l286 758l203 -2l-469 -1143q-49 -121 -109.5 -173t-146.5 -52q-92 0 -162 26l-22 9l39 159q55 -22 102 -22q25 0 34.5 2t27.5 12q38 15 65 100l47 129l-389 955l205 -2zM238 1413h192l182 -297h-149z" />
    <glyph glyph-name="endash" unicode="&#x2013;" horiz-adv-x="946" 
d="M0 637h946v-154h-946v154z" />
    <glyph glyph-name="emdash" unicode="&#x2014;" horiz-adv-x="1740" 
d="M12 637h1717v-154h-1717v154z" />
    <glyph glyph-name="quoteleft" unicode="&#x2018;" horiz-adv-x="638" 
d="M158 975l182 438h156l-138 -438h-200z" />
    <glyph glyph-name="quoteright" unicode="&#x2019;" horiz-adv-x="638" 
d="M143 975l138 438h200l-182 -438h-156z" />
    <glyph glyph-name="quotesinglbase" unicode="&#x201a;" horiz-adv-x="638" 
d="M143 -238l138 437h200l-182 -437h-156z" />
    <glyph glyph-name="quotedblleft" unicode="&#x201c;" horiz-adv-x="1001" 
d="M522 975l183 438h149l-137 -438h-195zM162 975l180 438h152l-138 -438h-194z" />
    <glyph glyph-name="quotedblright" unicode="&#x201d;" horiz-adv-x="1001" 
d="M506 975l139 438h195l-183 -438h-151zM145 975l140 438h194l-182 -438h-152z" />
    <glyph glyph-name="quotedblbase" unicode="&#x201e;" horiz-adv-x="1001" 
d="M506 -238l139 437h195l-183 -437h-151zM145 -238l140 437h194l-182 -437h-152z" />
    <glyph glyph-name="dagger" unicode="&#x2020;" horiz-adv-x="1230" 
d="M698 971h396v-154h-396v-1177h-166v1177h-395v154h395v516h166v-516z" />
    <glyph glyph-name="daggerdbl" unicode="&#x2021;" horiz-adv-x="1230" 
d="M698 299h396v-154h-396v-505h-166v505h-395v154h395v528h-395v154h395v506h166v-506h396v-154h-396v-528z" />
    <glyph glyph-name="bullet" unicode="&#x2022;" horiz-adv-x="1107" 
d="M770 965q92 -92 92 -217q0 -126 -92 -218q-89 -92 -215 -92q-125 0 -217 92t-92 218q0 125 92 217t217 92q126 0 215 -92z" />
    <glyph glyph-name="ellipsis" unicode="&#x2026;" horiz-adv-x="1933" 
d="M1591 -16q-57 0 -94 35t-37 90t36.5 88.5t94.5 33.5q56 0 93.5 -33.5t37.5 -88.5t-37.5 -90t-93.5 -35zM1061 197q37 -32 37 -88t-37 -91t-94.5 -35t-94.5 35t-37 91t37 88q37 35 94.5 35t94.5 -35zM436 197q37 -32 37 -88t-37 -91t-94 -35t-94 35t-37 91t37 88
q37 35 94 35t94 -35z" />
    <glyph glyph-name="perthousand" unicode="&#x2030;" horiz-adv-x="2312" 
d="M2154 561q95 -95 95 -246q0 -150 -95 -245t-239 -95q-145 0 -240 95q-94 94 -94 245q0 152 94 246t240 94q145 0 239 -94zM1438 561q94 -94 94 -246q0 -151 -94 -245q-95 -95 -240 -95t-240 95q-94 94 -94 245q0 152 94 246t240 94t240 -94zM309 14l875 1432l102 -62
l-874 -1431zM731 1083q0 -153 -94 -247q-95 -95 -240 -95q-144 0 -239 95t-95 247q0 149 95 244q96 96 239 96q144 0 240 -96q94 -94 94 -244zM2052 164q53 59 53 153q0 95 -53 154t-137 59q-86 0 -139 -59q-52 -58 -52 -154q0 -95 52 -153q54 -60 139 -60q83 0 137 60z
M1335 164q54 60 54 153q0 94 -54 154q-53 59 -137 59q-86 0 -139 -59q-51 -57 -51 -154q0 -96 51 -153q54 -60 139 -60q83 0 137 60zM535 930q53 59 53 153q0 95 -53 154t-138 59q-86 0 -139 -59q-51 -57 -51 -154q0 -96 51 -153q52 -58 139 -58q86 0 138 58z" />
    <glyph glyph-name="guilsinglleft" unicode="&#x2039;" horiz-adv-x="649" 
d="M524 813l-241 -326l243 -327l-108 -80l-305 407l305 406z" />
    <glyph glyph-name="guilsinglright" unicode="&#x203a;" horiz-adv-x="649" 
d="M123 815l110 78l304 -406l-304 -407l-108 82l242 325z" />
    <glyph glyph-name="fraction" unicode="&#x2044;" horiz-adv-x="407" 
d="M-307 10l917 1518l105 -62l-920 -1519z" />
    <glyph glyph-name="Euro" unicode="&#x20ac;" horiz-adv-x="1200" 
d="M1038 289l6 6l82 -131l-8 -10q-9 -16 -26 -35.5t-51 -46t-75.5 -47t-103.5 -35.5t-131 -15q-204 0 -342.5 141.5t-179.5 393.5h-137v133l123 2q-2 27 -2 72v69h-121v134h139q34 223 176 368q140 146 348 146q200 0 361 -140l-68 -153q-106 133 -289 133
q-126 0 -211.5 -90t-111.5 -264h510v-134h-529v-69l2 -74h527v-133h-510q20 -171 107 -267t218 -96q164 0 297 142z" />
    <glyph glyph-name="trademark" unicode="&#x2122;" horiz-adv-x="1740" 
d="M1380 1413h183l63 -815h-133l-45 641h-4l-211 -641h-105l-208 641h-7l-43 -641h-133l64 815h180l199 -612h4zM100 1413h592v-115h-229v-700h-133v700h-230v115z" />
    <glyph glyph-name="product" unicode="&#x220f;" horiz-adv-x="1699" 
d="M1456 596h141v-154h-178q-52 -142 -174 -258q-199 -184 -528 -184h-426v442h-189v154h189v231h-189v154h189v432h426q329 0 528 -184q115 -109 170 -248h182v-154h-141q8 -68 8 -120q0 -70 -8 -111zM1262 707q0 60 -13 120h-760v-231h762q11 68 11 111zM489 442v-270h228
q240 0 377 131q66 65 106 139h-711zM1094 1112q-137 131 -377 131h-228v-262h705q-45 78 -100 131z" />
    <glyph glyph-name="minus" unicode="&#x2212;" 
d="M147 782h1072v-151h-1072v151z" />
    <glyph glyph-name="notequal" unicode="&#x2260;" 
d="M735 596h484v-152h-517l-65 -282h-154l66 282h-402v152h435l51 221h-486v150h517l65 284h154l-66 -284h402v-150h-433z" />
    <glyph glyph-name="lessequal" unicode="&#x2264;" horiz-adv-x="2015" 
d="M813 31q-32 -32 -79.5 -32t-82.5 32q-32 35 -32 82.5t32 79.5q35 35 82.5 35t79.5 -35q35 -32 35 -79.5t-35 -82.5zM639 266q-32 -32 -79.5 -32t-82.5 32q-32 35 -32 82.5t32 79.5q35 35 82.5 35t79.5 -35q35 -32 35 -79.5t-35 -82.5zM465 502q-32 -32 -79.5 -32
t-82.5 32q-32 35 -32 82.5t32 79.5q35 35 82.5 35t79.5 -35q35 -32 35 -79.5t-35 -82.5zM651 1606q35 35 82.5 35t79.5 -35q35 -32 35 -79.5t-35 -82.5q-32 -32 -79.5 -32t-82.5 32q-32 35 -32 82.5t32 79.5zM477 1370q35 35 82.5 35t79.5 -35q35 -32 35 -79.5t-35 -82.5
q-32 -32 -79.5 -32t-82.5 32q-32 35 -32 82.5t32 79.5zM303 1135q35 35 82.5 35t79.5 -35q35 -32 35 -79.5t-35 -82.5q-32 -32 -79.5 -32t-82.5 32q-32 35 -32 82.5t32 79.5zM1819 899q35 35 82 35t79 -35q35 -32 35 -79.5t-35 -82.5q-32 -32 -79 -32t-82 32
q-32 35 -32 82.5t32 79.5zM1481 899q35 35 82 35t79 -35q35 -32 35 -79.5t-35 -82.5q-32 -32 -79 -32t-82 32q-32 35 -32 82.5t32 79.5zM467 899q35 35 82.5 35t79.5 -35q35 -32 35 -79.5t-35 -82.5q-32 -32 -79.5 -32t-82.5 32q-32 35 -32 82.5t32 79.5zM129 899
q35 35 82.5 35t79.5 -35q35 -32 35 -79.5t-35 -82.5q-32 -32 -79.5 -32t-82.5 32q-32 35 -32 82.5t32 79.5zM805 899q35 35 82.5 35t79.5 -35q35 -32 35 -79.5t-35 -82.5q-32 -32 -79.5 -32t-82.5 32q-32 35 -32 82.5t32 79.5zM1143 899q35 35 82.5 35t79.5 -35
q35 -32 35 -79.5t-35 -82.5q-32 -32 -79.5 -32t-82.5 32q-32 35 -32 82.5t32 79.5z" />
    <glyph glyph-name="greaterequal" unicode="&#x2265;" horiz-adv-x="2015" 
d="M709 899q35 35 82 35t79 -35q35 -32 35 -79.5t-35 -82.5q-32 -32 -79 -32t-82 32q-32 35 -32 82.5t32 79.5zM1047 899q35 35 82 35t79 -35q35 -32 35 -79.5t-35 -82.5q-32 -32 -79 -32t-82 32q-32 35 -32 82.5t32 79.5zM1722 899q35 35 82.5 35t79.5 -35q35 -32 35 -79.5
t-35 -82.5q-32 -32 -79.5 -32t-82.5 32q-32 35 -32 82.5t32 79.5zM1384 899q35 35 82.5 35t79.5 -35q35 -32 35 -79.5t-35 -82.5q-32 -32 -79.5 -32t-82.5 32q-32 35 -32 82.5t32 79.5zM371 899q35 35 82 35t79 -35q35 -32 35 -79.5t-35 -82.5q-32 -32 -79 -32t-82 32
q-32 35 -32 82.5t32 79.5zM33 899q35 35 82.5 35t79.5 -35q35 -32 35 -79.5t-35 -82.5q-32 -32 -79.5 -32t-82.5 32q-32 35 -32 82.5t32 79.5zM1548 1135q35 35 82.5 35t79.5 -35q35 -32 35 -79.5t-35 -82.5q-32 -32 -79.5 -32t-82.5 32q-32 35 -32 82.5t32 79.5zM1374 1370
q35 35 82.5 35t79.5 -35q35 -32 35 -79.5t-35 -82.5q-32 -32 -79.5 -32t-82.5 32q-32 35 -32 82.5t32 79.5zM1200 1606q35 35 82.5 35t79.5 -35q35 -32 35 -79.5t-35 -82.5q-32 -32 -79.5 -32t-82.5 32q-32 35 -32 82.5t32 79.5zM1710 502q-32 -32 -79.5 -32t-82.5 32
q-32 35 -32 82.5t32 79.5q35 35 82.5 35t79.5 -35q35 -32 35 -79.5t-35 -82.5zM1536 266q-32 -32 -79.5 -32t-82.5 32q-32 35 -32 82.5t32 79.5q35 35 82.5 35t79.5 -35q35 -32 35 -79.5t-35 -82.5zM1362 31q-32 -32 -79.5 -32t-82.5 32q-32 35 -32 82.5t32 79.5
q35 35 82.5 35t79.5 -35q35 -32 35 -79.5t-35 -82.5z" />
    <glyph glyph-name="commaaccent" unicode="&#xf6c3;" horiz-adv-x="616" 
d="M168 -389l74 287h200l-129 -287h-145z" />
    <glyph glyph-name="apple" unicode="&#xf8ff;" horiz-adv-x="2947" 
d="M1288 -127h-14q51 42 51 92q0 72 -59 84q10 -68 10 -106q0 -74 -63 -117t-150 -43q-56 0 -96.5 31t-40.5 80q0 43 29 64.5t65 21.5q18 0 27 -3q27 55 92 82v7q-6 15 -6 47q-41 -84 -113 -84q-38 0 -65 42t-27 103q0 45 37 135q36 91 36 123q0 47 -18 47q-21 0 -43.5 -23
t-24.5 -38q0 -72 -69 -109q0 -291 -238 -291q-72 0 -118 34.5t-46 99.5q0 44 25.5 78t62.5 34q52 0 52 -59q0 -45 -23.5 -78t-60.5 -33q-4 0 -17 5t-16 5q6 -24 26.5 -41.5t41.5 -17.5q67 0 104 88q32 81 53 176q-44 17 -71 64q-18 -6 -29 -6q-115 0 -115 118q0 92 66 164
q65 74 157 74q74 0 129 -27q58 -24 74 -24q5 0 33 4v-8q-115 -27 -188 -129q-4 38 -33 62t-70 24q-59 0 -105 -50t-46 -112q0 -86 92 -86q16 0 28 6q-10 23 -10 57q0 40 21 69.5t45 29.5q35 0 35 -41q0 -32 -21.5 -65t-52.5 -52q14 -35 63 -57q34 137 97 215
q29 33 69.5 62.5t73.5 33.5v-10q-96 -47 -96 -224q0 -6 0.5 -16t1.5 -28t2 -33q65 35 65 94q0 51 -24 78v2q27 -12 30 -62q35 66 101 66q46 0 71 -43t25 -109q0 -24 -37 -117q-35 -96 -35 -137q0 -35 19 -35q25 0 45.5 30.5t34.5 86.5q21 77 26 107l25 116l20 97
q39 -17 54 -17q25 0 69 33q-1 -8 -26 -117q-45 -205 -45 -280v-15l2 -28q75 -15 75 -103q0 -58 -49 -98zM2787 236l66 -52l-232 -45l17 -82l-144 115q-55 -122 -131 -201q32 -14 84 -14q109 0 150 84h4q-7 -46 -50 -75t-95 -29q-53 0 -109 20q-118 -121 -231 -121
q-119 0 -119 195q-2 -2 -12 -2q-66 0 -111 60.5t-45 162.5q0 70 84 160t176 90q37 0 59.5 -27t22.5 -80q0 -68 -68 -121q-61 -49 -139 -59q-20 -97 -20 -135q0 -35 41 -35q10 0 12 2v2q0 67 39 129q41 68 98 68q27 0 27 -41q0 -50 -50 -109q-45 -57 -100 -63
q0 -178 115 -178q91 0 201 110q-129 61 -129 197q0 53 30 97t78 54v-6q-46 -12 -71 -53.5t-25 -97.5q0 -118 131 -176q90 103 123 208l-185 56l80 32l-106 220l86 -27l-19 129l84 -92l50 72l49 -160l69 219l35 -57l127 75v-145h78l-168 -166l166 47l-27 -86l125 -12z
M1620 -8h12v-8q-18 0 -31.5 -10t-13.5 -27q0 -19 13 -31t32 -12q60 0 103 61t43 121q0 31 -23 72q-61 -129 -143 -129q-62 0 -62 86q0 52 28 86t62 41q23 158 23 223q0 16 -18 16q-10 0 -25.5 -12.5t-30 -43.5t-14.5 -71q0 -39 -47 -282q-47 -244 -55 -267q-39 17 -54 17
q-20 0 -67 -33l34 184q49 266 56 310q26 142 26 172q0 74 -82 120q-33 21 -56 83.5t-23 158.5q0 61 36 176q39 118 39 183q0 34 -14 34q-20 0 -49.5 -35.5t-48.5 -87.5q-4 -29 -32 -178.5t-30 -152.5q-37 18 -53 18q-37 0 -63 -20l22 125q45 250 45 301q0 28 -14 28
q-27 0 -62 -86h-16q15 51 36.5 79t67.5 28q82 0 97 -92q3 4 13 19.5t14.5 22t15 19t19.5 18t21.5 10.5t26.5 5q46 0 74.5 -55.5t28.5 -131.5q0 -81 -41 -202t-41 -178q0 -56 21.5 -88.5t54.5 -40.5q33 -7 60 -35.5t34 -75.5q47 78 94 78q53 0 88 -72t35 -131q0 -63 -27 -125
q31 -48 31 -94q0 -76 -43 -133.5t-109 -57.5q-26 0 -44.5 16.5t-18.5 41.5q0 19 13 32t32 13zM350 526h-8l6 6q21 0 44.5 18.5t23.5 41.5v10q-35 -14 -80 -14q-50 0 -94.5 18.5t-44.5 50.5q0 23 27 36.5t57 13.5q36 0 81.5 -24t63.5 -54q72 31 72 94q0 37 -17 57
q-51 -32 -114 -32q-98 0 -160 67.5t-62 181.5q0 29 21 88q-53 41 -53 119q0 77 47 142q49 67 116 67q5 0 16 -1l11 -1v-10h-18q-66 0 -113 -62t-47 -133q0 -68 49 -102q56 127 162 248q108 123 176 123q63 0 63 -109q0 -88 -73 -170q-71 -80 -166 -115v-2q-2 -2 -2 -4
q-45 -179 -45 -237q0 -31 18 -50t33 -23.5t25 -4.5q48 0 100 37q-26 20 -70 20q-45 0 -57 -12v6q18 18 51 18q51 0 86 -24q86 77 86 186q0 90 -57 90q-53 0 -89 -46.5t-36 -104.5q0 -62 37 -62q27 0 45 34t18 73q0 4 -4 24h12q5 -15 5 -24q0 -41 -23.5 -80t-52.5 -39
q-49 0 -49 78q0 59 39 110.5t92 51.5q42 0 68 -37t26 -92q0 -109 -98 -179q24 -24 24 -69q0 -76 -88 -113q2 -2 2 -8q0 -28 -26 -50t-56 -22zM2410 936h19q-47 -176 -125 -176q-37 0 -66 26.5t-36 73.5q-30 -59 -53 -80.5t-54 -21.5q-57 0 -86 69q-29 76 -29 138
q0 74 76 168q76 98 139 98q36 0 50 -39q7 44 18.5 99.5t18.5 89.5l8 34q30 -19 53 -16.5t72 33.5q-113 -590 -113 -623q0 -27 14 -27q27 0 54 52q29 56 40 102zM1944 868h14q-27 -108 -92 -108q-78 0 -99 98q-29 -57 -52.5 -78.5t-51.5 -21.5q-57 0 -86 69q-31 73 -31 138
q0 74 76 168q76 98 139 98q39 0 54 -47l10 41q41 -15 55 -15t68 31q-78 -407 -78 -432q0 -27 12 -27q27 0 62 86zM2853 868h16q-30 -108 -94 -108q-81 0 -96 98q-31 -59 -54 -79.5t-51 -20.5q-54 0 -88 69q-30 71 -30 138q0 73 77 168q76 98 140 98q35 0 53 -47l10 41
q40 -15 53 -15q20 0 68 31l-25 -125q-20 -95 -36 -192q-17 -100 -17 -115q0 -27 14 -27q25 0 60 86zM1024 868h14q-27 -108 -94 -108q-34 0 -61.5 25.5t-34.5 72.5q-30 -60 -52.5 -80t-54.5 -20q-55 0 -84 69q-28 73 -28 138q0 72 78 168q76 98 139 98q31 0 49 -47l10 41
q57 -20 78 -11q7 3 18 9.5t18.5 12t8.5 5.5q-1 -7 -4.5 -23t-10 -46t-12.5 -58q-21 -104 -36 -190q-17 -100 -17 -115q0 -27 17 -27q24 0 59 86zM688 -152h-8q-42 0 -78.5 21.5t-36.5 56.5q0 43 53 43q37 0 69 -26t32 -58q0 -1 -1 -8t-1 -8q53 13 88 48.5t35 88.5
q0 23 -11 60h7q12 -18 12 -60q0 -56 -40.5 -99t-98.5 -54q-30 -58 -117 -58q-61 0 -108.5 27t-47.5 74q0 25 14.5 41t38.5 16q19 0 25 -2q-133 115 -295 115q-38 0 -174 -17q25 9 83 27t67 22q73 28 129 90q57 63 57 121q0 66 -46 106t-116 40q-145 0 -145 -84q0 -24 27 -40
t61 -16q38 0 106 56v-15q-45 -63 -106 -63q-43 0 -74 22t-31 56q0 98 154 98q89 0 138.5 -46t49.5 -122q0 -58 -51 -115q-52 -58 -94 -84l29 -8q90 -20 146.5 -53.5t105.5 -103.5h-3v-3q-4 0 -17 3.5t-17 3.5q-52 0 -52 -45t50 -66q55 -25 96 -25q62 0 96 43zM2234 1141
q-3 73 -30 73q-23 0 -38.5 -38t-15.5 -66q-51 -219 -51 -313q0 -17 15 -17q40 0 61 70q22 74 59 291zM1036 -49h-24q-68 0 -68 -64q0 -41 34.5 -66.5t80.5 -25.5q45 0 84 29.5t39 71.5q0 36 -41 147q-62 -22 -82 -70q28 -10 44.5 -31.5t16.5 -41.5q0 -13 -12 -26t-29 -13
q-21 0 -33 19.5t-12 39.5t2 31zM2675 926q2 48 35 198q0 90 -29 90q-38 0 -53 -104q-50 -273 -50 -313q0 -17 13 -17q49 0 84 146zM1765 926q4 58 35 198q0 90 -28 90q-37 2 -54 -104q-49 -267 -49 -313q0 -17 10 -17q51 0 86 146zM846 926q2 48 35 198q0 90 -29 90
q-17 0 -32.5 -34t-20.5 -70q-49 -215 -49 -313q0 -17 12 -17q46 0 84 146zM434 1356q0 -1 -17 -46.5t-41 -111t-36 -98.5q82 37 141 127q60 91 60 186q0 41 -29 41q-19 0 -35.5 -20.5t-42.5 -77.5zM2421 795h4q-10 -61 -53.5 -100.5t-102.5 -47.5q0 -43 -43 -75.5
t-100 -32.5q-55 0 -92 24.5t-37 75.5q0 32 26 60.5t60 29.5v-6q-27 -5 -48.5 -26.5t-21.5 -45.5q0 -84 117 -84q126 0 129 80q-2 -2 -12 -2q-38 0 -63 15.5t-25 41.5q0 12 12 21.5t24 9.5q24 0 45 -19t29 -46q51 6 95.5 43t56.5 84zM1917 729l16 -8q-12 -56 -68.5 -95.5
t-123.5 -39.5h-17q-27 -27 -77 -27q-113 0 -160 86v2q71 -80 155 -80q47 0 68 21q-69 9 -139 51q-68 44 -68 117q0 35 17 55l8 -6q-8 -24 -8 -45q0 -67 65 -105q61 -35 144 -45q6 12 6 29q0 36 -30.5 62t-72.5 26q-34 0 -63 -16l-6 2q18 18 49 22t60.5 -5.5t51 -33
t21.5 -55.5q0 -11 -4 -31h6q63 0 111 31t59 88zM1966 231q57 9 94 84t37 136q0 34 -16 34q-66 0 -115 -254zM2009 53v-4q40 0 86 55q49 58 49 107q0 22 -14 22q-44 0 -84 -63q-37 -61 -37 -117zM410 623q-18 29 -57 50t-72 21q-64 0 -64 -37q0 -49 109 -49q44 0 84 15z
M1290 522l-8 2v4q-6 39 -28 59.5t-48 20.5q-14 0 -63 -24q-54 -23 -99 -23q-53 0 -53 41q0 24 21 37.5t49 13.5l94 -10q51 0 51 37q0 22 -17.5 35.5t-43.5 13.5q-45 0 -45 -29q0 -22 24 -22q18 0 35 10l2 -12q-13 -8 -35 -8q-39 0 -39 30q0 16 20 28.5t40 12.5
q31 0 51.5 -16t20.5 -41q0 -47 -64 -47l-94 10q-62 0 -62 -43q0 -29 43 -29q25 0 80 25q52 27 72 27q42 0 69 -29t27 -74zM1638 223q-31 -1 -54 -37.5t-23 -79.5q0 -57 36 -57q16 0 25 47l6 41q10 42 10 86zM705 -111q0 28 -25 48t-55 20q-43 0 -43 -41q0 -29 44 -46
q46 -17 69 -1q10 7 10 20zM627 391q67 46 67 105q0 30 -24 30q-25 0 -38.5 -28.5t-11.5 -58.5t7 -48zM2251 668h6q-12 53 -55 53q-25 0 -25 -21q0 -32 74 -32zM1053 -53q-2 -6 -2 -21q0 -49 24 -49q25 0 25 19q0 30 -47 51z" />
    <glyph glyph-name="NULL" horiz-adv-x="0" 
 />
    <glyph glyph-name="CR" horiz-adv-x="681" 
 />
    </font>
</defs>
</svg>
